<?xml version="1.0" encoding="UTF-8" standalone="no"?>
<svg width="375px" height="375px" viewBox="0 0 375 375" version="1.1" xmlns="http://www.w3.org/2000/svg" xmlns:xlink="http://www.w3.org/1999/xlink" xmlns:sketch="http://www.bohemiancoding.com/sketch/ns">
    <!-- Generator: Sketch 3.3.2 (12043) - http://www.bohemiancoding.com/sketch -->
    <title>tap_swipe_light_gray_small-22bef3788c4e7d4d49ea06cb62a34192</title>
    <desc>Created with Sketch.</desc>
    <defs>
        <circle id="path-1" cx="187.5" cy="187.5" r="187.5"></circle>
    </defs>
    <g id="Page-1" stroke="none" stroke-width="1" fill="none" fill-rule="evenodd" sketch:type="MSPage">
        <g id="Desktop-HD" sketch:type="MSArtboardGroup" transform="translate(-219.000000, -2797.000000)">
            <g id="birds-eye-view" sketch:type="MSLayerGroup" transform="translate(219.000000, 2797.000000)">
                <g id="tap_swipe_light_gray_small-22bef3788c4e7d4d49ea06cb62a34192">
                    <mask id="mask-2" sketch:name="Mask" fill="white">
                        <use xlink:href="#path-1"></use>
                    </mask>
                    <use id="Mask" fill="#D8D8D8" sketch:type="MSShapeGroup" xlink:href="#path-1"></use>
                    <g id="Group" mask="url(#mask-2)" sketch:type="MSShapeGroup">
                        <g transform="translate(37.000000, 40.000000)">
                            <path d="M308.178131,107.09799 L232.248298,107.098506 C232.391915,107.707379 233.128013,108.18519 234.050452,108.261042 L308.177102,108.261042 L308.178131,107.09799" id="Fill-4" fill="#EDA22D"></path>
                            <path d="M308.177102,111.027805 L308.177102,108.261042 L234.050452,108.261042 L234.051997,108.262074 L234.028833,108.26517 L234.054056,108.266202 C233.021974,108.350825 232.222046,108.934415 232.220502,109.644423 C232.222561,110.354432 233.022489,110.938022 234.054056,111.022129 L234.028833,111.023677 L234.051997,111.027289 L234.050967,111.027805 L308.177102,111.027805" id="Fill-5" fill="#F4E5B1"></path>
                            <path d="M234.050967,111.027805 C233.127498,111.10314 232.3914,111.581467 232.247784,112.190341 L308.177102,112.190341 L308.177102,111.027805 L234.050967,111.027805" id="Fill-6" fill="#EDA22D"></path>
                            <path d="M232.247784,112.192921 C232.388826,111.583015 233.125439,111.103656 234.050967,111.027805 L234.051997,111.027289 L234.028833,111.023677 L234.054056,111.022129 C233.022489,110.938022 232.222561,110.354432 232.220502,109.644423 C232.222046,108.934415 233.021974,108.350825 234.054056,108.266202 L234.028833,108.26517 L234.051997,108.262074 L234.050452,108.261042 C233.125439,108.18519 232.389341,107.706347 232.247784,107.09541 L227.383357,109.644423 L232.247784,112.192921" id="Fill-7" fill="#E8AC6A"></path>
                            <path d="M229.770787,108.393136 L227.383357,109.644423 L229.770272,110.896227 C229.915948,110.492719 229.996764,110.075279 229.995734,109.644423 C229.996764,109.213568 229.915948,108.79458 229.770787,108.393136" id="Fill-8" fill="#172E41"></path>
                            <path d="M308.205928,107.09799 L308.206443,108.261042 L310.508938,108.261042 L310.507393,107.098506 L308.205928,107.09799" id="Fill-9" fill="#B4262D"></path>
                            <path d="M308.206443,108.261042 L308.205928,111.027805 L310.507393,111.027805 L310.508938,108.261042 L308.206443,108.261042" id="Fill-10" fill="#E05561"></path>
                            <path d="M308.205928,111.027805 L308.206443,112.190341 L310.508938,112.190341 L310.507393,111.027805 L308.205928,111.027805" id="Fill-11" fill="#B4262D"></path>
                            <path d="M312.308003,92.386981 C312.065039,92.386981 311.816928,92.3297056 311.590951,92.2022549 L298.851302,85.3405575 C296.401072,84.0196111 293.789725,83.0061975 291.093957,82.3261165 C288.397675,81.6419075 285.618003,81.2987711 282.835757,81.2987711 L226.837718,81.2987711 L226.837718,78.2544024 L282.835757,78.2544024 C285.867659,78.2544024 288.894413,78.6336585 291.835718,79.3735949 C294.77239,80.1155953 297.616407,81.2224039 300.286951,82.663061 L313.027115,89.5252744 C313.766816,89.9231063 314.041695,90.8451888 313.645849,91.5840932 C313.371485,92.094412 312.84798,92.386981 312.308003,92.386981" id="Fill-12" fill="#4D5F70"></path>
                            <path d="M225.235289,92.386981 C225.477223,92.386981 225.72482,92.3297056 225.953885,92.2022549 L238.691475,85.3405575 C241.141705,84.0196111 243.752023,83.0061975 246.447275,82.3261165 C249.144072,81.6419075 251.924259,81.2987711 254.70599,81.2987711 L310.706089,81.2987711 L310.706089,78.2544024 L254.70599,78.2544024 C251.673059,78.2544024 248.64579,78.6336585 245.707059,79.3735949 C242.768328,80.1155953 239.926885,81.2224039 237.253252,82.663061 L224.514633,89.5252744 C223.77699,89.9231063 223.500052,90.8451888 223.896413,91.5840932 C224.171292,92.094412 224.695311,92.386981 225.235289,92.386981" id="Fill-13" fill="#4D5F70"></path>
                            <path d="M264.781272,80.6775135 L264.781272,80.6775135 C264.781272,78.4721522 266.571072,76.6811346 268.770102,76.6811346 C270.971705,76.6811346 272.76202,78.4721522 272.76202,80.6775135 L275.795466,80.6775135 C275.795466,76.7889775 272.652892,73.6367659 268.770102,73.6367659 C264.89143,73.6367659 261.746797,76.7889775 261.746797,80.6775135 L264.781272,80.6775135" id="Fill-14" fill="#1F2D3C"></path>
                            <path d="M261.746797,85.4401445 C261.746797,88.6449875 259.130816,91.2672725 255.933679,91.2672725 L235.684282,91.2672725 C232.487144,91.2672725 229.871679,88.6449875 229.871679,85.4401445 L229.871679,74.4974451 C229.871679,71.292602 232.487144,68.669801 235.684282,68.669801 L255.933679,68.669801 C259.130816,68.669801 261.746797,71.292602 261.746797,74.4974451 L261.746797,85.4401445" id="Fill-15" fill="#E1EFF5"></path>
                            <path d="M255.933679,68.669801 L244.79337,68.669801 L244.79337,91.2672725 L255.933679,91.2672725 C259.130816,91.2672725 261.746797,88.6449875 261.746797,85.4401445 L261.746797,74.4974451 C261.746797,71.292602 259.130816,68.669801 255.933679,68.669801" id="Fill-16" fill="#CCE0EA"></path>
                            <path d="M307.581531,85.4401445 C307.581531,88.6449875 304.965036,91.2672725 301.767898,91.2672725 L281.518502,91.2672725 C278.321364,91.2672725 275.705898,88.6449875 275.705898,85.4401445 L275.705898,74.4974451 C275.705898,71.292602 278.321364,68.669801 281.518502,68.669801 L301.767898,68.669801 C304.965036,68.669801 307.581531,71.292602 307.581531,74.4974451 L307.581531,85.4401445" id="Fill-17" fill="#E1EFF5"></path>
                            <path d="M301.767898,68.669801 L290.628105,68.669801 L290.628105,91.2672725 L301.767898,91.2672725 C304.965036,91.2672725 307.581531,88.6449875 307.581531,85.4401445 L307.581531,74.4974451 C307.581531,71.292602 304.965036,68.669801 301.767898,68.669801" id="Fill-18" fill="#CCE0EA"></path>
                            <path d="M261.746797,85.4401445 C261.746797,88.6449875 259.130816,91.2672725 255.933679,91.2672725 L235.684282,91.2672725 C232.487144,91.2672725 229.871679,88.6449875 229.871679,85.4401445 L229.871679,74.4974451 C229.871679,71.292602 232.487144,68.669801 235.684282,68.669801 L255.933679,68.669801 C259.130816,68.669801 261.746797,71.292602 261.746797,74.4974451 L261.746797,85.4401445 L261.746797,85.4401445 Z M257.441393,65.7038636 L234.177082,65.7038636 C230.139866,65.7038636 226.837718,69.0150015 226.837718,73.0603999 L226.837718,86.8766737 C226.837718,90.923104 230.139866,94.233726 234.177082,94.233726 L257.441393,94.233726 C261.47861,94.233726 264.781272,90.923104 264.781272,86.8766737 L264.781272,73.0603999 C264.781272,69.0150015 261.47861,65.7038636 257.441393,65.7038636 L257.441393,65.7038636 Z" id="Fill-19" fill="#273B4E"></path>
                            <path d="M307.581531,85.4401445 C307.581531,88.6449875 304.965036,91.2672725 301.767898,91.2672725 L281.518502,91.2672725 C278.321364,91.2672725 275.705898,88.6449875 275.705898,85.4401445 L275.705898,74.4974451 C275.705898,71.292602 278.321364,68.669801 281.518502,68.669801 L301.767898,68.669801 C304.965036,68.669801 307.581531,71.292602 307.581531,74.4974451 L307.581531,85.4401445 L307.581531,85.4401445 Z M303.276128,65.7038636 L280.011816,65.7038636 C275.9746,65.7038636 272.671938,69.0150015 272.671938,73.0603999 L272.671938,86.8766737 C272.671938,90.923104 275.9746,94.233726 280.011816,94.233726 L303.276128,94.233726 C307.313344,94.233726 310.615492,90.923104 310.615492,86.8766737 L310.615492,73.0603999 C310.615492,69.0150015 307.313344,65.7038636 303.276128,65.7038636 L303.276128,65.7038636 Z" id="Fill-20" fill="#273B4E"></path>
                            <path d="M0.503429508,67.1362648 L126.781361,67.2059241 L126.681498,246.230798 L0.403567213,246.160107 L0.503429508,67.1362648" id="Fill-21" fill="#FFFFFF"></path>
                            <path d="M77.9497279,161.30478 C77.2707672,163.407458 76.1779443,165.298579 74.7124393,166.881134 L85.7544295,182.333627 C91.3348787,177.512173 95.3437836,170.924985 96.8623082,163.407458 L77.9497279,161.30478" id="Fill-22" fill="#A6D7DE"></path>
                            <path d="M66.6817607,141.706269 C73.1151574,143.04992 77.9888492,148.488504 78.6286885,155.158251 L97.5139869,157.246482 C97.5139869,157.033376 97.5407541,156.826978 97.5407541,156.606648 C97.5407541,138.864687 83.9821311,124.304865 66.6817607,122.735725 L66.6817607,141.706269" id="Fill-23" fill="#EC942F"></path>
                            <path d="M52.4189541,146.405949 C54.5212098,144.071073 57.3044852,142.373967 60.5160361,141.706269 L60.5160361,122.735725 C50.4330328,123.643875 41.6708885,128.970489 36.0631574,136.7553 L52.4189541,146.405949" id="Fill-24" fill="#2BA8B0"></path>
                            <path d="M69.7188098,170.498257 C67.8409869,171.339329 65.7763082,171.820752 63.5922066,171.820752 C55.2145836,171.820752 48.4213738,165.004462 48.4213738,156.607164 C48.4213738,154.890966 48.768318,153.274354 49.2892492,151.740302 L32.9334525,142.080366 C30.8564197,146.49212 29.6431443,151.400262 29.6431443,156.607164 C29.6431443,175.403303 44.8386852,190.630306 63.5922066,190.630306 C69.8505869,190.630306 75.7002525,188.91514 80.7330033,185.937334 L69.7188098,170.498257" id="Fill-25" fill="#4D85A2"></path>
                            <path d="M13.5570787,79.2022847 L29.3595148,79.2022847 L29.3595148,83.8116652 L13.5570787,83.8116652 L13.5570787,79.2022847 Z" id="Fill-26" fill="#EC942F"></path>
                            <path d="M13.5570787,89.7074206 L29.3595148,89.7074206 L29.3595148,94.3168011 L13.5570787,94.3168011 L13.5570787,89.7074206 Z" id="Fill-27" fill="#2BA8B0"></path>
                            <path d="M13.5570787,100.212556 L29.3595148,100.212556 L29.3595148,104.821421 L13.5570787,104.821421 L13.5570787,100.212556 Z" id="Fill-28" fill="#A6D7DE"></path>
                            <path d="M13.5570787,110.717692 L29.3595148,110.717692 L29.3595148,115.326557 L13.5570787,115.326557 L13.5570787,110.717692 Z" id="Fill-29" fill="#4D85A2"></path>
                            <path d="M40.0586787,79.4324183 L113.62682,79.4324183 L113.62682,84.6191969 L40.0586787,84.6191969 L40.0586787,79.4324183 Z" id="Fill-30" fill="#C7C7C2"></path>
                            <path d="M40.0586787,94.9323828 L113.62682,94.9323828 L113.62682,100.114517 L40.0586787,100.114517 L40.0586787,94.9323828 Z" id="Fill-31" fill="#C7C7C2"></path>
                            <path d="M40.0586787,110.432863 L113.62682,110.432863 L113.62682,115.611386 L40.0586787,115.611386 L40.0586787,110.432863 Z" id="Fill-32" fill="#C7C7C2"></path>
                            <path d="M40.0586787,102.683655 L113.62682,102.683655 L113.62682,107.861662 L40.0586787,107.861662 L40.0586787,102.683655 Z" id="Fill-33" fill="#C7C7C2"></path>
                            <path d="M40.0586787,87.1852385 L113.62682,87.1852385 L113.62682,92.3637612 L40.0586787,92.3637612 L40.0586787,87.1852385 Z" id="Fill-34" fill="#C7C7C2"></path>
                            <path d="M13.558623,195.363009 L16.9019508,195.363009 L16.9019508,230.979543 L13.558623,230.979543 L13.558623,195.363009 Z" id="Fill-35" fill="#C7C7C2"></path>
                            <path d="M13.5570787,230.979543 L113.62682,230.979543 L113.62682,234.331444 L13.5570787,234.331444 L13.5570787,230.979543 Z" id="Fill-36" fill="#C7C7C2"></path>
                            <path d="M25.681082,215.141602 L34.6393475,215.141602 L34.6393475,230.979543 L25.681082,230.979543 L25.681082,215.141602 Z" id="Fill-37" fill="#2BA8B0"></path>
                            <path d="M25.681082,207.223663 L34.6393475,207.223663 L34.6393475,215.141602 L25.681082,215.141602 L25.681082,207.223663 Z" id="Fill-38" fill="#A6D7DE"></path>
                            <path d="M42.3869115,208.283516 L51.3462066,208.283516 L51.3462066,230.979543 L42.3869115,230.979543 L42.3869115,208.283516 Z" id="Fill-39" fill="#2BA8B0"></path>
                            <path d="M42.3869115,203.744311 L51.3462066,203.744311 L51.3462066,208.283516 L42.3869115,208.283516 L42.3869115,203.744311 Z" id="Fill-40" fill="#A6D7DE"></path>
                            <path d="M59.0932557,219.455833 L68.0520361,219.455833 L68.0520361,230.979543 L59.0932557,230.979543 L59.0932557,219.455833 Z" id="Fill-41" fill="#2BA8B0"></path>
                            <path d="M59.0932557,211.182375 L68.0520361,211.182375 L68.0520361,219.455833 L59.0932557,219.455833 L59.0932557,211.182375 Z" id="Fill-42" fill="#A6D7DE"></path>
                            <path d="M75.7996,224.379971 L84.7583803,224.379971 L84.7583803,230.979543 L75.7996,230.979543 L75.7996,224.379971 Z" id="Fill-43" fill="#2BA8B0"></path>
                            <path d="M75.7996,217.781431 L84.7583803,217.781431 L84.7583803,224.379971 L75.7996,224.379971 L75.7996,217.781431 Z" id="Fill-44" fill="#A6D7DE"></path>
                            <path d="M126.693852,223.233431 L90.3120623,223.211759 L90.3378,177.527653 C93.1432098,173.948198 95.2470098,169.793924 96.433518,165.258847 L96.404177,217.197841 L126.697456,217.214868 L126.693852,223.233431 M96.4345475,163.359987 L90.3460361,162.683002 L90.3491246,156.453914 L96.4381508,157.127287 L96.4345475,163.359987 M96.4427836,147.994697 C95.2598787,143.452912 93.1632852,139.28161 90.3609639,135.688739 L90.3722885,115.611386 L96.4613148,115.611386 L96.4427836,147.994697 M96.4638885,110.432863 L90.375377,110.432863 L90.3764066,107.861662 L96.4654328,107.861662 L96.4638885,110.432863 M96.4685213,102.683655 L90.3794951,102.683655 L90.3810393,100.114517 L96.4700656,100.114517 L96.4685213,102.683655 M96.4726393,94.9323828 L90.3836131,94.9323828 L90.3851574,92.3637612 L96.4741836,92.3637612 L96.4726393,94.9323828 M96.4772721,87.1852385 L90.3882459,87.1852385 L90.3897902,84.6191969 L96.4783016,84.6191969 L96.4772721,87.1852385 M96.4813902,79.4324183 L90.3923639,79.4324183 L90.3995705,67.1863163 L96.488082,67.1894123 L96.4813902,79.4324183" id="Fill-45" fill="#E4E4DF"></path>
                            <path d="M90.3378,177.527653 L90.3460361,162.683002 L96.4345475,163.359987 L96.433518,165.258847 C95.2470098,169.793924 93.1432098,173.948198 90.3378,177.527653" id="Fill-46" fill="#94BDC3"></path>
                            <path d="M96.4381508,157.127287 L90.3491246,156.453914 L90.3609639,135.688739 C93.1632852,139.28161 95.2598787,143.452912 96.4427836,147.994697 L96.4381508,157.127287" id="Fill-47" fill="#D3842F"></path>
                            <path d="M96.4783016,84.6191969 L90.3897902,84.6191969 L90.3923639,79.4324183 L96.4813902,79.4324183 L96.4783016,84.6191969" id="Fill-48" fill="#B1B1AD"></path>
                            <path d="M96.4700656,100.114517 L90.3810393,100.114517 L90.3836131,94.9323828 L96.4726393,94.9323828 L96.4700656,100.114517" id="Fill-49" fill="#B1B1AD"></path>
                            <path d="M96.4613148,115.611386 L90.3722885,115.611386 L90.375377,110.432863 L96.4638885,110.432863 L96.4613148,115.611386" id="Fill-50" fill="#B1B1AD"></path>
                            <path d="M96.4654328,107.861662 L90.3764066,107.861662 L90.3794951,102.683655 L96.4685213,102.683655 L96.4654328,107.861662" id="Fill-51" fill="#B1B1AD"></path>
                            <path d="M96.4741836,92.3637612 L90.3851574,92.3637612 L90.3882459,87.1852385 L96.4772721,87.1852385 L96.4741836,92.3637612" id="Fill-52" fill="#B1B1AD"></path>
                            <path d="M96.5035246,39.8427257 L221.604728,39.912385 L221.50538,217.268532 L96.404177,217.197841 L96.5035246,39.8427257" id="Fill-53" fill="#FFFFFF"></path>
                            <path d="M112.20301,131.522082 L123.006669,131.528274 L122.988652,141.380677 L112.182934,141.373969 L112.20301,131.522082" id="Fill-54" fill="#4D85A2"></path>
                            <path d="M124.687341,127.281122 L135.493059,127.286282 L135.480705,141.386353 L124.676016,141.380677 L124.687341,127.281122" id="Fill-55" fill="#5F94AE"></path>
                            <path d="M137.177334,117.406016 L147.981508,117.411175 L147.972757,141.393577 L137.169098,141.387385 L137.177334,117.406016" id="Fill-56" fill="#72A3BC"></path>
                            <path d="M149.67299,120.737793 L160.477164,120.744501 L160.465325,141.400285 L149.661666,141.394093 L149.67299,120.737793" id="Fill-57" fill="#85B4CC"></path>
                            <path d="M162.161954,131.062331 L172.966643,131.068007 L172.957892,141.407509 L162.154748,141.401833 L162.161954,131.062331" id="Fill-58" fill="#98C4D9"></path>
                            <path d="M174.336918,127.150575 L185.140577,127.156251 L185.13337,141.393577 L174.328682,141.387385 L174.336918,127.150575" id="Fill-59" fill="#72A3BC"></path>
                            <path d="M186.833089,120.734697 L197.636233,120.741405 L197.625423,141.400285 L186.821249,141.394093 L186.833089,120.734697" id="Fill-60" fill="#85B4CC"></path>
                            <path d="M199.321023,107.094378 L210.126226,107.099538 L210.11799,141.407509 L199.314331,141.401833 L199.321023,107.094378" id="Fill-61" fill="#98C4D9"></path>
                            <path d="M107.916652,155.968363 L154.790675,155.994162 L154.790161,159.116446 L107.914593,159.090131 L107.916652,155.968363" id="Fill-62" fill="#C7C7C2"></path>
                            <path d="M107.913049,161.431714 L154.789131,161.456998 L154.786043,164.579282 L107.91202,164.553482 L107.913049,161.431714" id="Fill-63" fill="#C7C7C2"></path>
                            <path d="M107.909961,166.895066 L154.784498,166.921382 L154.783469,170.04315 L107.907902,170.017866 L107.909961,166.895066" id="Fill-64" fill="#C7C7C2"></path>
                            <path d="M107.907387,172.358418 L154.781925,172.384734 L154.780895,175.50547 L107.905328,175.48225 L107.907387,172.358418" id="Fill-65" fill="#C7C7C2"></path>
                            <path d="M107.904298,177.822286 L154.778836,177.848086 L154.776777,180.969853 L107.902239,180.944054 L107.904298,177.822286" id="Fill-66" fill="#C7C7C2"></path>
                            <path d="M107.90121,183.285122 L154.776777,183.310921 L154.773689,186.433721 L107.899666,186.406374 L107.90121,183.285122" id="Fill-67" fill="#C7C7C2"></path>
                            <path d="M107.897092,188.748989 L154.773689,188.774273 L154.7706,191.898621 L107.896577,191.870757 L107.897092,188.748989" id="Fill-68" fill="#C7C7C2"></path>
                            <path d="M107.895033,194.212341 L131.332816,194.225757 L131.331787,197.348041 L107.893489,197.335141 L107.895033,194.212341" id="Fill-69" fill="#C7C7C2"></path>
                            <path d="M163.179623,155.999838 L210.054675,156.025122 L210.053131,159.14689 L163.178079,159.12109 L163.179623,155.999838" id="Fill-70" fill="#C7C7C2"></path>
                            <path d="M163.176534,161.462674 L210.053131,161.488474 L210.049528,164.610242 L163.17499,164.584442 L163.176534,161.462674" id="Fill-71" fill="#C7C7C2"></path>
                            <path d="M163.173446,166.926542 L210.048498,166.950794 L210.046954,170.07411 L163.171902,170.04831 L163.173446,166.926542" id="Fill-72" fill="#C7C7C2"></path>
                            <path d="M163.170357,172.389378 L210.045925,172.415693 L210.044895,175.536429 L163.168813,175.511662 L163.170357,172.389378" id="Fill-73" fill="#C7C7C2"></path>
                            <path d="M163.167784,177.85273 L210.041807,177.879561 L210.040777,181.000813 L163.165725,180.975013 L163.167784,177.85273" id="Fill-74" fill="#C7C7C2"></path>
                            <path d="M163.164695,183.316597 L210.039748,183.342913 L210.037174,186.464681 L163.162121,186.439397 L163.164695,183.316597" id="Fill-75" fill="#C7C7C2"></path>
                            <path d="M163.160062,188.779949 L210.036144,188.805233 L210.034085,191.928549 L163.159548,191.901717 L163.160062,188.779949" id="Fill-76" fill="#C7C7C2"></path>
                            <path d="M163.158518,194.244333 L196.152711,194.261877 L196.151682,197.383645 L163.156974,197.365585 L163.158518,194.244333" id="Fill-77" fill="#C7C7C2"></path>
                            <path d="M114.656843,98.995841 L111.781941,95.0907932 L147.454915,68.7172725 L170.640984,84.606297 L207.668275,59.1904626 L210.401105,63.1930334 L170.642013,90.4850245 L147.561469,74.6682393 L114.656843,98.995841" id="Fill-78" fill="#F4BA29"></path>
                            <path d="M210.739298,71.6924979 L206.865774,71.6924979 L206.865774,63.132146 L198.326003,63.132146 L198.326003,59.250834 L210.739298,59.250834 L210.739298,71.6924979" id="Fill-79" fill="#F4BA29"></path>
                            <path d="M175.658292,86.6346722 C175.658292,83.6867945 173.272921,81.2972231 170.333675,81.2972231 C167.393915,81.2972231 165.009574,83.6867945 165.009574,86.6346722 C165.009574,89.5815178 167.393915,91.9716053 170.333675,91.9716053 C173.272921,91.9716053 175.658292,89.5815178 175.658292,86.6346722" id="Fill-80" fill="#2BA8B0"></path>
                            <path d="M152.912338,71.6924979 C152.912338,68.7451363 150.529026,66.3555648 147.587721,66.3555648 C144.647446,66.3555648 142.264134,68.7451363 142.264134,71.6924979 C142.264134,74.6403756 144.647446,77.029947 147.587721,77.029947 C150.529026,77.029947 152.912338,74.6403756 152.912338,71.6924979" id="Fill-81" fill="#2BA8B0"></path>
                            <path d="M167.631731,155.982295 C167.634305,155.979715 167.636879,155.977135 167.639452,155.975071 C167.636879,155.977135 167.634305,155.979715 167.631731,155.982295 M167.660043,155.955463 C167.663646,155.951851 167.667249,155.948755 167.670338,155.945659 C167.666734,155.949271 167.663646,155.951851 167.660043,155.955463 M167.688354,155.928631 C167.692472,155.925019 167.696075,155.921407 167.699679,155.917795 C167.696075,155.921407 167.691957,155.925535 167.688354,155.928631 M167.717695,155.901283 C167.721813,155.897671 167.725416,155.894575 167.729534,155.890448 C167.725416,155.894059 167.721298,155.897671 167.717695,155.901283 M167.746521,155.874452 C167.750639,155.87084 167.754243,155.867228 167.758361,155.863616 C167.754243,155.867228 167.750639,155.870324 167.746521,155.874452 M167.774318,155.848652 C167.795938,155.828528 167.817557,155.808404 167.839177,155.788797 C167.817557,155.808404 167.795938,155.828528 167.774318,155.848652 M167.84278,155.785185 C167.849987,155.778477 167.857708,155.771253 167.864915,155.764545 C167.857708,155.771253 167.850502,155.777961 167.84278,155.785185 M167.871092,155.758869 C167.879328,155.751129 167.887049,155.744421 167.895285,155.736681 C167.887049,155.744421 167.879328,155.751129 167.871092,155.758869 M167.897859,155.734101 C167.906095,155.726877 167.914846,155.719137 167.922567,155.711397 C167.914331,155.719137 167.90661,155.726361 167.897859,155.734101 M167.92617,155.708301 C167.934407,155.700561 167.942643,155.693338 167.951393,155.685598 C167.942643,155.693338 167.934407,155.700561 167.92617,155.708301" id="Fill-82" fill="#FFFFFF"></path>
                            <path d="M167.064987,156.532345 C167.067046,156.530281 167.070134,156.527185 167.072193,156.525121 L167.064987,156.532345 M167.093813,156.503449 C167.096387,156.501385 167.098961,156.498289 167.101534,156.495709 C167.098961,156.498289 167.096387,156.501385 167.093813,156.503449 M167.122125,156.475585 C167.125213,156.47249 167.127787,156.46991 167.130875,156.466814 C167.127787,156.469394 167.125213,156.47249 167.122125,156.475585 M167.151466,156.446174 C167.154039,156.443594 167.156098,156.44153 167.158672,156.43895 C167.156098,156.44153 167.154039,156.443594 167.151466,156.446174 M167.180292,156.417278 C167.182866,156.415214 167.185439,156.412634 167.188013,156.410054 C167.185439,156.412634 167.182866,156.415214 167.180292,156.417278 M167.211177,156.38735 C167.212721,156.385802 167.214266,156.384254 167.21581,156.382706 C167.214266,156.384254 167.212721,156.385802 167.211177,156.38735 M167.242062,156.356907 C167.243092,156.355875 167.244121,156.354843 167.244636,156.354327 C167.244121,156.355359 167.243092,156.355875 167.242062,156.356907 M167.362515,156.239776 C167.363544,156.238228 167.364574,156.237196 167.366118,156.236164 C167.365089,156.237196 167.363544,156.238228 167.362515,156.239776 M167.391856,156.21088 C167.3934,156.209332 167.39443,156.208816 167.395974,156.207268 C167.39443,156.2083 167.3934,156.209848 167.391856,156.21088 M167.420682,156.183532 C167.422226,156.181469 167.424285,156.179921 167.426344,156.177857 C167.424285,156.179921 167.422741,156.181469 167.420682,156.183532 M167.450023,156.155153 L167.455685,156.149477 L167.450023,156.155153 M167.480908,156.125741 C167.481938,156.124709 167.483482,156.123161 167.484511,156.121613 C167.483482,156.123161 167.481938,156.124709 167.480908,156.125741 M167.60239,156.009642 C167.604964,156.007578 167.606508,156.00603 167.608567,156.003966 C167.606508,156.00603 167.604964,156.007578 167.60239,156.009642" id="Fill-83" fill="#CDCCC7"></path>
                            <path d="M185.843731,202.084872 L185.843731,202.084872 L185.789682,202.084872 L185.841672,202.084872 C192.114466,202.084872 198.058331,199.914598 202.836793,195.923896 C200.973384,197.478072 198.931869,198.754642 196.764239,199.737612 C194.864282,200.163824 192.902039,200.386218 190.911485,200.386218 L190.890895,200.386218 C186.484085,200.377446 182.325902,199.289729 178.665485,197.373841 L196.151682,197.383645 L196.152711,194.261877 L173.979679,194.250009 C173.103567,193.52194 172.275328,192.739176 171.499079,191.906361 L206.733482,191.926485 C206.092613,192.736596 205.401298,193.5142 204.661082,194.256201 C199.61958,199.306241 192.944764,202.083324 185.849393,202.084872 L185.843731,202.084872 M208.863534,188.804717 L168.99583,188.783045 C168.479016,188.029693 167.99978,187.247961 167.56121,186.441461 L210.037174,186.464681 L210.039748,183.342913 L166.115266,183.318145 C165.820311,182.554473 165.558816,181.771709 165.333869,180.976045 L210.040777,181.000813 L210.041807,177.879561 L164.651305,177.853762 C164.531367,177.083897 164.443859,176.302165 164.391354,175.512178 L210.044895,175.536429 L210.045925,172.415693 L164.364072,172.39041 C164.402164,171.603002 164.474744,170.822302 164.580269,170.049342 L210.046954,170.07411 L210.048498,166.950794 L165.198489,166.927574 C165.405934,166.135006 165.648898,165.35379 165.927895,164.58599 L206.888423,164.608694 C207.594151,165.226855 208.264875,165.877525 208.895964,166.553994 C208.493426,165.885781 208.062062,165.236659 207.603931,164.60921 L210.049528,164.610242 L210.049528,164.307353 C211.630338,167.751617 212.46218,171.523539 212.460636,175.421363 L212.460636,175.462642 C212.4524,180.221661 211.202062,184.792342 208.863534,188.804717 M208.542843,161.487958 L204.927725,161.485894 C204.088161,160.647919 203.189915,159.865155 202.238134,159.142762 L206.924456,159.145342 C207.507672,159.900242 208.047649,160.68249 208.542843,161.487958 M202.518675,161.484346 L176.253348,161.469898 C177.702895,160.643791 179.250246,159.94307 180.888708,159.39044 C181.157925,159.299624 181.427656,159.213453 181.698416,159.13141 L197.086475,159.139666 C198.473738,159.56433 199.836292,160.105092 201.162813,160.761437 C201.622489,160.988991 202.074957,161.230477 202.518675,161.484346 M172.424607,161.467834 L167.296111,161.464738 C167.710489,160.663914 168.167075,159.882182 168.664328,159.124186 L171.543348,159.125734 L172.424607,161.467834 M204.09897,156.02151 L196.958302,156.017898 C193.504302,154.471978 189.827928,153.69231 186.135597,153.69231 C183.282315,153.69231 180.419767,154.157221 177.641639,155.094268 C176.843256,155.363617 176.065977,155.66857 175.310833,156.00603 L171.053816,156.003966 C171.401275,155.612842 171.761089,155.23049 172.133256,154.857426 C174.452223,152.529774 177.120708,150.695929 180.01723,149.382722 C181.200649,149.117501 182.405689,148.930711 183.62823,148.828544 C177.78577,149.311515 172.321656,151.693863 167.952938,155.68405 C172.868839,151.193864 179.172003,148.736697 185.839098,148.735149 L185.844246,148.735149 C185.858659,148.735149 185.872043,148.735149 185.886456,148.735665 C192.713125,148.749597 199.147036,151.328022 204.09897,156.02151" id="Fill-84" fill="#FFFFFF"></path>
                            <path d="M206.924456,159.145342 L202.238134,159.142762 C200.900289,158.1278 199.456918,157.232034 197.917803,156.46991 C197.6002,156.312531 197.280023,156.161861 196.958302,156.017898 L204.09897,156.02151 C204.296636,156.208816 204.492243,156.40025 204.685275,156.594264 C205.490351,157.40386 206.237774,158.256283 206.924456,159.145342 M197.086475,159.139666 L181.698416,159.13141 C184.223285,158.36619 186.810439,157.985386 189.388328,157.985386 C191.986807,157.985386 194.576534,158.371866 197.086475,159.139666 M171.543348,159.125734 L168.664328,159.124186 C169.377777,158.034921 170.175646,156.99158 171.053816,156.003966 L175.310833,156.00603 C173.865403,156.652572 172.502849,157.417792 171.226774,158.283631 L171.543348,159.125734" id="Fill-85" fill="#CDCCC7"></path>
                            <path d="M210.049528,164.610242 L207.603931,164.60921 C206.794223,163.499305 205.89958,162.455964 204.927725,161.485894 L208.542843,161.487958 C209.10341,162.399205 209.60581,163.339863 210.049528,164.307353 L210.049528,164.610242 M206.888423,164.608694 L165.927895,164.58599 C166.31602,163.517881 166.772607,162.475572 167.296111,161.464738 L172.424607,161.467834 L173.192105,163.507561 C174.156239,162.764529 175.177511,162.0829 176.253348,161.469898 L202.518675,161.484346 C204.085072,162.380629 205.550062,163.43687 206.888423,164.608694" id="Fill-86" fill="#CDCCC7"></path>
                            <path d="M210.046954,170.07411 L164.580269,170.049342 C164.724915,168.992585 164.931331,167.950275 165.198489,166.927574 L210.048498,166.950794 L210.046954,170.07411" id="Fill-87" fill="#CDCCC7"></path>
                            <path d="M210.044895,175.536429 L164.391354,175.512178 C164.350689,174.901756 164.330613,174.286174 164.331643,173.664917 C164.332672,173.238189 164.343482,172.813525 164.364072,172.39041 L210.045925,172.415693 L210.044895,175.536429" id="Fill-88" fill="#CDCCC7"></path>
                            <path d="M210.040777,181.000813 L165.333869,180.976045 C165.045607,179.957988 164.81757,178.916711 164.651305,177.853762 L210.041807,177.879561 L210.040777,181.000813" id="Fill-89" fill="#CDCCC7"></path>
                            <path d="M210.037174,186.464681 L167.56121,186.441461 C167.014541,185.437335 166.531187,184.395026 166.115266,183.318145 L210.039748,183.342913 L210.037174,186.464681" id="Fill-90" fill="#CDCCC7"></path>
                            <path d="M206.733482,191.926485 L171.499079,191.906361 C170.589508,190.930099 169.752518,189.887274 168.99583,188.783045 L208.863534,188.804717 C208.231931,189.888306 207.521056,190.931647 206.733482,191.926485" id="Fill-91" fill="#CDCCC7"></path>
                            <path d="M196.151682,197.383645 L178.665485,197.373841 C176.991505,196.498198 175.421505,195.448148 173.979679,194.250009 L196.152711,194.261877 L196.151682,197.383645" id="Fill-92" fill="#CDCCC7"></path>
                            <path d="M202.882607,195.885196 C203.178075,195.638035 203.469426,195.383649 203.755115,195.12204 C203.469426,195.383649 203.178075,195.638035 202.882607,195.885196" id="Fill-93" fill="#A6D7DE"></path>
                            <path d="M203.813282,195.068892 C204.100515,194.804703 204.38363,194.534322 204.661082,194.256201 C204.38363,194.534322 204.1,194.804703 203.813282,195.068892" id="Fill-94" fill="#A6D7DE"></path>
                            <path d="M185.841672,202.084872 L185.789682,202.084872 C180.2046,202.0761 175.019997,200.334618 170.740846,197.369713 L178.665485,197.373841 C182.325902,199.289729 186.484085,200.377446 190.890895,200.386218 L190.911485,200.386218 C192.902039,200.386218 194.864282,200.163824 196.764239,199.737612 C198.931869,198.754642 200.973384,197.478072 202.836793,195.923896 C198.058331,199.914598 192.114466,202.084872 185.841672,202.084872 M173.979679,194.250009 L167.009393,194.246397 C166.273295,193.506976 165.579921,192.723696 164.933905,191.902749 L171.499079,191.906361 C172.275328,192.739176 173.103567,193.52194 173.979679,194.250009 M163.160062,189.357347 C160.667108,185.296469 159.22837,180.518874 159.229915,175.412075 C159.229915,175.397627 159.23043,175.383695 159.23043,175.369247 C159.243298,169.419828 161.194216,163.760915 164.783082,159.121606 L168.664328,159.124186 C168.167075,159.882182 167.710489,160.663914 167.296111,161.464738 L163.176534,161.462674 L163.17499,164.584442 L165.927895,164.58599 C165.648898,165.35379 165.405934,166.135006 165.198489,166.927574 L163.173446,166.926542 L163.171902,170.04831 L164.580269,170.049342 C164.474744,170.822302 164.402164,171.603002 164.364072,172.39041 L163.170357,172.389378 L163.168813,175.511662 L164.391354,175.512178 C164.443859,176.302165 164.531367,177.083897 164.651305,177.853762 L163.167784,177.85273 L163.165725,180.975013 L165.333869,180.976045 C165.558816,181.771709 165.820311,182.554473 166.115266,183.318145 L163.164695,183.316597 L163.162121,186.439397 L167.56121,186.441461 C167.99978,187.247961 168.479016,188.029693 168.99583,188.783045 L163.160062,188.779949 L163.160062,189.357347 M171.053816,156.003966 L167.610626,156.001902 C167.617318,155.99571 167.624525,155.988487 167.631731,155.982295 C167.634305,155.979715 167.636879,155.977135 167.639452,155.975071 C167.646144,155.968363 167.653351,155.961655 167.660043,155.955463 C167.663646,155.951851 167.666734,155.949271 167.670338,155.945659 C167.676515,155.939983 167.682177,155.934307 167.688354,155.928631 C167.691957,155.925535 167.696075,155.921407 167.699679,155.917795 C167.705341,155.912635 167.712033,155.906959 167.717695,155.901283 C167.721298,155.897671 167.725416,155.894059 167.729534,155.890448 C167.735197,155.885288 167.740859,155.879612 167.746521,155.874452 C167.750639,155.870324 167.754243,155.867228 167.758361,155.863616 C167.763508,155.858456 167.768656,155.853812 167.774318,155.848652 C167.795938,155.828528 167.817557,155.808404 167.839177,155.788797 C167.840207,155.787249 167.841751,155.786217 167.84278,155.785185 C167.850502,155.777961 167.857708,155.771253 167.864915,155.764545 C167.866974,155.762481 167.869033,155.760933 167.871092,155.758869 C167.879328,155.751129 167.887049,155.744421 167.895285,155.736681 C167.896315,155.736165 167.897344,155.735133 167.897859,155.734101 C167.90661,155.726361 167.914331,155.719137 167.922567,155.711397 C167.924111,155.710365 167.925141,155.709333 167.92617,155.708301 C167.934407,155.700561 167.942643,155.693338 167.951393,155.685598 C167.951908,155.685082 167.952423,155.684566 167.952938,155.68405 C172.321656,151.693863 177.78577,149.311515 183.62823,148.828544 C182.405689,148.930711 181.200649,149.117501 180.01723,149.382722 C177.120708,150.695929 174.452223,152.529774 172.133256,154.857426 C171.761089,155.23049 171.401275,155.612842 171.053816,156.003966" id="Fill-95" fill="#FFFFFF"></path>
                            <path d="M168.664328,159.124186 L164.783082,159.121606 C165.474397,158.228419 166.225938,157.3729 167.036675,156.560725 C167.046456,156.550921 167.055207,156.541633 167.064987,156.532345 C167.067561,156.529765 167.06962,156.527701 167.072193,156.525121 C167.0794,156.517897 167.086092,156.511189 167.093813,156.503449 C167.096387,156.501385 167.098961,156.498289 167.101534,156.495709 C167.108226,156.489001 167.115433,156.482293 167.122125,156.475585 C167.125213,156.47249 167.127787,156.469394 167.130875,156.466814 C167.137567,156.460106 167.144774,156.452882 167.151466,156.446174 C167.154039,156.443594 167.156098,156.44153 167.158672,156.43895 C167.165879,156.431726 167.1736,156.424502 167.180292,156.417278 C167.182866,156.415214 167.185439,156.412634 167.188013,156.410054 C167.195734,156.40283 167.203456,156.39509 167.211177,156.38735 C167.212721,156.385802 167.214266,156.384254 167.21581,156.382706 C167.225075,156.373935 167.233311,156.365679 167.242062,156.356907 C167.243092,156.355875 167.244121,156.355359 167.244636,156.354327 C167.283757,156.316143 167.322879,156.277444 167.362515,156.239776 C167.363544,156.238228 167.365089,156.237196 167.366118,156.236164 C167.374354,156.227908 167.38362,156.219136 167.391856,156.21088 C167.3934,156.209848 167.39443,156.2083 167.395974,156.207268 C167.40421,156.199012 167.412446,156.191272 167.420682,156.183532 C167.422741,156.181469 167.424285,156.179921 167.426344,156.177857 C167.434066,156.170117 167.442302,156.162377 167.450023,156.155153 C167.452082,156.153089 167.453626,156.151541 167.455685,156.149477 C167.464436,156.141221 167.472157,156.133997 167.480908,156.125741 C167.481938,156.124709 167.483482,156.123161 167.484511,156.121613 C167.523633,156.084462 167.563269,156.046794 167.60239,156.009642 C167.604964,156.007578 167.606508,156.00603 167.608567,156.003966 C167.609597,156.002934 167.610111,156.002418 167.610626,156.001902 L171.053816,156.003966 C170.175646,156.99158 169.377777,158.034921 168.664328,159.124186" id="Fill-96" fill="#EEEEEA"></path>
                            <path d="M165.927895,164.58599 L163.17499,164.584442 L163.176534,161.462674 L167.296111,161.464738 C166.772607,162.475572 166.31602,163.517881 165.927895,164.58599" id="Fill-97" fill="#EEEEEA"></path>
                            <path d="M164.580269,170.049342 L163.171902,170.04831 L163.173446,166.926542 L165.198489,166.927574 C164.931331,167.950275 164.724915,168.992585 164.580269,170.049342" id="Fill-98" fill="#EEEEEA"></path>
                            <path d="M164.391354,175.512178 L163.168813,175.511662 L163.170357,172.389378 L164.364072,172.39041 C164.343482,172.813525 164.332672,173.238189 164.331643,173.664917 C164.330613,174.286174 164.350689,174.901756 164.391354,175.512178" id="Fill-99" fill="#EEEEEA"></path>
                            <path d="M165.333869,180.976045 L163.165725,180.975013 L163.167784,177.85273 L164.651305,177.853762 C164.81757,178.916711 165.045607,179.957988 165.333869,180.976045" id="Fill-100" fill="#EEEEEA"></path>
                            <path d="M167.56121,186.441461 L163.162121,186.439397 L163.164695,183.316597 L166.115266,183.318145 C166.531187,184.395026 167.014541,185.437335 167.56121,186.441461" id="Fill-101" fill="#EEEEEA"></path>
                            <path d="M171.499079,191.906361 L164.933905,191.902749 C164.295095,191.090573 163.703128,190.241246 163.160062,189.357347 L163.160062,188.779949 L168.99583,188.783045 C169.752518,189.887274 170.589508,190.930099 171.499079,191.906361" id="Fill-102" fill="#EEEEEA"></path>
                            <path d="M178.665485,197.373841 L170.740846,197.369713 C169.403515,196.442986 168.154721,195.396549 167.009393,194.246397 L173.979679,194.250009 C175.421505,195.448148 176.991505,196.498198 178.665485,197.373841" id="Fill-103" fill="#EEEEEA"></path>
                            <path d="M183.674557,148.824416 C183.884062,148.807904 184.094082,148.793973 184.304616,148.781073 C184.094082,148.794489 183.884577,148.807388 183.674557,148.824416" id="Fill-104" fill="#A6D7DE"></path>
                            <path d="M184.436393,148.773849 C184.624279,148.764045 184.812164,148.756821 185.000564,148.751145 C184.812164,148.756821 184.624279,148.763529 184.436393,148.773849" id="Fill-105" fill="#A6D7DE"></path>
                            <path d="M185.171977,148.744953 C185.409279,148.738761 185.64761,148.735665 185.886456,148.735665 C185.64761,148.735665 185.409279,148.738761 185.171977,148.744953" id="Fill-106" fill="#A6D7DE"></path>
                            <path d="M218.590843,208.517778 C216.805161,210.306732 213.908125,210.29796 212.125016,208.505394 L206.425659,202.607059 C204.646669,200.812945 204.648213,197.916667 206.429262,196.131325 L206.443675,196.123586 C208.230902,194.337212 211.125879,194.340824 212.909502,196.138033 L218.608859,202.034305 C220.387849,203.82429 220.38579,206.723148 218.602167,208.509522 L218.590843,208.517778" id="Fill-107" fill="#152830"></path>
                            <path d="M159.23043,175.369247 C159.245872,168.27432 162.017308,161.592189 167.036675,156.560725 C172.084354,151.503461 178.779246,148.724313 185.886456,148.735665 C192.98543,148.750113 199.660761,151.538032 204.685275,156.594264 C209.71082,161.648432 212.47402,168.347591 212.460636,175.462642 C212.448282,182.553441 209.67839,189.2268 204.661082,194.256201 C199.605167,199.320689 192.907702,202.09932 185.789682,202.084872 C171.116102,202.062168 159.202633,190.076128 159.23043,175.369247 M150.082734,175.352735 C150.046187,195.112752 166.059157,211.222622 185.774239,211.258226 C195.340944,211.274222 204.348111,207.541 211.127938,200.743286 L211.127938,200.74019 C217.870702,193.984272 221.58877,185.010608 221.604728,175.478122 C221.623774,165.916224 217.913941,156.909537 211.165,150.120595 C204.41503,143.332685 195.442351,139.582951 185.905502,139.566439 C176.341885,139.553024 167.345013,143.281601 160.565702,150.075187 C153.822938,156.836782 150.097662,165.815089 150.082734,175.352735" id="Fill-108" fill="#2C4F61"></path>
                            <path d="M208.630351,211.488359 L221.636128,198.450722 L262.36759,239.279833 L249.361813,252.317987 L208.630351,211.488359" id="Fill-109" fill="#172E41"></path>
                            <path d="M211.324059,208.787127 L218.94139,201.151438 L259.672852,241.981582 L252.056036,249.616239 L211.324059,208.787127" id="Fill-110" fill="#2C4F61"></path>
                            <path d="M243.114243,246.055876 L256.121049,233.017722 L262.36759,239.279833 L249.361813,252.317987 L243.114243,246.055876" id="Fill-111" fill="#152830"></path>
                            <path d="M245.808466,243.354127 L253.425797,235.718954 L259.672852,241.981582 L252.056036,249.616239 L245.808466,243.354127" id="Fill-112" fill="#1D3F55"></path>
                            <path d="M208.895964,166.553994 C208.264875,165.877525 207.594151,165.226855 206.888423,164.608694 L207.603931,164.60921 C208.062062,165.236659 208.493426,165.885781 208.895964,166.553994 M204.927725,161.485894 L202.518675,161.484346 C202.074957,161.230477 201.622489,160.988991 201.162813,160.761437 C199.836292,160.105092 198.473738,159.56433 197.086475,159.139666 L202.238134,159.142762 C203.189915,159.865155 204.088161,160.647919 204.927725,161.485894 M176.253348,161.469898 L172.424607,161.467834 L171.543348,159.125734 L181.698416,159.13141 C181.427656,159.213453 181.157925,159.299624 180.888708,159.39044 C179.250246,159.94307 177.702895,160.643791 176.253348,161.469898 M196.958302,156.017898 L175.310833,156.00603 C176.065977,155.66857 176.843256,155.363617 177.641639,155.094268 C180.419767,154.157221 183.282315,153.69231 186.135597,153.69231 C189.827928,153.69231 193.504302,154.471978 196.958302,156.017898" id="Fill-113" fill="#FFFFFF"></path>
                            <path d="M202.238134,159.142762 L197.086475,159.139666 C194.576534,158.371866 191.986807,157.985386 189.388328,157.985386 C186.810439,157.985386 184.223285,158.36619 181.698416,159.13141 L171.543348,159.125734 L171.226774,158.283631 C172.502849,157.417792 173.865403,156.652572 175.310833,156.00603 L196.958302,156.017898 C197.280023,156.161861 197.6002,156.312531 197.917803,156.46991 C199.456918,157.232034 200.900289,158.1278 202.238134,159.142762" id="Fill-114" fill="#EEEEEA"></path>
                            <path d="M207.603931,164.60921 L206.888423,164.608694 C205.550062,163.43687 204.085072,162.380629 202.518675,161.484346 L204.927725,161.485894 C205.89958,162.455964 206.794223,163.499305 207.603931,164.60921 M173.192105,163.507561 L172.424607,161.467834 L176.253348,161.469898 C175.177511,162.0829 174.156239,162.764529 173.192105,163.507561" id="Fill-115" fill="#EEEEEA"></path>
                            <path d="M296.356289,147.27798 L241.536007,147.27798 L241.536007,199.683433 C241.536007,200.335134 241.784118,200.986835 242.2824,201.483222 C242.777593,201.978577 243.426184,202.227803 244.076318,202.227803 L293.817521,202.227803 C294.466111,202.227803 295.115216,201.978577 295.611954,201.483222 C296.105603,200.986835 296.356289,200.335134 296.356289,199.683433 L296.356289,147.27798" id="Fill-116" fill="#5E7485"></path>
                            <path d="M296.356289,193.38417 L248.470774,147.27798 L296.356289,147.27798 L296.356289,193.38417" id="Fill-117" fill="#6D8190"></path>
                            <path d="M266.319357,159.067943 C266.319357,159.313556 266.118089,159.514278 265.875639,159.514278 L247.613708,159.514278 C247.369715,159.514278 247.17102,159.313556 247.17102,159.067943 L247.17102,153.177347 C247.17102,152.935346 247.369715,152.734108 247.613708,152.734108 L265.875639,152.734108 C266.118089,152.734108 266.319357,152.935346 266.319357,153.177347 L266.319357,159.067943" id="Fill-118" fill="#55BDC1"></path>
                            <path d="M278.708974,159.067943 C278.708974,159.313556 278.508734,159.514278 278.263711,159.514278 L272.39397,159.514278 C272.150492,159.514278 271.951282,159.313556 271.951282,159.067943 L271.951282,153.177347 C271.951282,152.935346 272.150492,152.734108 272.39397,152.734108 L278.263711,152.734108 C278.508734,152.734108 278.708974,152.935346 278.708974,153.177347 L278.708974,159.067943" id="Fill-119" fill="#D4442B"></path>
                            <path d="M291.095502,159.067943 C291.095502,159.313556 290.897321,159.514278 290.653843,159.514278 L284.781528,159.514278 C284.539593,159.514278 284.340898,159.313556 284.340898,159.067943 L284.340898,153.177347 C284.340898,152.935346 284.539593,152.734108 284.781528,152.734108 L290.653843,152.734108 C290.897321,152.734108 291.095502,152.935346 291.095502,153.177347 L291.095502,159.067943" id="Fill-120" fill="#F6FAFC"></path>
                            <path d="M253.927682,171.490515 C253.927682,171.733032 253.731046,171.93169 253.486538,171.93169 L247.613708,171.93169 C247.369715,171.93169 247.17102,171.733032 247.17102,171.490515 L247.17102,165.600436 C247.17102,165.355338 247.369715,165.157196 247.613708,165.157196 L253.486538,165.157196 C253.731046,165.157196 253.927682,165.355338 253.927682,165.600436 L253.927682,171.490515" id="Fill-121" fill="#F6FAFC"></path>
                            <path d="M266.319357,171.490515 C266.319357,171.733032 266.118089,171.93169 265.875639,171.93169 L260.003839,171.93169 C259.758816,171.93169 259.559607,171.733032 259.559607,171.490515 L259.559607,165.600436 C259.559607,165.355338 259.758816,165.157196 260.003839,165.157196 L265.875639,165.157196 C266.118089,165.157196 266.319357,165.355338 266.319357,165.600436 L266.319357,171.490515" id="Fill-122" fill="#F6FAFC"></path>
                            <path d="M278.708974,171.490515 C278.708974,171.733032 278.508734,171.93169 278.263711,171.93169 L272.39397,171.93169 C272.150492,171.93169 271.951282,171.733032 271.951282,171.490515 L271.951282,165.600436 C271.951282,165.355338 272.150492,165.157196 272.39397,165.157196 L278.263711,165.157196 C278.508734,165.157196 278.708974,165.355338 278.708974,165.600436 L278.708974,171.490515" id="Fill-123" fill="#F6FAFC"></path>
                            <path d="M291.095502,171.490515 C291.095502,171.733032 290.897321,171.93169 290.653843,171.93169 L284.781528,171.93169 C284.539593,171.93169 284.340898,171.733032 284.340898,171.490515 L284.340898,165.600436 C284.340898,165.355338 284.539593,165.157196 284.781528,165.157196 L290.653843,165.157196 C290.897321,165.157196 291.095502,165.355338 291.095502,165.600436 L291.095502,171.490515" id="Fill-124" fill="#F6FAFC"></path>
                            <path d="M253.927682,183.907927 C253.927682,184.152509 253.731046,184.351683 253.486538,184.351683 L247.613708,184.351683 C247.369715,184.351683 247.17102,184.152509 247.17102,183.907927 L247.17102,178.020428 C247.17102,177.77533 247.369715,177.576672 247.613708,177.576672 L253.486538,177.576672 C253.731046,177.576672 253.927682,177.77533 253.927682,178.020428 L253.927682,183.907927" id="Fill-125" fill="#F6FAFC"></path>
                            <path d="M266.319357,183.907927 C266.319357,184.152509 266.118089,184.351683 265.875639,184.351683 L260.003839,184.351683 C259.758816,184.351683 259.559607,184.152509 259.559607,183.907927 L259.559607,178.020428 C259.559607,177.77533 259.758816,177.576672 260.003839,177.576672 L265.875639,177.576672 C266.118089,177.576672 266.319357,177.77533 266.319357,178.020428 L266.319357,183.907927" id="Fill-126" fill="#F6FAFC"></path>
                            <path d="M278.708974,183.907927 C278.708974,184.152509 278.508734,184.351683 278.263711,184.351683 L272.39397,184.351683 C272.150492,184.351683 271.951282,184.152509 271.951282,183.907927 L271.951282,178.020428 C271.951282,177.77533 272.150492,177.576672 272.39397,177.576672 L278.263711,177.576672 C278.508734,177.576672 278.708974,177.77533 278.708974,178.020428 L278.708974,183.907927" id="Fill-127" fill="#1F2D3C"></path>
                            <path d="M253.927682,196.327403 C253.927682,196.573017 253.731046,196.771159 253.486538,196.771159 L247.613708,196.771159 C247.369715,196.771159 247.17102,196.573017 247.17102,196.327403 L247.17102,190.443 C247.17102,190.197902 247.369715,189.996149 247.613708,189.996149 L253.486538,189.996149 C253.731046,189.996149 253.927682,190.197902 253.927682,190.443 L253.927682,196.327403" id="Fill-128" fill="#F6FAFC"></path>
                            <path d="M266.319357,196.327403 C266.319357,196.573017 266.118089,196.771159 265.875639,196.771159 L260.003839,196.771159 C259.758816,196.771159 259.559607,196.573017 259.559607,196.327403 L259.559607,190.443 C259.559607,190.197902 259.758816,189.996149 260.003839,189.996149 L265.875639,189.996149 C266.118089,189.996149 266.319357,190.197902 266.319357,190.443 L266.319357,196.327403" id="Fill-129" fill="#F6FAFC"></path>
                            <path d="M278.708974,196.327403 C278.708974,196.573017 278.508734,196.771159 278.263711,196.771159 L272.39397,196.771159 C272.150492,196.771159 271.951282,196.573017 271.951282,196.327403 L271.951282,190.443 C271.951282,190.197902 272.150492,189.996149 272.39397,189.996149 L278.263711,189.996149 C278.508734,189.996149 278.708974,190.197902 278.708974,190.443 L278.708974,196.327403" id="Fill-130" fill="#1F2D3C"></path>
                            <path d="M291.095502,196.327403 C291.095502,196.573017 290.897321,196.771159 290.653843,196.771159 L284.781528,196.771159 C284.539593,196.771159 284.340898,196.573017 284.340898,196.327403 L284.340898,190.443 C284.340898,190.197902 284.539593,189.996149 284.781528,189.996149 L290.653843,189.996149 C290.897321,189.996149 291.095502,190.197902 291.095502,190.443 L291.095502,196.327403" id="Fill-131" fill="#1F2D3C"></path>
                            <path d="M291.095502,183.907927 C291.095502,184.152509 290.897321,184.351683 290.653843,184.351683 L284.781528,184.351683 C284.539593,184.351683 284.340898,184.152509 284.340898,183.907927 L284.340898,178.020428 C284.340898,177.77533 284.539593,177.576672 284.781528,177.576672 L290.653843,177.576672 C290.897321,177.576672 291.095502,177.77533 291.095502,178.020428 L291.095502,183.907927" id="Fill-132" fill="#1F2D3C"></path>
                            <path d="M296.356803,125.365234 C296.356803,124.711984 296.105603,124.060799 295.611954,123.563896 C295.115216,123.066477 294.466111,122.818284 293.817521,122.818284 L244.076318,122.818284 C243.426184,122.818284 242.777593,123.066477 242.2824,123.563896 C241.784118,124.060799 241.536007,124.711984 241.536007,125.365234 L241.536007,147.27798 L296.356803,147.27798 L296.356803,125.365234" id="Fill-133" fill="#344F62"></path>
                            <path d="M247.613708,142.882221 C247.214774,142.882221 246.83643,142.726907 246.554344,142.442078 C246.27123,142.158797 246.11423,141.782637 246.11423,141.381193 L246.11423,128.719715 C246.11423,128.319303 246.27123,127.941079 246.554344,127.65883 C246.83643,127.376581 247.214774,127.218171 247.613708,127.218171 L290.653843,127.218171 C291.05741,127.218171 291.436269,127.376581 291.717839,127.661926 C291.996836,127.941079 292.154351,128.319303 292.154351,128.719715 L292.154351,141.381193 C292.154351,141.782637 291.996836,142.158797 291.715266,142.442078 C291.436269,142.723811 291.05741,142.882221 290.653843,142.882221 L247.613708,142.882221" id="Fill-134" fill="#2C465A"></path>
                            <path d="M247.613708,128.27596 C247.500462,128.27596 247.387731,128.319303 247.301252,128.40599 C247.214774,128.492677 247.17102,128.606712 247.17102,128.719715 L247.17102,141.381193 C247.17102,141.492648 247.214774,141.607714 247.301252,141.694402 C247.387731,141.781089 247.500462,141.824948 247.613708,141.824948 L290.653843,141.824948 C290.767603,141.824948 290.880334,141.781089 290.967843,141.694402 C291.052262,141.607714 291.095502,141.492648 291.095502,141.381193 L291.095502,128.719715 C291.095502,128.606712 291.052262,128.492677 290.967843,128.40599 C290.880334,128.319303 290.767603,128.27596 290.653843,128.27596 L247.613708,128.27596" id="Fill-135" fill="#F4BA29"></path>
                            <path d="M241.536007,146.220191 L296.356803,146.220191 L296.356803,147.27798 L241.536007,147.27798 L241.536007,146.220191 Z" id="Fill-136" fill="#2C465A"></path>
                        </g>
                    </g>
                </g>
            </g>
        </g>
    </g>
</svg>