<?xml version="1.0" encoding="UTF-8" standalone="no"?>
<svg width="375px" height="375px" viewBox="0 0 375 375" version="1.1" xmlns="http://www.w3.org/2000/svg" xmlns:xlink="http://www.w3.org/1999/xlink" xmlns:sketch="http://www.bohemiancoding.com/sketch/ns">
    <!-- Generator: Sketch 3.3.2 (12043) - http://www.bohemiancoding.com/sketch -->
    <title>tap_swipe_light_gray_small-22bef3788c4e7d4d49ea06cb62a34192</title>
    <desc>Created with Sketch.</desc>
    <defs>
        <circle id="path-1" cx="187.5" cy="187.5" r="187.5"></circle>
    </defs>
    <g id="Page-1" stroke="none" stroke-width="1" fill="none" fill-rule="evenodd" sketch:type="MSPage">
        <g id="Desktop-HD" sketch:type="MSArtboardGroup" transform="translate(-219.000000, -1825.000000)">
            <g id="centrelized-ordering" sketch:type="MSLayerGroup" transform="translate(0.000000, 1761.000000)">
                <g id="tap_swipe_light_gray_small-22bef3788c4e7d4d49ea06cb62a34192" transform="translate(219.000000, 64.000000)">
                    <mask id="mask-2" sketch:name="Mask" fill="white">
                        <use xlink:href="#path-1"></use>
                    </mask>
                    <use id="Mask" fill="#D8D8D8" sketch:type="MSShapeGroup" xlink:href="#path-1"></use>
                    <g id="Group" mask="url(#mask-2)">
                        <g transform="translate(19.000000, 55.000000)">
                            <g id="Fill-58-+-Fill-59-+-£-copy-3" stroke-width="1" fill="none" fill-rule="evenodd" sketch:type="MSLayerGroup" transform="translate(165.997074, 0.638568)">
                                <path d="M15.5081925,5.8324223 C10.2803248,5.8324223 6.02817946,10.0804403 6.02817946,15.3013106 C6.02817946,20.522181 10.2803248,24.770199 15.5081925,24.770199 C20.7376265,24.770199 24.9897717,20.522181 24.9897717,15.3013106 C24.9897717,10.0804403 20.7376265,5.8324223 15.5081925,5.8324223 L15.5081925,5.8324223 Z M15.5081925,26.0026872 C9.60060797,26.0026872 4.79403931,21.2041161 4.79403931,15.3013106 C4.79403931,9.40006919 9.60060797,4.60149809 15.5081925,4.60149809 C21.4173432,4.60149809 26.2254781,9.40006919 26.2254781,15.3013106 C26.2254781,21.2041161 21.4173432,26.0026872 15.5081925,26.0026872 L15.5081925,26.0026872 Z" id="Fill-58" fill="#5FBFC2" sketch:type="MSShapeGroup"></path>
                                <path d="M15.5081925,2.47123283 C8.4259822,2.47123283 2.65935275,8.22701563 2.65935275,15.3013106 C2.65935275,22.3771697 8.4259822,28.1313884 15.5081925,28.1313884 C22.5951013,28.1313884 28.3554661,22.3771697 28.3554661,15.3013106 C28.3554661,8.22701563 22.5951013,2.47123283 15.5081925,2.47123283 L15.5081925,2.47123283 Z M15.5081925,29.3638767 C7.74626542,29.3638767 1.42677877,23.0559767 1.42677877,15.3013106 C1.42677877,7.54820863 7.74626542,1.23874456 15.5081925,1.23874456 C23.2732519,1.23874456 29.5911724,7.54820863 29.5911724,15.3013106 C29.5911724,23.0559767 23.2732519,29.3638767 15.5081925,29.3638767 L15.5081925,29.3638767 Z" id="Fill-59" fill="#5FBFC2" sketch:type="MSShapeGroup"></path>
                                <path d="M14.1412776,13.3663601 L14.1412776,14.3070899 L17.2570929,14.3070899 L17.2570929,15.4739568 L14.1412776,15.4739568 L14.1412776,20.403743 L18.5976181,20.403743 L18.5976181,21.5706098 L11.2337871,21.5706098 L11.2337871,20.403743 L12.719234,20.403743 L12.719234,15.4739568 L11.3062479,15.4739568 L11.3062479,14.3070899 L12.719234,14.3070899 L12.719234,13.2487689 C12.719234,11.2346321 13.1977725,10.0285802 14.154864,9.63057712 C15.1119555,9.23257404 15.8531619,9.03357548 16.3785055,9.03357548 C17.4291926,9.03357548 18.2232345,9.15418067 18.760655,9.39539466 L18.5976181,10.6436708 C18.1447357,10.3723051 17.58317,10.2366242 16.912904,10.2366242 C16.2426381,10.2366242 15.7339078,10.3225554 15.386698,10.4944204 C15.0394881,10.6662854 14.745119,10.9421697 14.5035817,11.3220818 C14.2620444,11.7019938 14.1412776,12.3834131 14.1412776,13.3663601 L14.1412776,13.3663601 Z" id="£-copy" fill="#57B3C6" sketch:type="MSShapeGroup"></path>
                            </g>
                            <path d="M200.081307,33.0012555 C196.242424,32.4374009 192.321714,32.065 188.436072,31.8945595 L188.515562,30.1282819 C192.46199,30.3010573 196.442317,30.6792952 200.338479,31.252489 L200.081307,33.0012555 M165.11521,33.2557489 L164.829983,31.511652 C168.719131,30.8789207 172.692445,30.4423128 176.636534,30.2135022 L176.740572,31.9774449 C172.851424,32.2039207 168.942403,32.6323568 165.11521,33.2557489 M222.717155,38.7845595 C219.069983,37.4362115 215.311759,36.2653084 211.548859,35.3045374 L211.986052,33.5919604 C215.808569,34.5702423 219.62641,35.7586564 223.330862,37.129185 L222.717155,38.7845595 M142.569372,39.3705947 L141.934624,37.7222247 C145.609852,36.3003304 149.406652,35.0558811 153.217479,34.0203965 L153.681559,35.7248018 C149.932686,36.7451101 146.191997,37.9708811 142.569372,39.3705947 M243.662679,49.1183921 C240.374379,47.0474229 236.942297,45.1258811 233.45761,43.4086344 L234.239648,41.823304 C237.780445,43.5685683 241.269807,45.5204626 244.61071,47.6229515 L243.662679,49.1183921 M121.779321,50.0056167 L120.816093,48.5253524 C124.123097,46.3738326 127.584403,44.3729075 131.088962,42.5762775 L131.897886,44.1499339 C128.440086,45.9185463 125.038397,47.8879515 121.779321,50.0056167 M262.044662,63.5264537 C259.252003,60.8274229 256.282831,58.2451322 253.228324,55.8484581 L254.320138,54.4580837 C257.423741,56.8921145 260.436166,59.5152643 263.275583,62.2551542 L262.044662,63.5264537 M103.612428,64.6763436 L102.365141,63.4248899 C105.163645,60.6418062 108.136324,57.9754626 111.206028,55.4982379 L112.318883,56.8757709 C109.297107,59.3121366 106.367679,61.9387885 103.612428,64.6763436 M277.08691,81.3771806 C274.90679,78.1703304 272.530283,75.0381938 270.026359,72.0659912 L271.38119,70.9277753 C273.92369,73.9455066 276.335266,77.1278414 278.550455,80.3837225 L277.08691,81.3771806 M88.8273517,82.7477093 L87.3497793,81.7764317 C89.5193793,78.4831938 91.8865345,75.265837 94.3846138,72.2130837 L95.7558103,73.3326211 C93.2951379,76.3363436 90.9618828,79.5046696 88.8273517,82.7477093 M288.145324,101.926938 C286.671259,98.3418502 284.993793,94.7882819 283.151503,91.36663 L284.709734,90.5307709 C286.581248,94.0072907 288.284431,97.6157269 289.783045,101.255683 L288.145324,101.926938 M78.070531,103.463238 L76.4257966,102.81533 C77.867131,99.1496916 79.5212172,95.5155727 81.3401276,92.01337 L82.9135552,92.8258811 C81.121531,96.2743833 79.4908241,99.8536344 78.070531,103.463238 M294.71491,124.315352 C294.015869,120.496784 293.107583,116.673546 292.0146,112.949537 L293.710769,112.452225 C294.823624,116.235771 295.745938,120.119714 296.456669,123.995485 L294.71491,124.315352 M71.8294241,125.946211 L70.0888345,125.653194 C70.7399483,121.768084 71.6049828,117.872467 72.6582207,114.07141 L74.3625724,114.544207 C73.3257,118.284559 72.4746931,122.121806 71.8294241,125.946211 M68.5855448,149.298899 C68.5294345,147.818634 68.4990414,146.298678 68.4978724,144.783392 C68.4978724,142.338855 68.5750241,139.867467 68.7293276,137.438106 L70.4932966,137.550176 C70.341331,139.942181 70.2665172,142.375044 70.2665172,144.783392 C70.2688552,146.27533 70.2957414,147.771938 70.3541897,149.231189 L68.5855448,149.298899 M297.728503,156.629009 L295.96921,156.448062 C296.36549,152.594471 296.565383,148.66967 296.565383,144.783392 C296.565383,141.8287 296.451993,138.838987 296.220538,135.894802 L297.985676,135.759383 C298.2183,138.74793 298.336366,141.783172 298.336366,144.783392 C298.336366,148.729207 298.130628,152.714714 297.728503,156.629009 M71.934631,172.754317 C70.9772483,168.933414 70.208069,165.014449 69.6516414,161.111828 L71.4015828,160.863172 C71.9521655,164.705088 72.7096552,168.562181 73.6495034,172.324714 L71.934631,172.754317 M292.878466,179.824097 L291.192817,179.285925 C292.379317,175.593436 293.383459,171.792379 294.178355,167.987819 L295.911931,168.350881 C295.101838,172.213811 294.0825,176.073238 292.878466,179.824097 M80.0612793,195.017819 C78.3323793,191.47359 76.7694724,187.79978 75.4169793,184.096784 L77.0780793,183.49207 C78.4083621,187.136696 79.9502276,190.753304 81.6534103,194.243833 L80.0612793,195.017819 M283.329186,201.522577 L281.793166,200.649361 C283.719621,197.269736 285.488266,193.759361 287.050003,190.212797 L288.67019,190.92141 C287.082734,194.525176 285.287203,198.093921 283.329186,201.522577 M92.6089552,215.127467 C90.1868586,212.015176 87.9027,208.741784 85.8160966,205.396013 L87.3147103,204.462093 C89.3720897,207.75533 91.6211793,210.978524 94.0070379,214.042952 L92.6089552,215.127467 M269.519028,220.795198 L268.192252,219.623128 C270.767483,216.720969 273.217634,213.646035 275.48309,210.487048 L276.923255,211.515529 C274.622731,214.723546 272.129328,217.846344 269.519028,220.795198 M109.014217,232.249736 C106.011145,229.698965 103.10159,226.96141 100.370886,224.110617 L101.647397,222.888348 C104.339524,225.695947 107.202321,228.392643 110.159803,230.903722 L109.014217,232.249736 M252.054683,236.836454 L250.994431,235.420396 C254.107386,233.103106 257.137345,230.593194 260.002479,227.96304 L261.198331,229.264692 C258.291114,231.935705 255.212059,234.481806 252.054683,236.836454 M128.576855,245.663172 C125.110872,243.778987 121.701,241.692841 118.447769,239.460771 L119.45191,238.003855 C122.653707,240.20207 126.010976,242.256696 129.423186,244.110529 L128.576855,245.663172 M231.674938,248.968084 L230.933814,247.365242 C234.455907,245.733216 237.933579,243.899229 241.273314,241.912313 L242.180431,243.429934 C238.788093,245.44837 235.255479,247.311542 231.674938,248.968084 M150.487945,254.767731 C146.706341,253.638855 142.938766,252.301013 139.292762,250.784559 L139.974269,249.1537 C143.564162,250.645639 147.272121,251.963634 150.997614,253.073833 L150.487945,254.767731 M209.224955,256.642577 L208.831014,254.919493 C212.617293,254.050947 216.403572,252.973436 220.075293,251.717313 L220.649255,253.390198 C216.916748,254.665 213.074359,255.760022 209.224955,256.642577 M173.806469,259.152489 C169.868224,258.825617 165.907769,258.293282 162.032648,257.563656 L162.362297,255.827731 C166.171955,256.544515 170.075131,257.069846 173.953759,257.390881 L173.806469,259.152489 M185.677314,259.526057 L185.644583,257.75978 C189.538407,257.683899 193.463793,257.407225 197.30969,256.936762 L197.524779,258.691366 C193.616928,259.168833 189.630755,259.449009 185.677314,259.526057" id="Fill-32" fill="#49A2B4" fill-rule="evenodd" sketch:type="MSShapeGroup"></path>
                            <path d="M193.204283,73.9548458 C201.131038,80.9779295 207.7053,89.6715639 212.755231,99.7964317 L213.206452,100.701167 L214.169679,100.391806 C220.718224,98.2986564 226.971021,95.5214097 232.746879,92.1382819 L234.130934,91.3257709 L232.942097,90.2494273 C222.035648,80.3568722 208.625276,74.0155507 194.159328,71.9083921 L190.252645,71.3387004 L193.204283,73.9548458 M172.66439,71.9083921 C158.183245,74.0202203 144.770534,80.3638767 133.873438,90.2564317 L132.688107,91.3327753 L134.072162,92.1429515 C139.829317,95.5190749 146.08679,98.2963216 152.661052,100.397643 L153.625448,100.705837 L154.079007,99.7999339 C159.123093,89.6762335 165.699693,80.9802643 173.618266,73.9548458 L176.567566,71.3398678 L172.66439,71.9083921 M180.298903,71.7017621 C170.711048,78.8018943 162.546993,88.6279075 156.682293,100.119802 L156.015983,101.417952 L157.4316,101.792687 C165.043903,103.805286 172.965983,104.923656 180.972228,105.113943 L182.180938,105.14196 L182.180938,70.3078855 L180.298903,71.7017621 M184.645117,105.14196 L185.852659,105.113943 C193.863579,104.923656 201.78449,103.805286 209.390948,101.792687 L210.80189,101.417952 L210.141424,100.119802 C204.282569,88.6337445 196.118514,78.8077313 186.528321,71.7017621 L184.645117,70.3067181 L184.645117,105.14196 M130.240293,93.7854846 C117.588579,106.940925 110.291897,124.182269 109.692217,142.335352 L109.655979,143.550617 L143.711452,143.550617 L143.737169,142.400727 C144.0411,129.168238 146.916755,115.940419 152.052021,104.147335 L152.568703,102.960088 L151.335445,102.558502 C144.382438,100.287907 137.774276,97.272511 131.702669,93.5951982 L130.896083,93.1060573 L130.240293,93.7854846 M154.541917,104.601454 C149.406652,116.178568 146.529828,129.228943 146.214207,142.344692 L146.187321,143.550617 L182.180938,143.550617 L182.180938,107.614515 L181.023662,107.59 C172.493721,107.398546 164.049114,106.172775 155.930648,103.94304 L154.952224,103.67337 L154.541917,104.601454 M210.886055,103.939537 C202.768759,106.172775 194.32649,107.398546 185.796548,107.59 L184.645117,107.614515 L184.645117,143.550617 L220.63289,143.550617 L220.607172,142.343524 C220.288045,129.224273 217.411221,116.172731 212.278293,104.599119 L211.866817,103.671035 L210.886055,103.939537 M235.116372,93.5940308 C229.030738,97.2760132 222.424914,100.29141 215.487103,102.556167 L214.253845,102.958921 L214.770528,104.146167 C219.898779,115.918238 222.774434,129.146057 223.083041,142.400727 L223.112266,143.550617 L257.168907,143.550617 L257.125655,142.335352 C256.534159,124.181101 249.235138,106.93859 236.578748,93.7854846 L235.924128,93.1060573 L235.116372,93.5940308 M146.214207,147.22793 C146.529828,160.35652 149.413666,173.409229 154.548931,184.972335 L154.962745,185.900419 L155.94,185.630749 C164.03041,183.403348 172.470341,182.175242 181.029507,181.976784 L182.180938,181.949934 L182.180938,146.022004 L146.187321,146.022004 L146.214207,147.22793 M184.645117,181.951101 L185.796548,181.976784 C194.328828,182.16707 202.768759,183.396344 210.883717,185.630749 L211.864479,185.900419 L212.275955,184.971167 C217.411221,173.396388 220.288045,160.344846 220.607172,147.229097 L220.63289,146.022004 L184.645117,146.022004 L184.645117,181.951101 M223.083041,147.171894 C222.774434,160.428899 219.898779,173.653216 214.770528,185.419449 L214.253845,186.606696 L215.487103,187.009449 C222.437772,189.280044 229.043597,192.295441 235.116372,195.971586 L235.924128,196.459559 L236.578748,195.780132 C249.238645,182.624692 256.536497,165.385683 257.125655,147.238436 L257.168907,146.022004 L223.112266,146.022004 L223.083041,147.171894 M109.692217,147.238436 C110.291897,165.382181 117.586241,182.622357 130.23211,195.778965 L130.8879,196.460727 L131.693317,195.970419 C137.750897,192.301278 144.355552,189.284714 151.335445,187.009449 L152.568703,186.607863 L152.052021,185.420617 C146.914417,173.625198 144.038762,160.399714 143.737169,147.173062 L143.711452,146.022004 L109.655979,146.022004 L109.692217,147.238436 M152.666897,189.173811 C146.105493,191.27163 139.855034,194.045374 134.075669,197.42033 L132.692783,198.230507 L133.878114,199.309185 C144.784562,209.214581 158.198441,215.560573 172.665559,217.657225 L176.564059,218.223414 L173.618266,215.610771 C165.699693,208.590022 159.125431,199.89522 154.083683,189.77152 L153.631293,188.864449 L152.666897,189.173811 M212.731852,189.77152 C207.698286,199.898722 201.127531,208.592357 193.203114,215.610771 L190.250307,218.223414 L194.155821,217.657225 C208.627614,215.558238 222.037986,209.213414 232.937421,199.309185 L234.123921,198.231674 L232.741034,197.421498 C226.952317,194.036035 220.696014,191.259956 214.145131,189.173811 L213.183072,188.865617 L212.731852,189.77152 M184.645117,219.219207 L186.525983,217.833502 C196.093966,210.783568 204.258021,200.969229 210.135579,189.453987 L210.798383,188.157004 L209.386272,187.782269 C201.793841,185.761498 193.872931,184.644295 185.852659,184.454009 L184.645117,184.424824 L184.645117,219.219207 M180.972228,184.454009 C172.975334,184.64196 165.055593,185.761498 157.435107,187.781101 L156.025334,188.155837 L156.686969,189.455154 C162.548162,200.930705 170.712217,210.750881 180.298903,217.853348 L182.180938,219.248392 L182.180938,184.424824 L180.972228,184.454009 M183.326524,220.907269 C182.712817,220.907269 182.114307,220.907269 181.516966,220.886256 L179.992634,220.837225 C161.685466,220.031718 144.255021,212.624559 130.924138,199.981608 C130.01819,199.142247 129.097045,198.225837 128.179407,197.251057 C115.111541,183.549273 107.6664,165.596982 107.202321,146.690925 C107.189462,146.064031 107.18011,145.42663 107.18011,144.790396 C107.18011,144.143656 107.189462,143.50859 107.202321,142.874692 C107.6664,123.970969 115.113879,106.012841 128.179407,92.3157269 C129.01171,91.4331718 129.905969,90.5412775 130.9218,89.581674 C144.257359,76.9317181 161.692479,69.5292291 180.018352,68.7318943 C180.46139,68.7097137 180.917286,68.6957048 181.365,68.6828634 C182.120152,68.6618502 182.733859,68.658348 183.3651,68.658348 C184.085183,68.658348 184.704734,68.6618502 185.316103,68.6770264 L185.515997,68.6828634 C185.96371,68.6968722 186.384538,68.7108811 186.810041,68.7318943 C205.155786,69.5338987 222.583893,76.9387225 235.900748,89.5840088 C237.04049,90.670859 237.885652,91.5102203 238.641972,92.3122247 C251.708669,106.021013 259.159655,123.979141 259.626072,142.880529 L259.627241,143.032291 C259.638931,143.614824 259.65179,144.196189 259.65179,144.790396 C259.65179,145.37293 259.638931,145.960132 259.627241,146.543833 L259.626072,146.689758 C259.159655,165.580639 251.708669,183.538767 238.64431,197.252225 C237.847076,198.09859 236.951648,198.98815 235.903086,199.980441 C222.583893,212.624559 205.152279,220.031718 186.814717,220.838392 L185.361693,220.886256 C184.710579,220.907269 184.105055,220.907269 183.491348,220.907269 L183.326524,220.907269" id="Fill-33" fill="#49A2B4" fill-rule="evenodd" sketch:type="MSShapeGroup"></path>
                            <path d="M102.782462,73.4505286 C100.322959,73.4505286 98.0119138,72.4955947 96.2713241,70.7585022 C92.681431,67.1734141 92.681431,61.3410793 96.2713241,57.7559912 C98.0119138,56.0200661 100.322959,55.0627974 102.782462,55.0627974 C105.240797,55.0627974 107.55301,56.0200661 109.292431,57.7559912 C112.882324,61.3399119 112.882324,67.1734141 109.292431,70.7585022 C107.55301,72.4955947 105.240797,73.4505286 102.782462,73.4505286" id="Fill-35" fill="#49A2B4" fill-rule="evenodd" sketch:type="MSShapeGroup"></path>
                            <path d="M69.3816103,164.263811 C58.6282966,164.262643 49.8774207,155.52348 49.8774207,144.783392 C49.8774207,134.042137 58.6282966,125.304141 69.3816103,125.304141 C80.1372621,125.304141 88.8893069,134.043304 88.8893069,144.783392 C88.8893069,155.525815 80.1372621,164.263811 69.3816103,164.263811" id="Fill-36" fill="#49A2B4" fill-rule="evenodd" sketch:type="MSShapeGroup"></path>
                            <path d="M102.7848,239.122225 C99.0897,239.122225 95.6155345,237.686322 93.0005586,235.077181 C90.3902586,232.46804 88.952431,228.998524 88.952431,225.310705 C88.952431,221.620551 90.3902586,218.15337 93.0005586,215.544229 C95.6155345,212.933921 99.090869,211.49685 102.783631,211.49685 C106.478731,211.49685 109.950559,212.933921 112.564366,215.543062 C115.177003,218.152203 116.616,221.620551 116.616,225.310705 C116.616,229.000859 115.177003,232.46804 112.564366,235.077181 C109.951728,237.686322 106.4799,239.122225 102.7848,239.122225" id="Fill-37" fill="#49A2B4" fill-rule="evenodd" sketch:type="MSShapeGroup"></path>
                            <path d="M183.418872,263.942335 C180.504641,263.942335 178.133979,261.576013 178.133979,258.664515 C178.133979,255.755352 180.504641,253.386696 183.418872,253.386696 C186.335441,253.386696 188.704934,255.755352 188.704934,258.664515 C188.704934,261.576013 186.330766,263.942335 183.418872,263.942335" id="Fill-38" fill="#49A2B4" fill-rule="evenodd" sketch:type="MSShapeGroup"></path>
                            <path d="M264.054114,229.290374 C262.986848,229.290374 261.985045,228.878282 261.232231,228.125308 C260.477079,227.372335 260.064434,226.371872 260.064434,225.30837 C260.064434,224.2437 260.477079,223.243238 261.232231,222.490264 C261.985045,221.738458 262.986848,221.324031 264.054114,221.324031 C265.117872,221.324031 266.118507,221.738458 266.873659,222.490264 C267.625303,223.243238 268.041455,224.2437 268.041455,225.30837 C268.041455,226.371872 267.625303,227.372335 266.873659,228.124141 C266.118507,228.878282 265.117872,229.290374 264.054114,229.290374" id="Fill-39" fill="#49A2B4" fill-rule="evenodd" sketch:type="MSShapeGroup"></path>
                            <path d="M264.050607,71.4787885 C262.117138,71.4787885 260.301734,70.725815 258.937552,69.3622907 C257.567524,67.9975991 256.815879,66.1846256 256.815879,64.2560793 C256.815879,62.3263656 257.568693,60.5110573 258.937552,59.1451982 C260.300566,57.7828414 262.117138,57.0322026 264.049438,57.0322026 C265.982907,57.0322026 267.799479,57.7828414 269.164831,59.147533 C270.531352,60.5110573 271.282997,62.3263656 271.282997,64.2549119 C271.282997,66.1834581 270.531352,67.9975991 269.164831,69.3622907 C267.799479,70.725815 265.982907,71.4787885 264.050607,71.4787885" id="Fill-41" fill="#49A2B4" fill-rule="evenodd" sketch:type="MSShapeGroup"></path>
                            <path d="M247.190617,84.2104626 L247.184772,136.026718 L338.906483,136.018546 L338.894793,84.205793 L247.190617,84.2104626 L293.675189,113.018998" id="Fill-42" fill="#55BDC1" fill-rule="evenodd" sketch:type="MSShapeGroup"></path>
                            <path d="M282.990186,104.201035 L271.495748,104.201035 L271.501593,105.906608 L282.411548,105.906608 C282.565852,105.31707 282.763407,104.750881 282.990186,104.201035" id="Fill-43" fill="#1FA9A8" fill-rule="evenodd" sketch:type="MSShapeGroup"></path>
                            <path d="M304.211586,109.260551 C304.220938,109.546564 304.237303,109.824405 304.237303,110.112753 C304.247824,110.402269 304.220938,110.685947 304.209248,110.966123 L318.584017,110.966123 L318.584017,109.260551 L304.211586,109.260551" id="Fill-44" fill="#1FA9A8" fill-rule="evenodd" sketch:type="MSShapeGroup"></path>
                            <path d="M281.849276,110.112753 C281.851614,109.829075 281.871486,109.546564 281.887852,109.262885 L267.507238,109.262885 L267.513083,110.966123 L281.886683,110.966123 C281.876162,110.685947 281.851614,110.402269 281.849276,110.112753" id="Fill-45" fill="#1FA9A8" fill-rule="evenodd" sketch:type="MSShapeGroup"></path>
                            <path d="M314.592,105.906608 L314.594338,104.197533 L303.105745,104.197533 C303.331355,104.746211 303.523066,105.311233 303.684383,105.906608 L314.592,105.906608" id="Fill-46" fill="#1FA9A8" fill-rule="evenodd" sketch:type="MSShapeGroup"></path>
                            <path d="M303.105745,116.03848 L314.595507,116.033811 L314.594338,114.325903 L303.684383,114.325903 C303.526572,114.913106 303.327848,115.480463 303.105745,116.03848" id="Fill-47" fill="#1FA9A8" fill-rule="evenodd" sketch:type="MSShapeGroup"></path>
                            <path d="M282.411548,114.328238 L271.501593,114.328238 L271.501593,116.036145 L282.98551,116.033811 C282.764576,115.487467 282.569359,114.92011 282.411548,114.328238" id="Fill-48" fill="#1FA9A8" fill-rule="evenodd" sketch:type="MSShapeGroup"></path>
                            <path d="M307.433255,110.113921 C307.434424,119.367907 300.995762,126.874295 293.045628,126.878965 C285.102507,126.878965 278.660338,119.367907 278.660338,110.117423 C278.658,100.85293 285.102507,93.3523789 293.044459,93.3512115 C300.987579,93.3512115 307.429748,100.850595 307.433255,110.113921 L307.433255,110.113921 Z" id="Fill-49" fill="#1FA9A8" fill-rule="evenodd" sketch:type="MSShapeGroup"></path>
                            <path d="M333.387797,120.338018 C330.968038,120.506123 328.496845,121.6887 326.521293,123.659273 C324.560938,125.621674 323.382621,128.133921 323.208445,130.529427 L262.888655,130.531762 C262.710972,128.137423 261.531486,125.619339 259.576976,123.66511 C257.593241,121.696872 255.1314,120.514295 252.699952,120.348524 L252.699952,99.8909912 C255.1314,99.7205507 257.602593,98.5379736 259.575807,96.5732379 C261.533824,94.6178414 262.708634,92.0985903 262.883979,89.6949119 L323.203769,89.6925771 C323.377945,92.0904185 324.565614,94.6155066 326.521293,96.5685683 C328.496845,98.5298018 330.963362,99.7182159 333.392472,99.8863216 L333.387797,120.338018 L333.387797,120.338018 Z M323.469124,86.960859 L262.615117,86.960859 L249.950545,86.9678634 L249.95639,120.626366 L249.954052,133.273987 L262.6233,133.273987 L323.471462,133.26815 L336.151231,133.26815 L336.143048,120.612357 L336.143048,99.6061454 L336.139541,86.9585242 L323.469124,86.960859 L323.469124,86.960859 Z" id="Fill-50" fill="#1FA9A8" fill-rule="evenodd" sketch:type="MSShapeGroup"></path>
                            <path d="M258.784417,31.8898899 C252.273279,31.8898899 246.975528,37.1805507 246.975528,43.6818062 C246.975528,50.1842291 252.273279,55.4760573 258.784417,55.4760573 C265.295555,55.4760573 270.590969,50.1842291 270.590969,43.6818062 C270.590969,37.1805507 265.295555,31.8898899 258.784417,31.8898899 L258.784417,31.8898899 Z M258.784417,57.0088546 C251.425779,57.0088546 245.438338,51.0329295 245.438338,43.6818062 C245.438338,36.3330176 251.425779,30.3559251 258.784417,30.3559251 C266.141886,30.3559251 272.129328,36.3330176 272.129328,43.6818062 C272.129328,51.0329295 266.141886,57.0088546 258.784417,57.0088546 L258.784417,57.0088546 Z" id="Fill-61" fill="#5FBFC2" fill-rule="evenodd" sketch:type="MSShapeGroup"></path>
                            <path d="M258.784417,27.7035903 C249.962234,27.7035903 242.781279,34.8714317 242.781279,43.6818062 C242.781279,52.4945154 249.962234,59.6611894 258.784417,59.6611894 C267.607769,59.6611894 274.784048,52.4945154 274.784048,43.6818062 C274.784048,34.8714317 267.607769,27.7035903 258.784417,27.7035903 L258.784417,27.7035903 Z M258.784417,61.1963216 C249.115903,61.1963216 241.246428,53.3397137 241.246428,43.6818062 C241.246428,34.0250661 249.115903,26.1696256 258.784417,26.1696256 C268.4541,26.1696256 276.322407,34.0250661 276.322407,43.6818062 C276.322407,53.3397137 268.4541,61.1963216 258.784417,61.1963216 L258.784417,61.1963216 Z" id="Fill-62" fill="#5FBFC2" fill-rule="evenodd" sketch:type="MSShapeGroup"></path>
                            <path d="M201.173121,226.892533 L145.236952,226.892533 L152.333741,192.35848 L194.063472,192.35848 L201.173121,226.892533" id="Fill-66" fill="#E1EFF5" fill-rule="evenodd" sketch:type="MSShapeGroup"></path>
                            <path d="M201.173121,226.892533 L186.91291,226.892533 L152.333741,192.35848 L194.063472,192.35848 L201.173121,226.892533" id="Fill-67" fill="#B5D0E1" fill-rule="evenodd" sketch:type="MSShapeGroup"></path>
                            <path d="M130.260166,226.892533 L216.149907,226.892533 L216.149907,231.069493 L130.260166,231.069493 L130.260166,226.892533 Z" id="Fill-68" fill="#F6FAFC" fill-rule="evenodd" sketch:type="MSShapeGroup"></path>
                            <path d="M71.087131,50.2496035 C68.2266724,50.2496035 65.8758828,52.6077533 65.8758828,55.4725551 L65.8758828,187.141366 C65.8758828,190.012004 68.2266724,192.35848 71.087131,192.35848 L275.32411,192.35848 C278.200934,192.35848 280.559907,190.012004 280.559907,187.141366 L280.559907,55.4725551 C280.559907,52.6077533 278.200934,50.2496035 275.32411,50.2496035 L71.087131,50.2496035 L275.75029,165.271588" id="Fill-69" fill="#4D5F70" fill-rule="evenodd" sketch:type="MSShapeGroup"></path>
                            <path d="M76.716869,61.0877533 L269.693203,61.0877533 L269.693203,181.523833 L76.716869,181.523833 L76.716869,61.0877533 Z" id="Fill-70" fill="#CCE0EA" fill-rule="evenodd" sketch:type="MSShapeGroup"></path>
                            <path d="M79.1506552,73.2380617 L267.258248,73.2380617 L267.258248,179.094471 L79.1506552,179.094471 L79.1506552,73.2380617 Z" id="Fill-71" fill="#FFFFFF" fill-rule="evenodd" sketch:type="MSShapeGroup"></path>
                            <path d="M76.716869,61.0877533 L269.693203,61.0877533 L269.693203,73.2380617 L76.716869,73.2380617 L76.716869,61.0877533 Z" id="Fill-72" fill="#CCE0EA" fill-rule="evenodd" sketch:type="MSShapeGroup"></path>
                            <path d="M90.4054552,67.1640749 C90.4054552,68.5065859 89.3159793,69.5934361 87.971669,69.5934361 C86.6273586,69.5934361 85.5390517,68.5065859 85.5390517,67.1640749 C85.5390517,65.8180617 86.6273586,64.7312115 87.971669,64.7312115 C89.3159793,64.7312115 90.4054552,65.8180617 90.4054552,67.1640749" id="Fill-73" fill="#DF4F2D" fill-rule="evenodd" sketch:type="MSShapeGroup"></path>
                            <path d="M102.520614,67.1640749 C102.520614,68.5065859 101.431138,69.5934361 100.086828,69.5934361 C98.7448552,69.5934361 97.6542103,68.5065859 97.6542103,67.1640749 C97.6542103,65.8180617 98.7448552,64.7312115 100.086828,64.7312115 C101.431138,64.7312115 102.520614,65.8180617 102.520614,67.1640749" id="Fill-74" fill="#F7C248" fill-rule="evenodd" sketch:type="MSShapeGroup"></path>
                            <path d="M114.635772,67.1640749 C114.635772,68.5065859 113.546297,69.5934361 112.203155,69.5934361 C110.860014,69.5934361 109.770538,68.5065859 109.770538,67.1640749 C109.770538,65.8180617 110.860014,64.7312115 112.203155,64.7312115 C113.546297,64.7312115 114.635772,65.8180617 114.635772,67.1640749" id="Fill-75" fill="#3DB7B8" fill-rule="evenodd" sketch:type="MSShapeGroup"></path>
                            <path d="M259.082503,67.1640749 C259.082503,68.4984141 257.988352,69.5934361 256.647548,69.5934361 L125.246472,69.5934361 C123.909176,69.5934361 122.813855,68.4984141 122.813855,67.1640749 C122.813855,65.8262335 123.909176,64.7312115 125.246472,64.7312115 L256.647548,64.7312115 C257.988352,64.7312115 259.082503,65.8262335 259.082503,67.1640749" id="Fill-76" fill="#FFFFFF" fill-rule="evenodd" sketch:type="MSShapeGroup"></path>
                            <path d="M97.0346586,82.1359912 L169.249841,82.1359912 L169.249841,122.749868 L97.0346586,122.749868 L97.0346586,82.1359912 Z" id="Fill-77" fill="#E36642" fill-rule="evenodd" sketch:type="MSShapeGroup"></path>
                            <path d="M97.0346586,130.111498 L169.249841,130.111498 L169.249841,144.284912 L97.0346586,144.284912 L97.0346586,130.111498 Z" id="Fill-78" fill="#55BDC1" fill-rule="evenodd" sketch:type="MSShapeGroup"></path>
                            <path d="M177.160231,130.111498 L249.376583,130.111498 L249.376583,144.284912 L177.160231,144.284912 L177.160231,130.111498 Z" id="Fill-79" fill="#55BDC1" fill-rule="evenodd" sketch:type="MSShapeGroup"></path>
                            <path d="M179.335676,82.1359912 L249.376583,82.1359912 L249.376583,85.2272687 L179.335676,85.2272687 L179.335676,82.1359912 Z" id="Fill-80" fill="#B5CCDB" fill-rule="evenodd" sketch:type="MSShapeGroup"></path>
                            <path d="M179.335676,89.8630176 L249.376583,89.8630176 L249.376583,92.9542952 L179.335676,92.9542952 L179.335676,89.8630176 Z" id="Fill-81" fill="#B5CCDB" fill-rule="evenodd" sketch:type="MSShapeGroup"></path>
                            <path d="M179.335676,97.5923789 L202.358452,97.5923789 L202.358452,100.682489 L179.335676,100.682489 L179.335676,97.5923789 Z" id="Fill-82" fill="#B5CCDB" fill-rule="evenodd" sketch:type="MSShapeGroup"></path>
                            <path d="M97.0346586,151.653546 L249.376583,151.653546 L249.376583,154.741322 L97.0346586,154.741322 L97.0346586,151.653546 Z" id="Fill-83" fill="#4D5F70" fill-rule="evenodd" sketch:type="MSShapeGroup"></path>
                            <path d="M97.0346586,159.379405 L249.376583,159.379405 L249.376583,162.468348 L97.0346586,162.468348 L97.0346586,159.379405 Z" id="Fill-84" fill="#B5CCDB" fill-rule="evenodd" sketch:type="MSShapeGroup"></path>
                            <path d="M97.0346586,167.106432 L173.205621,167.106432 L173.205621,170.197709 L97.0346586,170.197709 L97.0346586,167.106432 Z" id="Fill-85" fill="#B5CCDB" fill-rule="evenodd" sketch:type="MSShapeGroup"></path>
                            <path d="M142.621976,110.27152 C141.223893,110.27152 140.088828,111.398062 140.088828,112.808282 C140.088828,114.202159 141.223893,115.336872 142.621976,115.336872 C144.024734,115.336872 145.1598,114.202159 145.1598,112.808282 C145.1598,111.398062 144.024734,110.27152 142.621976,110.27152 L142.621976,110.27152 Z M132.284814,110.27152 C130.886731,110.27152 129.752834,111.398062 129.752834,112.808282 C129.752834,114.202159 130.886731,115.339207 132.284814,115.339207 C133.686403,115.339207 134.822638,114.202159 134.822638,112.808282 C134.822638,111.398062 133.686403,110.27152 132.284814,110.27152 L132.284814,110.27152 Z M143.54429,102.801322 L142.96799,104.699515 L131.943476,104.699515 L131.368345,102.801322 L143.54429,102.801322 L143.54429,102.801322 Z M144.695721,99.0049339 L130.214576,99.0049339 L130.792045,100.903128 L144.119421,100.903128 L144.695721,99.0049339 L144.695721,99.0049339 Z M144.682862,109.385463 L130.229772,109.385463 C129.727117,109.385463 129.244334,109.227863 128.84221,108.926674 C128.434241,108.626652 128.144338,108.215727 127.999386,107.732423 L123.327031,92.3414097 L116.1075,92.3414097 L116.1075,89.5501542 L123.671876,89.5501542 C124.1757,89.5501542 124.653807,89.7112555 125.058269,90.0101101 C125.466238,90.30663 125.75731,90.7222247 125.898755,91.200859 L130.574617,106.598877 L144.341524,106.598877 L147.219517,97.1044053 L129.639445,97.1044053 L128.793114,94.316652 L147.847252,94.316652 C148.580193,94.316652 149.280403,94.6668722 149.716428,95.2599119 C150.155959,95.8471145 150.288052,96.6129295 150.076469,97.3180396 L146.914417,107.732423 C146.768297,108.215727 146.478393,108.626652 146.076269,108.926674 C145.6683,109.227863 145.187855,109.385463 144.682862,109.385463 L144.682862,109.385463 Z" id="Fill-86" fill="#FFFFFF" fill-rule="evenodd" sketch:type="MSShapeGroup"></path>
                            <path d="M263.593541,232.975859 C264.673666,231.044978 265.273345,228.924978 265.273345,226.703414 C265.273345,217.733106 255.545214,210.462533 243.546952,210.462533 C231.545183,210.462533 221.818221,217.733106 221.818221,226.703414 C221.818221,228.924978 222.416731,231.044978 223.498024,232.975859 L263.593541,232.975859" id="Fill-87" fill="#FFFFFF" fill-rule="evenodd" sketch:type="MSShapeGroup"></path>
                            <path d="M222.041493,229.024207 C222.306848,230.404075 222.800152,231.729075 223.498024,232.975859 L263.593541,232.975859 C264.292583,231.729075 264.784717,230.404075 265.048903,229.024207 L222.041493,229.024207" id="Fill-88" fill="#E1EFF5" fill-rule="evenodd" sketch:type="MSShapeGroup"></path>
                            <path d="M78.0857276,225.219648 L115.223762,225.219648 L115.223762,232.972357 L78.0857276,232.972357 L78.0857276,225.219648 Z" id="Fill-106" fill="#F7C248" fill-rule="evenodd" sketch:type="MSShapeGroup"></path>
                            <path d="M78.0857276,224.45033 L115.223762,224.45033 L115.223762,232.200705 L78.0857276,232.200705 L78.0857276,224.45033 Z" id="Fill-107" fill="#F3B03E" fill-rule="evenodd" sketch:type="MSShapeGroup"></path>
                            <path d="M75.0300517,216.697621 L112.169255,216.697621 L112.169255,224.45033 L75.0300517,224.45033 L75.0300517,216.697621 Z" id="Fill-108" fill="#F7C248" fill-rule="evenodd" sketch:type="MSShapeGroup"></path>
                            <path d="M75.0300517,215.925969 L112.169255,215.925969 L112.169255,223.670507 L75.0300517,223.670507 L75.0300517,215.925969 Z" id="Fill-109" fill="#F7C248" fill-rule="evenodd" sketch:type="MSShapeGroup"></path>
                            <path d="M84.3642414,208.175595 L121.501107,208.175595 L121.501107,215.925969 L84.3642414,215.925969 L84.3642414,208.175595 Z" id="Fill-110" fill="#F7C248" fill-rule="evenodd" sketch:type="MSShapeGroup"></path>
                            <path d="M84.3642414,207.395771 L121.501107,207.395771 L121.501107,215.144978 L84.3642414,215.144978 L84.3642414,207.395771 Z" id="Fill-111" fill="#FBD15F" fill-rule="evenodd" sketch:type="MSShapeGroup"></path>
                            <path d="M80.8550069,199.647731 L117.996548,199.647731 L117.996548,207.395771 L80.8550069,207.395771 L80.8550069,199.647731 Z" id="Fill-112" fill="#F7C248" fill-rule="evenodd" sketch:type="MSShapeGroup"></path>
                            <path d="M80.8550069,198.870242 L117.996548,198.870242 L117.996548,206.627621 L80.8550069,206.627621 L80.8550069,198.870242 Z" id="Fill-113" fill="#F7C248" fill-rule="evenodd" sketch:type="MSShapeGroup"></path>
                            <path d="M80.0589414,182.542974 L117.201652,182.542974 L117.201652,190.299185 L80.0589414,190.299185 L80.0589414,182.542974 Z" id="Fill-114" fill="#F7C248" fill-rule="evenodd" sketch:type="MSShapeGroup"></path>
                            <path d="M85.8488276,191.121035 L122.986862,191.121035 L122.986862,198.87141 L85.8488276,198.87141 L85.8488276,191.121035 Z" id="Fill-115" fill="#F7C248" fill-rule="evenodd" sketch:type="MSShapeGroup"></path>
                            <path d="M85.8488276,190.349383 L122.986862,190.349383 L122.986862,198.091586 L85.8488276,198.091586 L85.8488276,190.349383 Z" id="Fill-116" fill="#FBD15F" fill-rule="evenodd" sketch:type="MSShapeGroup"></path>
                            <path d="M30.0961862,225.219648 L67.2353897,225.219648 L67.2353897,232.972357 L30.0961862,232.972357 L30.0961862,225.219648 Z" id="Fill-117" fill="#F7C248" fill-rule="evenodd" sketch:type="MSShapeGroup"></path>
                            <path d="M30.0961862,224.45033 L67.2353897,224.45033 L67.2353897,232.200705 L30.0961862,232.200705 L30.0961862,224.45033 Z" id="Fill-118" fill="#FBD15F" fill-rule="evenodd" sketch:type="MSShapeGroup"></path>
                            <path d="M24.8288276,216.697621 L61.9692,216.697621 L61.9692,224.45033 L24.8288276,224.45033 L24.8288276,216.697621 Z" id="Fill-119" fill="#F3B03E" fill-rule="evenodd" sketch:type="MSShapeGroup"></path>
                            <path d="M24.8288276,215.925969 L61.9692,215.925969 L61.9692,223.670507 L24.8288276,223.670507 L24.8288276,215.925969 Z" id="Fill-120" fill="#F7C248" fill-rule="evenodd" sketch:type="MSShapeGroup"></path>
                            <path d="M33.0969207,208.175595 L70.2384621,208.175595 L70.2384621,215.925969 L33.0969207,215.925969 L33.0969207,208.175595 Z" id="Fill-121" fill="#F7C248" fill-rule="evenodd" sketch:type="MSShapeGroup"></path>
                            <path d="M33.0969207,207.395771 L70.2384621,207.395771 L70.2384621,215.144978 L33.0969207,215.144978 L33.0969207,207.395771 Z" id="Fill-122" fill="#FBD15F" fill-rule="evenodd" sketch:type="MSShapeGroup"></path>
                            <path d="M34.2565345,199.647731 L71.3969069,199.647731 L71.3969069,207.395771 L34.2565345,207.395771 L34.2565345,199.647731 Z" id="Fill-123" fill="#F7C248" fill-rule="evenodd" sketch:type="MSShapeGroup"></path>
                            <path d="M34.2565345,198.870242 L71.3969069,198.870242 L71.3969069,206.627621 L34.2565345,206.627621 L34.2565345,198.870242 Z" id="Fill-124" fill="#F3B03E" fill-rule="evenodd" sketch:type="MSShapeGroup"></path>
                            <path d="M30.9273207,191.121035 L68.0688621,191.121035 L68.0688621,198.870242 L30.9273207,198.870242 L30.9273207,191.121035 Z" id="Fill-125" fill="#F3B03E" fill-rule="evenodd" sketch:type="MSShapeGroup"></path>
                            <path d="M30.9273207,190.349383 L68.0688621,190.349383 L68.0688621,198.091586 L30.9273207,198.091586 L30.9273207,190.349383 Z" id="Fill-126" fill="#F7C248" fill-rule="evenodd" sketch:type="MSShapeGroup"></path>
                            <path d="M32.2120138,182.599009 L69.3500483,182.599009 L69.3500483,190.349383 L32.2120138,190.349383 L32.2120138,182.599009 Z" id="Fill-127" fill="#F3B03E" fill-rule="evenodd" sketch:type="MSShapeGroup"></path>
                            <path d="M32.2120138,181.815683 L69.3500483,181.815683 L69.3500483,189.571894 L32.2120138,189.571894 L32.2120138,181.815683 Z" id="Fill-128" fill="#F7C248" fill-rule="evenodd" sketch:type="MSShapeGroup"></path>
                            <path d="M30.0961862,174.07348 L67.2353897,174.07348 L67.2353897,181.815683 L30.0961862,181.815683 L30.0961862,174.07348 Z" id="Fill-129" fill="#F7C248" fill-rule="evenodd" sketch:type="MSShapeGroup"></path>
                            <path d="M30.0961862,173.293656 L67.2353897,173.293656 L67.2353897,181.046366 L30.0961862,181.046366 L30.0961862,173.293656 Z" id="Fill-130" fill="#FBD15F" fill-rule="evenodd" sketch:type="MSShapeGroup"></path>
                            <path d="M37.0258138,165.540947 L74.1673552,165.540947 L74.1673552,173.293656 L37.0258138,173.293656 L37.0258138,165.540947 Z" id="Fill-131" fill="#F3B03E" fill-rule="evenodd" sketch:type="MSShapeGroup"></path>
                            <path d="M37.0258138,164.769295 L74.1673552,164.769295 L74.1673552,172.525507 L37.0258138,172.525507 L37.0258138,164.769295 Z" id="Fill-132" fill="#F7C248" fill-rule="evenodd" sketch:type="MSShapeGroup"></path>
                            <path d="M91.2716586,232.975859 L78.0845586,232.975859 L78.0845586,224.45033 L75.0300517,224.45033 L78.0857276,224.45033 L78.0857276,232.972357 L91.2693207,232.972357 C91.2704897,232.973524 91.2704897,232.974692 91.2716586,232.975859" id="Fill-133" fill="#4D979E" fill-rule="evenodd" sketch:type="MSShapeGroup"></path>
                            <path d="M111.439821,232.975859 L91.2716586,232.975859 C91.2704897,232.974692 91.2704897,232.973524 91.2693207,232.972357 L111.436314,232.972357 L111.439821,232.975859" id="Fill-134" fill="#418A90" fill-rule="evenodd" sketch:type="MSShapeGroup"></path>
                            <path d="M111.436314,232.972357 L78.0857276,232.972357 L78.0857276,225.219648 L78.0857276,232.200705 L110.66129,232.200705 L110.667134,232.206542 L111.218886,232.758722 L111.436314,232.972357" id="Fill-135" fill="#E1A43C" fill-rule="evenodd" sketch:type="MSShapeGroup"></path>
                            <path d="M110.66129,232.200705 L78.0857276,232.200705 L78.0857276,224.45033 L102.904034,224.45033 L110.66129,232.200705" id="Fill-136" fill="#E19734" fill-rule="evenodd" sketch:type="MSShapeGroup"></path>
                            <path d="M102.904034,224.45033 L75.0300517,224.45033 L75.0300517,223.670507 L102.12901,223.670507 L102.131348,223.672841 L102.904034,224.45033" id="Fill-137" fill="#E1A43C" fill-rule="evenodd" sketch:type="MSShapeGroup"></path>
                            <path d="M102.12901,223.670507 L75.0300517,223.670507 L75.0300517,215.928304 L84.3654103,215.928304 L84.3654103,215.925969 L94.3682483,215.925969 L94.3694172,215.928304 L95.1421034,216.701123 L100.982255,222.533458 L102.12901,223.670507" id="Fill-138" fill="#E1A43C" fill-rule="evenodd" sketch:type="MSShapeGroup"></path>
                            <path d="M94.3682483,215.925969 L84.3654103,215.925969 L84.3654103,215.144978 L93.5862103,215.144978 L94.3682483,215.925969" id="Fill-139" fill="#E1A43C" fill-rule="evenodd" sketch:type="MSShapeGroup"></path>
                            <path d="M93.5862103,215.144978 L84.3654103,215.144978 L84.3654103,207.395771 L85.8289552,207.395771 L86.6063172,208.179097 L87.0154552,208.583018 L87.2118414,208.780308 L88.5222517,210.087797 L92.6276586,214.193546 L93.5850414,215.143811 L93.5862103,215.144978" id="Fill-140" fill="#E2B14D" fill-rule="evenodd" sketch:type="MSShapeGroup"></path>
                            <path d="M85.8289552,207.395771 L84.3654103,207.395771 L84.3654103,207.393436 L80.8550069,207.393436 L80.8550069,206.627621 L85.056269,206.627621 L85.8266172,207.393436 L85.8289552,207.395771" id="Fill-141" fill="#E1A43C" fill-rule="evenodd" sketch:type="MSShapeGroup"></path>
                            <path d="M85.056269,206.627621 L80.8550069,206.627621 L80.8550069,202.437819 L83.5015448,205.080815 L85.056269,206.627621" id="Fill-142" fill="#E1A43C" fill-rule="evenodd" sketch:type="MSShapeGroup"></path>
                            <path d="M67.2353897,232.975859 L54.2177897,232.975859 L54.2142828,232.972357 L67.2353897,232.972357 L67.2353897,224.45033 L67.2353897,232.975859 M61.9692,224.45033 L61.9692,215.925969 L70.2384621,215.925969 L70.2384621,207.395771 L70.2408,207.395771 L70.2408,215.928304 L61.9692,215.928304 L61.9692,224.45033" id="Fill-143" fill="#4D979E" fill-rule="evenodd" sketch:type="MSShapeGroup"></path>
                            <path d="M67.2353897,232.972357 L54.2142828,232.972357 L53.4369207,232.206542 L53.4310759,232.200705 L67.2353897,232.200705 L67.2353897,232.972357" id="Fill-144" fill="#E1A43C" fill-rule="evenodd" sketch:type="MSShapeGroup"></path>
                            <path d="M67.2353897,232.200705 L53.4310759,232.200705 L49.7511724,228.525727 C48.9925138,227.75174 48.2806138,226.915881 47.6446966,226.029824 C47.4342828,225.751982 47.2612759,225.477643 47.0976207,225.221982 L47.0625517,225.169449 C46.9409793,224.98033 46.783169,224.728172 46.6218517,224.45033 L67.2353897,224.45033 L67.2353897,232.200705" id="Fill-145" fill="#E2B14D" fill-rule="evenodd" sketch:type="MSShapeGroup"></path>
                            <path d="M61.9692,224.45033 L46.6218517,224.45033 L46.5598966,224.335925 C46.4359862,224.119956 46.3190897,223.895815 46.1998552,223.672841 C46.1998552,223.671674 46.1998552,223.670507 46.1986862,223.670507 L61.9692,223.670507 L61.9692,224.45033" id="Fill-146" fill="#E19734" fill-rule="evenodd" sketch:type="MSShapeGroup"></path>
                            <path d="M61.9692,223.670507 L46.1986862,223.670507 C45.0741414,221.572687 44.3470448,219.278744 44.0641552,216.862225 L44.0489586,216.701123 C44.0220724,216.486322 43.9928483,216.259846 43.9788207,216.036872 L43.9659621,215.928304 L43.9659621,215.925969 L61.9692,215.925969 L61.9692,223.670507" id="Fill-147" fill="#E1A43C" fill-rule="evenodd" sketch:type="MSShapeGroup"></path>
                            <path d="M70.2384621,215.925969 L43.9659621,215.925969 C43.9484276,215.672643 43.9367379,215.422819 43.9344,215.170661 L43.9344,215.144978 L70.2384621,215.144978 L70.2384621,215.925969" id="Fill-148" fill="#E1A43C" fill-rule="evenodd" sketch:type="MSShapeGroup"></path>
                            <path d="M70.2384621,215.144978 L43.9344,215.144978 L43.9344,215.143811 C43.9227103,214.926674 43.9168655,214.674515 43.9168655,214.425859 C43.9168655,214.316123 43.9168655,214.20522 43.9227103,214.091982 L43.9227103,213.979912 C43.9168655,213.869009 43.9168655,213.759273 43.9168655,213.6437 C43.9168655,211.784031 44.1787138,209.946542 44.6837069,208.179097 C44.7141,208.042511 44.7608586,207.898921 44.7982655,207.76467 C44.8274897,207.640925 44.8754172,207.519515 44.9175,207.395771 L70.2384621,207.395771 L70.2384621,215.144978" id="Fill-149" fill="#E2B14D" fill-rule="evenodd" sketch:type="MSShapeGroup"></path>
                            <path d="M70.2408,207.395771 L44.9175,207.395771 C44.9175,207.394604 44.9175,207.394604 44.918669,207.393436 C44.9619207,207.248678 45.018031,207.093414 45.0706345,206.935815 C45.1127172,206.836586 45.1477862,206.735022 45.189869,206.627621 L71.3969069,206.627621 L71.3969069,207.393436 L70.2408,207.393436 L70.2408,207.395771" id="Fill-150" fill="#E1A43C" fill-rule="evenodd" sketch:type="MSShapeGroup"></path>
                            <path d="M71.3969069,206.627621 L45.189869,206.627621 C45.189869,206.626454 45.1910379,206.625286 45.1910379,206.624119 C45.2623448,206.435 45.3313138,206.265727 45.3991138,206.090617 C46.3822138,203.689273 47.8445897,201.488722 49.6763586,199.640727 C49.9370379,199.375727 50.2023931,199.121233 50.478269,198.870242 L71.3969069,198.870242 L71.3969069,206.627621" id="Fill-151" fill="#E19734" fill-rule="evenodd" sketch:type="MSShapeGroup"></path>
                            <path d="M68.0688621,198.870242 L50.478269,198.870242 C50.577631,198.77685 50.679331,198.682291 50.7857069,198.605242 C50.9797552,198.42663 51.1679586,198.266696 51.391231,198.091586 L68.0688621,198.091586 L68.0688621,198.870242" id="Fill-152" fill="#E19734" fill-rule="evenodd" sketch:type="MSShapeGroup"></path>
                            <path d="M68.0688621,198.091586 L51.391231,198.091586 C51.5174793,197.999361 51.6519103,197.894295 51.7921862,197.77989 C52.2188586,197.455352 52.6186448,197.177511 53.0196,196.930022 C54.0389379,196.255264 55.1716655,195.662225 56.3534897,195.181256 C56.5241586,195.115881 56.6983345,195.045837 56.8806931,194.979295 C59.1064034,194.152775 61.4560241,193.718502 63.8629241,193.718502 L64.0756759,193.718502 C64.4287034,193.726674 64.7641966,193.738348 65.0903379,193.757026 L65.1803483,193.762863 C65.6280621,193.799053 66.0734379,193.845749 66.510631,193.89478 L66.7081862,193.925132 C67.1559,193.981167 67.6024448,194.06522 68.0688621,194.165617 L68.0688621,198.091586" id="Fill-153" fill="#E1A43C" fill-rule="evenodd" sketch:type="MSShapeGroup"></path>
                            <path d="M82.4342793,214.425859 C82.4342793,224.677974 74.1241034,232.972357 63.8640931,232.972357 C53.6169414,232.972357 45.2950759,224.677974 45.2950759,214.425859 C45.2950759,204.180749 53.6169414,195.880529 63.8640931,195.880529 C74.1241034,195.880529 82.4342793,204.180749 82.4342793,214.425859" id="Fill-154" fill="#F7C248" fill-rule="evenodd" sketch:type="MSShapeGroup"></path>
                            <path d="M82.4342793,213.6437 C82.4342793,223.895815 74.1241034,232.200705 63.8640931,232.200705 C53.6169414,232.200705 45.2950759,223.895815 45.2950759,213.6437 C45.2950759,203.409097 53.6169414,195.108877 63.8640931,195.108877 C74.1241034,195.108877 82.4342793,203.409097 82.4342793,213.6437" id="Fill-155" fill="#FBD15F" fill-rule="evenodd" sketch:type="MSShapeGroup"></path>
                            <path d="M63.8640931,199.559009 C56.0846276,199.559009 49.7511724,205.882819 49.7511724,213.6437 C49.7511724,221.425595 56.0846276,227.745903 63.8640931,227.745903 C71.6482345,227.745903 77.9781828,221.425595 77.9781828,213.6437 C77.9781828,205.882819 71.6482345,199.559009 63.8640931,199.559009 L63.8640931,199.559009 Z M63.8640931,229.233172 C55.2628448,229.233172 48.2689241,222.238106 48.2689241,213.6437 C48.2689241,205.066806 55.2628448,198.068238 63.8640931,198.068238 C72.4665103,198.068238 79.4616,205.066806 79.4616,213.6437 C79.4616,222.238106 72.4665103,229.233172 63.8640931,229.233172 L63.8640931,229.233172 Z" id="Fill-156" fill="#F3B03E" fill-rule="evenodd" sketch:type="MSShapeGroup"></path>
                            <path d="M166.353145,102.209449 L172.84441,126.415507 L178.304648,120.963744 L191.958166,134.595485 L198.782586,127.780198 L185.129069,114.147291 L190.590476,108.694361 L166.353145,102.209449" id="Fill-158" fill="#273B4E" fill-rule="evenodd" sketch:type="MSShapeGroup"></path>
                            <path d="M91.1793103,156.973392 C91.1793103,159.897731 88.8063103,162.268722 85.8780517,162.268722 L5.30125862,162.268722 C2.373,162.268722 0,159.897731 0,156.973392 L0,106.859207 C0,103.934868 2.373,101.563877 5.30125862,101.563877 L85.8780517,101.563877 C88.8063103,101.563877 91.1793103,103.934868 91.1793103,106.859207 L91.1793103,156.973392" id="Fill-159" fill="#E36642" fill-rule="evenodd" sketch:type="MSShapeGroup"></path>
                            <path d="M30.3931034,118.800551 C30.3931034,121.531101 28.1767448,123.744493 25.4425345,123.744493 L11.9643621,123.744493 C9.23015172,123.744493 7.0137931,121.531101 7.0137931,118.800551 L7.0137931,111.177423 C7.0137931,108.446872 9.23015172,106.23348 11.9643621,106.23348 L25.4425345,106.23348 C28.1767448,106.23348 30.3931034,108.446872 30.3931034,111.177423 L30.3931034,118.800551" id="Fill-160" fill="#FEF59F" fill-rule="evenodd" sketch:type="MSShapeGroup"></path>
                            <path d="M11.6896552,106.23348 L14.0275862,106.23348 L14.0275862,124.911894 L11.6896552,124.911894 L11.6896552,106.23348 Z" id="Fill-161" fill="#BDB673" fill-rule="evenodd" sketch:type="MSShapeGroup"></path>
                            <path d="M7.0137931,112.070485 L14.0275862,112.070485 L14.0275862,115.572687 L7.0137931,115.572687 L7.0137931,112.070485 Z" id="Fill-162" fill="#BDB673" fill-rule="evenodd" sketch:type="MSShapeGroup"></path>
                            <path d="M13.1263138,115.572687 L6.12421034,115.572687 L13.1263138,115.572687" id="Fill-163" fill="#BDB673" fill-rule="evenodd" sketch:type="MSShapeGroup"></path>
                            <path d="M13.1263138,116.740088 L6.12421034,116.740088 L13.1263138,116.740088" id="Fill-164" fill="#BDB673" fill-rule="evenodd" sketch:type="MSShapeGroup"></path>
                            <path d="M15.1965517,124.632885 L15.1965517,106.667753 L15.1965517,124.632885" id="Fill-165" fill="#BDB673" fill-rule="evenodd" sketch:type="MSShapeGroup"></path>
                            <path d="M15.1965517,110.903084 L30.3931034,110.903084 L30.3931034,112.070485 L15.1965517,112.070485 L15.1965517,110.903084 Z" id="Fill-166" fill="#BDB673" fill-rule="evenodd" sketch:type="MSShapeGroup"></path>
                            <path d="M14.2941103,113.237885 L29.4637759,113.237885 L14.2941103,113.237885" id="Fill-167" fill="#BDB673" fill-rule="evenodd" sketch:type="MSShapeGroup"></path>
                            <path d="M15.256169,115.572687 L29.8740828,115.572687 L15.256169,115.572687" id="Fill-168" fill="#BDB673" fill-rule="evenodd" sketch:type="MSShapeGroup"></path>
                            <path d="M15.1965517,115.572687 L30.3931034,115.572687 L30.3931034,116.740088 L15.1965517,116.740088 L15.1965517,115.572687 Z" id="Fill-169" fill="#BDB673" fill-rule="evenodd" sketch:type="MSShapeGroup"></path>
                            <text id="BANK-NAME" fill="none" sketch:type="MSTextLayer" font-family=".AppleSystemUIFont" font-size="7.62125991" font-weight="normal">
                                <tspan x="35.5646069" y="115.175193" fill="#FEF59F">BANK NAME</tspan>
                            </text>
                            <text id="1234----5678---3456-" fill="none" sketch:type="MSTextLayer" font-family=".AppleSystemUIFont" font-size="7.62125991" font-weight="normal">
                                <tspan x="5.18223493" y="142.865517" fill="#FEF59F">1234    5678   3456 </tspan>
                            </text>
                            <path d="M291.494237,107.433942 L291.494237,108.50102 L295.028531,108.50102 L295.028531,109.824606 L291.494237,109.824606 L291.494237,115.416502 L296.549099,115.416502 L296.549099,116.740088 L288.196247,116.740088 L288.196247,115.416502 L289.881201,115.416502 L289.881201,109.824606 L288.27844,109.824606 L288.27844,108.50102 L289.881201,108.50102 L289.881201,107.300558 C289.881201,105.015906 290.424012,103.647872 291.509648,103.196414 C292.595284,102.744956 293.436041,102.51923 294.031942,102.51923 C295.223745,102.51923 296.124433,102.656034 296.734033,102.929644 L296.549099,104.345574 C296.035391,104.037762 295.398403,103.883858 294.638115,103.883858 C293.877827,103.883858 293.30077,103.98133 292.906927,104.176278 C292.513084,104.371226 292.179179,104.684164 291.905201,105.115101 C291.631224,105.546038 291.494237,106.318978 291.494237,107.433942 L291.494237,107.433942 Z" id="£" fill="#57B3C6" fill-rule="evenodd" sketch:type="MSShapeGroup"></path>
                            <g id="Fill-58-+-Fill-59-+-£-copy-2" stroke-width="1" fill="none" fill-rule="evenodd" sketch:type="MSLayerGroup" transform="translate(76.573871, 27.128282)">
                                <path d="M11.5750966,4.35323789 C7.67308966,4.35323789 4.49934828,7.52389868 4.49934828,11.4206828 C4.49934828,15.317467 7.67308966,18.4881278 11.5750966,18.4881278 C15.4782724,18.4881278 18.6520138,15.317467 18.6520138,11.4206828 C18.6520138,7.52389868 15.4782724,4.35323789 11.5750966,4.35323789 L11.5750966,4.35323789 Z M11.5750966,19.4080396 C7.16575862,19.4080396 3.57820345,15.8264537 3.57820345,11.4206828 C3.57820345,7.0160793 7.16575862,3.43449339 11.5750966,3.43449339 C15.9856034,3.43449339 19.5743276,7.0160793 19.5743276,11.4206828 C19.5743276,15.8264537 15.9856034,19.4080396 11.5750966,19.4080396 L11.5750966,19.4080396 Z" id="Fill-58" fill="#5FBFC2" sketch:type="MSShapeGroup"></path>
                                <path d="M11.5750966,1.84449339 C6.28903448,1.84449339 1.98490345,6.14052863 1.98490345,11.4206828 C1.98490345,16.7020044 6.28903448,20.9968722 11.5750966,20.9968722 C16.8646655,20.9968722 21.1641207,16.7020044 21.1641207,11.4206828 C21.1641207,6.14052863 16.8646655,1.84449339 11.5750966,1.84449339 L11.5750966,1.84449339 Z M11.5750966,21.9167841 C5.78170345,21.9167841 1.06492759,17.2086564 1.06492759,11.4206828 C1.06492759,5.63387665 5.78170345,0.924581498 11.5750966,0.924581498 C17.3708276,0.924581498 22.0864345,5.63387665 22.0864345,11.4206828 C22.0864345,17.2086564 17.3708276,21.9167841 11.5750966,21.9167841 L11.5750966,21.9167841 Z" id="Fill-59" fill="#5FBFC2" sketch:type="MSShapeGroup"></path>
                                <path d="M10.5548505,9.97646298 L10.5548505,10.6786105 L12.8804512,10.6786105 L12.8804512,11.5495435 L10.5548505,11.5495435 L10.5548505,15.2290665 L13.8810003,15.2290665 L13.8810003,16.0999995 L8.38474053,16.0999995 L8.38474053,15.2290665 L9.49345715,15.2290665 L9.49345715,11.5495435 L8.43882427,11.5495435 L8.43882427,10.6786105 L9.49345715,10.6786105 L9.49345715,9.88869454 C9.49345715,8.38537119 9.85063159,7.48519107 10.5649912,7.18812717 C11.2793508,6.89106328 11.8325768,6.74253356 12.2246859,6.74253356 C13.008904,6.74253356 13.6015657,6.83255157 14.0026887,7.01259029 L13.8810003,7.94428603 C13.5429753,7.74174247 13.1238305,7.64047221 12.6235534,7.64047221 C12.1232764,7.64047221 11.7435673,7.70461004 11.4844147,7.83288763 C11.2252622,7.96116522 11.0055492,8.16708142 10.8252692,8.45064242 C10.6449892,8.73420341 10.5548505,9.24280518 10.5548505,9.97646298 L10.5548505,9.97646298 Z" id="£-copy" fill="#57B3C6" sketch:type="MSShapeGroup"></path>
                            </g>
                            <path d="M258.048249,40.700095 L258.048249,41.6541001 L261.208034,41.6541001 L261.208034,42.8374334 L258.048249,42.8374334 L258.048249,47.8367873 L262.567476,47.8367873 L262.567476,49.0201206 L255.099729,49.0201206 L255.099729,47.8367873 L256.606138,47.8367873 L256.606138,42.8374334 L255.173212,42.8374334 L255.173212,41.6541001 L256.606138,41.6541001 L256.606138,40.5808443 C256.606138,38.5382846 257.09143,37.3152133 258.062027,36.9115937 C259.032625,36.5079742 259.784291,36.3061674 260.317048,36.3061674 C261.382562,36.3061674 262.187809,36.4284745 262.732814,36.6730925 L262.567476,37.9389839 C262.108203,37.6637887 261.538713,37.5261932 260.858988,37.5261932 C260.179263,37.5261932 259.663354,37.613337 259.311245,37.7876273 C258.959135,37.9619176 258.660612,38.2416952 258.415666,38.6269684 C258.17072,39.0122416 258.048249,39.7032769 258.048249,40.700095 L258.048249,40.700095 Z" id="£-copy-2" fill="#57B3C6" fill-rule="evenodd" sketch:type="MSShapeGroup"></path>
                        </g>
                    </g>
                </g>
            </g>
        </g>
    </g>
</svg>