<?xml version="1.0" encoding="UTF-8"?>
<svg width="101px" height="21px" viewBox="0 0 101 21" version="1.1" xmlns="http://www.w3.org/2000/svg" xmlns:xlink="http://www.w3.org/1999/xlink" xmlns:sketch="http://www.bohemiancoding.com/sketch/ns">
    <!-- Generator: Sketch 3.3.2 (12043) - http://www.bohemiancoding.com/sketch -->
    <title>BarFlow</title>
    <desc>Created with Sketch.</desc>
    <defs></defs>
    <g id="Page-1" stroke="none" stroke-width="1" fill="none" fill-rule="evenodd" sketch:type="MSPage">
        <g id="Desktop-HD" sketch:type="MSArtboardGroup" transform="translate(-30.000000, -17.000000)" fill="#FFFFFF">
            <path d="M44.5806324,31.6890234 C44.5806324,33.7334781 43.9221973,35.1201309 42.6053075,35.8490234 C41.2884177,36.577916 39.5712366,36.9423568 37.4537128,36.9423568 L30.9042969,36.9423568 L30.9042969,18.7290234 L38.2149676,18.7290234 C40.9012478,18.7290234 42.5571791,19.2623514 43.1828111,20.3290234 C43.8084432,21.3956954 44.1212545,22.435685 44.1212545,23.4490234 C44.1212545,24.4623618 43.8084432,25.3267976 43.1828111,26.0423568 C42.5571791,26.7579159 41.6974948,27.2401333 40.6037325,27.4890234 C41.7324952,27.6934689 42.6774917,28.1556865 43.4387502,28.8756901 C44.2000088,29.5956937 44.5806324,30.5334621 44.5806324,31.6890234 L44.5806324,31.6890234 Z M40.1706048,23.7690234 C40.1706048,22.8534633 39.8621684,22.1979143 39.2452865,21.8023568 C38.6284046,21.4067992 37.8605949,21.2090234 36.9418346,21.2090234 L34.7105707,21.2090234 L34.7105707,26.4356901 L36.6268326,26.4356901 C38.2456009,26.4356901 39.2409096,26.1156933 39.6127888,25.4756901 C39.984668,24.8356869 40.1706048,24.2668037 40.1706048,23.7690234 L40.1706048,23.7690234 Z M40.5512322,31.6090234 C40.5512322,29.7067917 39.1774873,28.7556901 36.4299564,28.7556901 L34.7105707,28.7556901 L34.7105707,34.4623568 L36.6005825,34.4623568 C38.3506022,34.4623568 39.4465356,34.1334712 39.8884155,33.4756901 C40.3302955,32.817909 40.5512322,32.195693 40.5512322,31.6090234 L40.5512322,31.6090234 Z M58.9394721,33.7156901 C58.9394721,35.0845858 58.9832219,36.1601306 59.0707229,36.9423568 L55.4613254,36.9423568 L55.3825749,34.8090234 C54.9188196,35.5556938 54.301947,36.1490212 53.5319383,36.5890234 C52.7619296,37.0290256 52.0050575,37.2490234 51.2612991,37.2490234 C49.8175329,37.2490234 48.6647247,36.911249 47.80284,36.2356901 C46.9409553,35.5601312 46.5100194,34.5779188 46.5100194,33.2890234 C46.5100194,31.5823482 47.1881419,30.3445828 48.5444071,29.5756901 C49.9006724,28.8067974 51.6331659,28.4223568 53.7419396,28.4223568 C54.310696,28.4223568 54.848819,28.4401344 55.3563247,28.4756901 L55.3563247,28.0090234 C55.3563247,26.195681 54.3107036,25.2890234 52.2194301,25.2890234 C50.6794128,25.2890234 49.3144179,25.6490198 48.1244045,26.3690234 L47.9669035,23.8356901 C49.5594214,23.2490205 51.1344155,22.9556901 52.691933,22.9556901 C56.8569799,22.9556901 58.9394721,24.7334501 58.9394721,28.2890234 L58.9394721,33.7156901 Z M55.3563247,30.4223568 L54.8706967,30.4223568 C53.5144314,30.4223568 52.5344351,30.535689 51.9306783,30.7623568 C51.3269215,30.9890246 50.8653607,31.271244 50.5459821,31.6090234 C50.2266035,31.9468029 50.0669166,32.3467989 50.0669166,32.8090234 C50.0669166,33.5823606 50.2812908,34.1223552 50.7100457,34.4290234 C51.1388005,34.7356916 51.6462986,34.8890234 52.2325552,34.8890234 C53.3175674,34.8890234 54.1094394,34.5379158 54.608195,33.8356901 C55.1069506,33.1334644 55.3563247,32.2223624 55.3563247,31.1023568 L55.3563247,30.4223568 Z M69.3870374,22.9290234 C69.8332924,22.9290234 70.200791,22.9779118 70.4895443,23.0756901 L70.3845436,26.4623568 C70.0345397,26.3379117 69.5970413,26.2756901 69.0720354,26.2756901 C68.5470295,26.2756901 67.886407,26.5356875 67.090148,27.0556901 C66.2938891,27.5756927 65.8957656,28.8312357 65.8957656,30.8223568 L65.8957656,36.9423568 L62.1813674,36.9423568 L62.1813674,26.2890234 C62.1813674,25.1156842 62.1376175,24.1068054 62.0501165,23.2623568 L65.5413884,23.2623568 L65.6201388,25.9156901 C66.1538949,24.6090169 66.8035799,23.7845807 67.5692135,23.4423568 C68.3348471,23.1001328 68.9407824,22.9290234 69.3870374,22.9290234 L69.3870374,22.9290234 Z M76.7764586,21.5156901 L76.7764586,26.5156901 L83.9427534,26.5156901 L83.9427534,29.2756901 L76.7764586,29.2756901 L76.7764586,36.9423568 L72.7995587,36.9423568 L72.7995587,18.7290234 L84.2708804,18.7290234 L84.2708804,21.5156901 L76.7764586,21.5156901 Z M86.8171463,36.9423568 L86.8171463,17.2490234 L90.5315445,17.2490234 L90.5315445,36.9423568 L86.8171463,36.9423568 Z M100.244105,22.9556901 C102.379129,22.9556901 104.07881,23.5667951 105.3432,24.7890234 C106.607589,26.0112518 107.239774,27.7423456 107.239774,29.9823568 C107.239774,32.222368 106.611964,33.9934614 105.356325,35.2956901 C104.100686,36.5979188 102.37038,37.2490234 100.165355,37.2490234 C97.96033,37.2490234 96.2322114,36.6045854 94.9809474,35.3156901 C93.7296833,34.0267948 93.1040606,32.2712568 93.1040606,30.0490234 C93.1040606,27.8267901 93.7603082,26.0890297 95.0728229,24.8356901 C96.3853377,23.5823505 98.1090812,22.9556901 100.244105,22.9556901 L100.244105,22.9556901 Z M102.547557,26.8623568 C102.070677,25.9734634 101.285367,25.5290234 100.191605,25.5290234 C99.0978426,25.5290234 98.3059706,25.9712412 97.8159651,26.8556901 C97.3259596,27.740139 97.0809605,28.8001284 97.0809605,30.0356901 C97.0809605,32.1068116 97.4550216,33.3979098 98.203155,33.9090234 C98.9512884,34.4201371 99.6140984,34.6756901 100.191605,34.6756901 C100.769111,34.6756901 101.254735,34.5445803 101.648489,34.2823568 C102.042243,34.0201332 102.409742,33.5779154 102.750996,32.9556901 C103.09225,32.3334648 103.262874,31.3823632 103.262874,30.1023568 C103.262874,28.8312393 103.024438,27.7512501 102.547557,26.8623568 L102.547557,26.8623568 Z M126.914272,36.9423568 L122.307368,36.9423568 L119.590476,26.0756901 L116.807959,36.9423568 L112.201055,36.9423568 L108.355406,23.2356901 L112.096054,23.2356901 L114.786696,34.0223568 L117.477338,23.2356901 L121.887366,23.2356901 L124.656758,34.0223568 L127.255524,23.2356901 L130.694296,23.2356901 L126.914272,36.9423568 Z" id="BarFlow" sketch:type="MSShapeGroup"></path>
        </g>
    </g>
</svg>