<?xml version="1.0" encoding="UTF-8" standalone="no"?>
<svg width="127px" height="20px" viewBox="0 0 127 20" version="1.1" xmlns="http://www.w3.org/2000/svg" xmlns:xlink="http://www.w3.org/1999/xlink" xmlns:sketch="http://www.bohemiancoding.com/sketch/ns">
    <!-- Generator: Sketch 3.3.2 (12043) - http://www.bohemiancoding.com/sketch -->
    <title>Logo</title>
    <desc>Created with Sketch.</desc>
    <defs></defs>
    <g id="Page-1" stroke="none" stroke-width="1" fill="none" fill-rule="evenodd" sketch:type="MSPage">
        <g id="Desktop-HD" sketch:type="MSArtboardGroup" transform="translate(-31.000000, -17.000000)" fill="#FFFFFF">
            <g id="Header" sketch:type="MSLayerGroup">
                <path d="M34.8623047,23.0761719 C34.8623047,23.6770863 35.122556,24.1595034 35.6430664,24.5234375 C36.1635768,24.8873716 36.7877568,25.2047513 37.515625,25.4755859 L39.3818359,26.1992188 C40.6767643,26.7154974 41.6648729,27.329098 42.3461914,28.0400391 C43.0275099,28.7509801 43.3681641,29.6650335 43.3681641,30.7822266 C43.3681641,31.8909561 43.167157,32.7775032 42.7651367,33.4418945 C42.3631165,34.1062859 41.6902716,34.7473927 40.746582,35.3652344 C39.8028924,35.983076 38.3619889,36.2919922 36.4238281,36.2919922 C34.4856674,36.2919922 32.7252683,36.0380885 31.1425781,35.5302734 L31.2695312,32.5722656 C32.5983139,33.2662795 34.219066,33.6132812 36.1318359,33.6132812 C37.596036,33.6132812 38.5164369,33.3255237 38.8930664,32.75 C39.2696959,32.1744763 39.4580078,31.6878275 39.4580078,31.2900391 C39.4580078,30.8922506 39.3543305,30.5642917 39.1469727,30.3061523 C38.9396148,30.048013 38.6857111,29.815268 38.3852539,29.6079102 C38.0847967,29.4005523 37.752606,29.218588 37.3886719,29.0620117 C37.0247378,28.9054354 36.6861995,28.7552091 36.3730469,28.6113281 L34.5957031,27.8369141 C32.2089724,26.8551383 31.015625,25.3655699 31.015625,23.3681641 C31.015625,21.6331293 31.7180919,20.3720742 33.1230469,19.5849609 C34.5280018,18.7978476 36.0895096,18.4042969 37.8076172,18.4042969 C39.5257247,18.4042969 41.0660739,18.5862612 42.4287109,18.9501953 L42.3017578,21.8066406 C41.1253196,21.2988256 39.7923252,21.0449219 38.3027344,21.0449219 C36.8131436,21.0449219 35.8673523,21.292478 35.465332,21.7875977 C35.0633118,22.2827173 34.8623047,22.7122378 34.8623047,23.0761719 L34.8623047,23.0761719 Z M46.65625,31.6582031 L46.65625,25.3105469 L44.3203125,25.3105469 L44.3203125,22.9492188 L46.65625,22.9492188 L46.65625,20.2958984 L50.2490234,19.1279297 L50.2490234,22.9492188 L53.15625,22.9492188 L53.15625,25.3105469 L50.2490234,25.3105469 L50.2490234,31.7089844 C50.2490234,32.2675809 50.3484691,32.7373028 50.5473633,33.1181641 C50.7462575,33.4990253 51.1249972,33.6894531 51.6835938,33.6894531 C52.2421903,33.6894531 52.7584612,33.5921234 53.2324219,33.3974609 L53.3339844,35.796875 C52.3268179,36.1269548 51.3916059,36.2919922 50.5283203,36.2919922 C49.0218024,36.2919922 47.9998399,35.9005573 47.4624023,35.1176758 C46.9249648,34.3347943 46.65625,33.1816482 46.65625,31.6582031 L46.65625,31.6582031 Z M61.6494141,22.6826172 C63.7145286,22.6826172 65.3585551,23.2644799 66.581543,24.4282227 C67.8045309,25.5919655 68.4160156,27.2402237 68.4160156,29.3730469 C68.4160156,31.50587 67.8087626,33.1922139 66.5942383,34.4321289 C65.379714,35.672044 63.7060654,36.2919922 61.5732422,36.2919922 C59.440419,36.2919922 57.7688863,35.6783916 56.5585938,34.4511719 C55.3483012,33.2239522 54.7431641,31.5524194 54.7431641,29.4365234 C54.7431641,27.3206274 55.3779233,25.6660216 56.6474609,24.4726562 C57.9169985,23.2792909 59.5842996,22.6826172 61.6494141,22.6826172 L61.6494141,22.6826172 Z M63.8774414,26.4023438 C63.4161761,25.5559854 62.6565808,25.1328125 61.5986328,25.1328125 C60.5406848,25.1328125 59.774742,25.5538695 59.3007812,26.3959961 C58.8268205,27.2381227 58.5898438,28.24739 58.5898438,29.4238281 C58.5898438,31.3958432 58.9516565,32.6251603 59.675293,33.1118164 C60.3989294,33.5984725 61.0400363,33.8417969 61.5986328,33.8417969 C62.1572294,33.8417969 62.6269512,33.7169609 63.0078125,33.4672852 C63.3886738,33.2176094 63.744139,32.7965524 64.0742188,32.2041016 C64.4042985,31.6116507 64.5693359,30.7060608 64.5693359,29.4873047 C64.5693359,28.2770122 64.3387067,27.2487021 63.8774414,26.4023438 L63.8774414,26.4023438 Z M70.1552734,29.4619141 C70.1552734,27.3714088 70.7963803,25.7189188 72.0786133,24.5043945 C73.3608463,23.2898702 75.0598853,22.6826172 77.1757812,22.6826172 C78.462246,22.6826172 79.6979107,22.8645815 80.8828125,23.2285156 L80.7304688,25.7802734 C79.8079381,25.3486307 78.9700558,25.1328125 78.2167969,25.1328125 C76.8626234,25.1328125 75.8216182,25.5242474 75.09375,26.3071289 C74.3658818,27.0900104 74.0019531,28.124668 74.0019531,29.4111328 C74.0019531,30.6975976 74.3574183,31.7576456 75.0683594,32.5913086 C75.7793004,33.4249716 76.6933538,33.8417969 77.8105469,33.8417969 C78.92774,33.8417969 79.9179644,33.6259787 80.78125,33.1943359 L80.9208984,35.7460938 C79.8460233,36.1100279 78.665371,36.2919922 77.3789062,36.2919922 C75.0260299,36.2919922 73.2338929,35.6762757 72.0024414,34.4448242 C70.7709899,33.2133727 70.1552734,31.5524193 70.1552734,29.4619141 L70.1552734,29.4619141 Z M86.8623047,36 L83.2695312,36 L83.2695312,17.2490234 L86.8623047,17.2490234 L86.8623047,28.3066406 L91.5849609,22.9492188 L95.7744141,22.9492188 L90.4677734,28.7763672 L96.2949219,36 L91.9277344,36 L86.8623047,29.3730469 L86.8623047,36 Z M101.677734,36 L98.2753906,36 L98.2753906,18.6582031 L104.013672,18.6582031 L108.571289,31.8359375 L113.06543,18.6582031 L118.803711,18.6582031 L118.803711,36 L115.274414,36 L115.249023,21.1337891 L110.145508,36 L106.768555,36 L101.677734,21.1337891 L101.677734,36 Z M133.416016,32.9277344 C133.416016,34.2311263 133.458333,35.2552046 133.542969,36 L130.051758,36 L129.975586,33.96875 C129.527016,34.6796911 128.930342,35.2446268 128.185547,35.6635742 C127.440751,36.0825216 126.708662,36.2919922 125.989258,36.2919922 C124.592766,36.2919922 123.477706,35.9703808 122.644043,35.3271484 C121.81038,34.6839161 121.393555,33.7487041 121.393555,32.5214844 C121.393555,30.8964762 122.049473,29.7179399 123.361328,28.9858398 C124.673184,28.2537398 126.348948,27.8876953 128.388672,27.8876953 C128.938805,27.8876953 129.459307,27.9046222 129.950195,27.9384766 L129.950195,27.4941406 C129.950195,25.7675695 128.938812,24.9042969 126.916016,24.9042969 C125.426425,24.9042969 124.106126,25.2470669 122.955078,25.9326172 L122.802734,23.5205078 C124.343107,22.9619113 125.866529,22.6826172 127.373047,22.6826172 C131.401713,22.6826172 133.416016,24.3753086 133.416016,27.7607422 L133.416016,32.9277344 Z M129.950195,29.7919922 L129.480469,29.7919922 C128.168613,29.7919922 127.220706,29.8999013 126.636719,30.1157227 C126.052731,30.331544 125.606284,30.6002588 125.297363,30.921875 C124.988442,31.2434912 124.833984,31.6243468 124.833984,32.0644531 C124.833984,32.8007849 125.041339,33.3149399 125.456055,33.6069336 C125.87077,33.8989272 126.361651,34.0449219 126.928711,34.0449219 C127.978195,34.0449219 128.744138,33.7106153 129.226562,33.0419922 C129.708987,32.3733691 129.950195,31.5058647 129.950195,30.4394531 L129.950195,29.7919922 Z M137.567383,31.6582031 L137.567383,25.3105469 L135.231445,25.3105469 L135.231445,22.9492188 L137.567383,22.9492188 L137.567383,20.2958984 L141.160156,19.1279297 L141.160156,22.9492188 L144.067383,22.9492188 L144.067383,25.3105469 L141.160156,25.3105469 L141.160156,31.7089844 C141.160156,32.2675809 141.259602,32.7373028 141.458496,33.1181641 C141.65739,33.4990253 142.03613,33.6894531 142.594727,33.6894531 C143.153323,33.6894531 143.669594,33.5921234 144.143555,33.3974609 L144.245117,35.796875 C143.237951,36.1269548 142.302739,36.2919922 141.439453,36.2919922 C139.932935,36.2919922 138.910973,35.9005573 138.373535,35.1176758 C137.836098,34.3347943 137.567383,33.1816482 137.567383,31.6582031 L137.567383,31.6582031 Z M147.368164,34.4829102 C146.22558,33.2768494 145.654297,31.6455181 145.654297,29.5888672 C145.654297,27.5322163 146.242507,25.8670311 147.418945,24.5932617 C148.595383,23.3194923 150.156891,22.6826172 152.103516,22.6826172 C154.05014,22.6826172 155.497391,23.3067971 156.445312,24.5551758 C157.393234,25.8035544 157.867188,27.477203 157.867188,29.5761719 L157.867188,30.3886719 L149.208984,30.3886719 C149.208984,31.5143285 149.585608,32.4051074 150.338867,33.0610352 C151.092126,33.7169629 152.014643,34.0449219 153.106445,34.0449219 C154.62989,34.0449219 155.941726,33.7529326 157.041992,33.1689453 L157.194336,35.5810547 C155.88248,36.0550154 154.202484,36.2919922 152.154297,36.2919922 C150.10611,36.2919922 148.510748,35.6889709 147.368164,34.4829102 L147.368164,34.4829102 Z M154.591797,28.4589844 C154.591797,26.8847578 154.287112,25.8881857 153.677734,25.4692383 C153.068356,25.0502909 152.518232,24.8408203 152.027344,24.8408203 C151.130204,24.8408203 150.4362,25.2174442 149.945312,25.9707031 C149.454425,26.7239621 149.208984,27.5533809 149.208984,28.4589844 L154.591797,28.4589844 Z" id="Logo" sketch:type="MSShapeGroup"></path>
            </g>
        </g>
    </g>
</svg>