<?xml version="1.0" encoding="UTF-8"?>
<svg width="580px" height="156px" viewBox="0 0 580 156" version="1.1" xmlns="http://www.w3.org/2000/svg" xmlns:xlink="http://www.w3.org/1999/xlink">
    <!-- Generator: Sketch 3.8.1 (29687) - http://www.bohemiancoding.com/sketch -->
    <title>logo</title>
    <desc>Created with Sketch.</desc>
    <defs></defs>
    <g id="Logos" stroke="none" stroke-width="1" fill="none" fill-rule="evenodd">
        <g id="inline-light" transform="translate(-24.000000, -17.000000)" fill="#FFFFFF">
            <g id="logo" transform="translate(24.000000, 17.000000)">
                <g id="Group">
                    <path d="M78,51.7 C76.3,47.8 71.1,42.9 70.3,41.7 C69.5,40.5 68.9,38.6 68.9,36 C68.9,33.4 68,9.5 68,9.5 C68,8.7 68.4,9 68.4,8.6 L68.4,6.6 L68.4,5 C68.4,4.4 67.9,4.4 67.9,4.4 L67.9,2.6 C67.9,1.2 66.5,0.9 65.8,0.7 C65.2,0.5 61,0.4 60.7,0.4 L60.7,0.4 L25.8,0.6 L25.8,0.6 L25.8,0.6 C24.6,0.6 23.6,1.6 23.6,2.8 C23.6,4 24.6,5 25.8,5 L25.8,5 L60.4,5 L60.4,5 L60.4,5 C61.6,5 62.6,6 62.6,7.2 C62.6,8.4 61.6,9.4 60.4,9.4 L60.4,9.4 L60.4,9.4 L34.7,9.4 L34.7,9.4 C33.5,9.4 32.5,10.4 32.5,11.6 C32.5,12.8 33.5,13.8 34.7,13.8 L34.7,13.8 L62.7,13.8 L62.7,13.8 L62.7,13.8 C63.9,13.8 64.9,14.8 64.9,16 C64.9,17.2 63.9,18.2 62.7,18.2 L62.7,18.2 L62.7,18.2 L45.7,18.2 L45.7,18.2 C44.5,18.2 43.5,19.2 43.5,20.4 C43.5,21.6 44.5,22.6 45.7,22.6 L45.7,22.6 L58.9,22.6 L58.9,22.6 L58.9,22.6 C60.1,22.6 61.1,23.6 61.1,24.8 C61.1,26 60.1,27 58.9,27 L58.9,27 L58.9,27 L38.7,27 L38.7,27 C37.5,27 36.5,28 36.5,29.2 C36.5,30.4 37.5,31.4 38.7,31.4 L38.7,31.4 L59.7,31.4 L59.7,31.4 L59.7,31.4 C60.9,31.4 61.9,32.4 61.9,33.6 C61.9,34.8 60.9,35.8 59.7,35.8 L59.7,35.8 L59.7,35.8 L16.3,35.8 L16.3,35.8 L16.3,35.8 C15.1,35.8 14.1,36.8 14.1,38 C14.1,39.2 15.1,40.2 16.3,40.2 L16.3,40.2 L52.6,40.2 L52.6,40.2 L52.6,40.2 C53.8,40.2 54.8,41.2 54.8,42.4 C54.8,43.6 53.8,44.6 52.6,44.6 L52.6,44.6 L52.6,44.6 L27.2,44.6 L27.2,44.6 C26,44.6 25,45.6 25,46.8 C25,48 26,49 27.2,49 L27.2,49 L59.7,49 L59.7,49 L59.7,49 C60.9,49 61.9,50 61.9,51.2 C61.9,52.4 60.9,53.4 59.7,53.4 L59.7,53.4 L59.7,53.4 L21.2,53.4 L21.2,53.4 L21.2,53.4 C20,53.4 19,54.4 19,55.6 C19,56.8 20,57.8 21.2,57.8 L21.2,57.8 L45.6,57.8 L45.6,57.8 L45.6,57.8 C46.8,57.8 47.8,58.8 47.8,60 C47.8,61.2 46.8,62.2 45.6,62.2 L45.6,62.2 L45.6,62.2 L32.9,62.2 L32.9,62.2 C31.7,62.2 30.7,63.2 30.7,64.4 C30.7,65.6 31.7,66.6 32.9,66.6 L32.9,66.6 L53.3,66.6 L53.3,66.6 L53.3,66.6 C54.5,66.6 55.5,67.6 55.5,68.8 C55.5,70 54.5,71 53.3,71 L53.3,71 L53.3,71 L24.6,71 L24.6,71 C23.4,71 22.4,72 22.4,73.2 C22.4,74.4 23.4,75.4 24.6,75.4 L24.6,75.4 L24.6,75.4 L56.5,75.5 L56.5,75.5 L56.5,75.5 C57.7,75.5 58.7,76.5 58.7,77.7 C58.7,78.9 57.7,79.9 56.5,79.9 L56.5,79.9 L56.5,79.9 L9.1,80 L9.1,80 L9.1,80 C7.9,80 6.9,81 6.9,82.2 C6.9,83.4 7.9,84.4 9.1,84.4 L9.1,84.4 L9.1,84.4 L64.7,84.5 L64.7,84.5 L64.7,84.5 C65.9,84.5 66.9,85.5 66.9,86.7 C66.9,87.9 65.9,88.9 64.7,88.9 L64.7,88.9 L64.7,88.9 L38.2,89 L38.2,89 L38.2,89 C37,89 36,90 36,91.2 C36,92.3 36.9,93.3 37.9,93.4 L59.7,93.4 L59.7,93.4 L59.7,93.4 L60,93.4 C61.1,93.5 61.9,94.5 61.9,95.6 C61.9,96.8 60.9,97.8 59.7,97.8 L59.7,97.8 L59.7,97.8 L21.2,97.8 L21.2,97.8 L21.2,97.8 C20,97.8 19,98.8 19,100 C19,101.2 20,102.2 21.2,102.2 L21.2,102.2 L21.2,102.2 L59.7,102.2 L59.7,102.2 L59.7,102.2 C60.9,102.2 61.9,103.2 61.9,104.4 C61.9,105.6 60.9,106.6 59.7,106.6 L59.7,106.6 L59.7,106.6 L14.1,106.6 L14.1,106.6 L14.1,106.6 C12.9,106.6 11.9,107.6 11.9,108.8 C11.9,110 12.9,111 14.1,111 L14.1,111 L14.1,111 L54.4,111 L54.4,111 L54.4,111 C55.6,111 56.6,112 56.6,113.2 C56.6,114.4 55.6,115.4 54.4,115.4 L54.4,115.4 L54.4,115.4 L24.6,115.4 L24.6,115.4 L24.6,115.4 C23.4,115.4 22.4,116.4 22.4,117.6 C22.4,118.8 23.4,119.8 24.6,119.8 L24.6,119.8 L24.6,119.8 L58.9,119.8 L58.9,119.8 L58.9,119.8 C60.1,119.8 61.1,120.8 61.1,122 C61.1,123.2 60.1,124.2 59,124.2 C59,124.2 59,124.2 58.9,124.2 L58.9,124.2 L58.9,124.2 L34,124.2 C32.8,124.2 31.9,125.2 31.9,126.4 C31.9,127.6 32.9,128.6 34.1,128.6 L34.1,128.6 L34.1,128.6 L50.4,128.6 L50.4,128.6 L50.4,128.6 C51.6,128.6 52.6,129.6 52.6,130.8 C52.6,132 51.6,133 50.4,133 L50.4,133 L50.4,133 L50.4,133 L21.9,133 L21.9,133 L21.9,133 L21.9,133 C20.7,133 19.7,134 19.7,135.2 C19.7,136.4 20.7,137.4 21.9,137.4 L21.9,137.4 L21.9,137.4 L64.6,137.4 L64.6,137.4 L64.6,137.4 C65.8,137.4 66.8,138.4 66.8,139.6 C66.8,140.8 65.8,141.8 64.6,141.8 L64.6,141.8 L64.6,141.8 L64.6,141.8 L27.2,141.8 C26,141.8 25,142.8 25,144 C25,145.2 26,146.2 27.2,146.2 L27.2,146.2 L27.2,146.2 L57.5,146.2 L57.5,146.2 L57.5,146.2 C58.7,146.2 59.7,147.2 59.7,148.4 C59.7,149.6 58.7,150.6 57.5,150.6 L57.5,150.6 L57.5,150.6 L38.1,150.6 L38.1,150.6 L38.1,150.6 C36.9,150.6 35.9,151.6 35.9,152.8 C35.9,154 36.9,155 38.1,155 L38.1,155 L38.1,155 L49.1,155 L59.1,155 L72.1,155 C75.1,154.9 77,154 78.1,152.9 C80,151.1 80.1,148.7 80.1,147.6 L80.1,143.5 L80.1,64 C80.2,58.5 79.6,55.7 78,51.7 L78,51.7 Z" id="Shape"></path>
                    <circle id="Oval" cx="17.6" cy="73.3" r="2.2"></circle>
                    <circle id="Oval" cx="18.8" cy="2.7" r="2.2"></circle>
                    <path d="M6.9,40.2 L6.9,40.2 L6.9,40.2 L8.7,40.2 C9.9,40.2 10.9,39.2 10.9,38 C10.9,36.8 9.9,35.8 8.7,35.8 L8.7,35.8 L8.7,35.8 L6.9,35.8 L6.9,35.8 L6.9,35.8 C5.7,35.8 4.7,36.8 4.7,38 C4.7,39.2 5.7,40.2 6.9,40.2 L6.9,40.2 Z" id="Shape"></path>
                    <path d="M4.7,106.6 C4.7,106.6 4.7,106.7 4.7,106.6 L4.7,106.6 L2.9,106.6 L2.9,106.6 L2.9,106.6 C1.7,106.6 0.7,107.6 0.7,108.8 C0.7,110 1.7,111 2.9,111 L2.9,111 L2.9,111 L4.7,111 C5.9,111 6.9,110 6.9,108.8 C6.9,107.6 5.9,106.6 4.7,106.6 L4.7,106.6 Z" id="Shape"></path>
                    <path d="M30,150.8 L30,150.8 L30,150.8 L28.2,150.8 L28.2,150.8 L28.2,150.8 C27,150.8 26,151.8 26,153 C26,154.2 27,155.2 28.2,155.2 L28.2,155.2 L28.2,155.2 L30,155.2 C31.2,155.2 32.2,154.2 32.2,153 C32.2,151.8 31.2,150.8 30,150.8 L30,150.8 Z" id="Shape"></path>
                    <path d="M29.1,126.5 C29.1,125.3 28.1,124.3 26.9,124.3 C26.9,124.3 26.9,124.3 26.8,124.3 C26.7,124.3 26.8,124.3 26.7,124.3 C25.5,124.3 24.5,125.3 24.5,126.5 C24.5,127.7 25.5,128.7 26.7,128.7 C27.9,128.7 29.1,127.7 29.1,126.5 L29.1,126.5 Z" id="Shape"></path>
                </g>
                <g id="Group" transform="translate(101.000000, 37.000000)">
                    <path d="M41,40.3 C52.8,44.3 52.4,55.8 52.4,55.8 C52.4,76.5 31.1,77.5 26.1,77.5 L1.9,77.5 C1.3,77.5 0.8,77.1 0.8,76.6 L0.8,3.9 C0.8,3.5 1.2,3 1.9,3 L26.1,3 C26.1,3 51.3,2.5 51.3,24.3 C51.3,33.1 46.7,38 41,40.3 L41,40.3 Z M15,33.4 L26.2,33.4 C26.2,33.4 37.1,33.4 37.1,25.2 C37.1,16.3 26.2,16.4 26.2,16.4 L15,16.4 L15,33.4 L15,33.4 Z M38.2,55.5 C38.2,46.7 26.2,47.3 26.2,47.3 L15,47.3 L15,63.9 L26.2,63.9 C30.8,63.9 38.2,62.6 38.2,55.5 L38.2,55.5 Z" id="Shape"></path>
                    <path d="M99.7,69.1 L75.6,69.1 L72.7,77 C72.6,77.3 72.2,77.5 71.7,77.5 L58.6,77.5 C57.7,77.5 57.3,77 57.6,76.3 L86.6,1.5 C86.9,0.8 88.2,0.8 88.5,1.5 L117.5,76.3 C117.8,76.9 117.4,77.5 116.6,77.5 L103.4,77.5 C103.1,77.5 102.7,77.3 102.5,77 L99.7,69.1 L99.7,69.1 Z M80.2,56.6 L95.2,56.6 L87.8,34.3 L80.2,56.6 L80.2,56.6 Z" id="Shape"></path>
                    <path d="M147.8,47.4 L139.8,47.4 L139.8,76.6 C139.8,77 139.4,77.5 138.7,77.5 L126.6,77.5 C126.1,77.5 125.6,77.1 125.6,76.6 L125.6,3.9 C125.6,3.5 126,3 126.6,3 L150.6,3 C154.9,3 175.8,3.2 175.8,25.1 C175.8,36.5 169.5,42.4 162.1,45.1 C166.8,55.6 171.8,65.8 176.5,76.2 C176.8,76.8 176.4,77.4 175.6,77.4 L162.3,77.4 C162,77.4 161.4,77.1 161.3,76.9 L147.8,47.4 L147.8,47.4 Z M139.8,33.8 L150.6,33.8 C153.7,33.8 161.7,33.4 161.7,25.2 C161.7,17 152.9,16.6 150.6,16.6 L139.8,16.6 L139.8,33.8 L139.8,33.8 Z" id="Shape"></path>
                    <path d="M203.6,16.9 L203.6,33.7 L232.8,33.7 C233.3,33.7 233.8,34.1 233.8,34.6 L233.8,46.4 C233.8,46.8 233.4,47.3 232.8,47.3 L203.6,47.3 L203.6,76.7 C203.6,77.1 203.2,77.6 202.5,77.6 L190.4,77.6 C189.8,77.6 189.3,77.2 189.3,76.7 L189.3,3.9 C189.3,3.5 189.7,3 190.4,3 L238.9,3 C239.5,3 240,3.4 240,3.9 L240,16 C240,16.4 239.6,16.9 238.9,16.9 L203.6,16.9 L203.6,16.9 Z" id="Shape"></path>
                    <path d="M290.7,63.8 C291.3,63.8 291.8,64.2 291.8,64.7 L291.8,76.7 C291.8,77.1 291.4,77.6 290.7,77.6 L252,77.6 C251.4,77.6 250.9,77.2 250.9,76.7 L250.9,3.9 C250.9,3.5 251.3,3 252,3 L264,3 C264.6,3 265.1,3.4 265.1,3.9 L265.1,63.8 L290.7,63.8 L290.7,63.8 Z" id="Shape"></path>
                    <path d="M370.7,40.2 C370.7,59.2 358.4,78.5 334,78.5 C309.2,78.5 297.1,59.3 297.1,40.2 C297.1,21.2 309.2,2 334,2 C358.3,2 370.7,21.2 370.7,40.2 L370.7,40.2 Z M356.3,40.4 C356.3,28 348.8,15.5 334,15.5 C319,15.5 311.6,27.9 311.6,40.4 C311.6,52.7 319,65.1 334,65.1 C348.8,65.1 356.3,52.7 356.3,40.4 L356.3,40.4 Z" id="Shape"></path>
                    <path d="M449.7,79.8 C449.4,80.5 448.2,80.5 447.9,79.8 L426.2,22.3 L404.6,79.8 C404.3,80.5 403,80.5 402.7,79.8 L374,4.3 C373.7,3.7 374.2,3.1 375,3.1 L388,3.1 C388.4,3.1 388.9,3.3 389,3.6 L403.8,45.1 L418.8,3.6 C418.9,3.3 419.2,3.1 419.7,3.1 L433.1,3.1 C433.5,3.1 434,3.3 434.1,3.6 L449,45.1 L464,3.6 C464.1,3.3 464.5,3.1 465,3.1 L478,3.1 C478.9,3.1 479.2,3.6 478.9,4.3 L449.7,79.8 L449.7,79.8 Z" id="Shape"></path>
                </g>
            </g>
        </g>
    </g>
</svg>