<?xml version="1.0" encoding="UTF-8" standalone="no"?>
<svg width="375px" height="375px" viewBox="0 0 375 375" version="1.1" xmlns="http://www.w3.org/2000/svg" xmlns:xlink="http://www.w3.org/1999/xlink" xmlns:sketch="http://www.bohemiancoding.com/sketch/ns">
    <!-- Generator: Sketch 3.3.2 (12043) - http://www.bohemiancoding.com/sketch -->
    <title>tap_swipe_light_gray_small-22bef3788c4e7d4d49ea06cb62a34192</title>
    <desc>Created with Sketch.</desc>
    <defs>
        <circle id="path-1" cx="187.5" cy="187.5" r="187.5"></circle>
        <path id="path-3" d="M119.581,0.703 C53.584,0.703 0.083,54.205 0.083,120.202 C0.083,186.199 53.584,239.7 119.581,239.7 L298.803,239.7 L298.803,0.703 L119.581,0.703"></path>
    </defs>
    <g id="Page-1" stroke="none" stroke-width="1" fill="none" fill-rule="evenodd" sketch:type="MSPage">
        <g id="Desktop-HD" sketch:type="MSArtboardGroup" transform="translate(-864.000000, -2311.000000)">
            <g id="Delivery-check" sketch:type="MSLayerGroup" transform="translate(0.000000, 2272.000000)">
                <g id="tap_swipe_light_gray_small-22bef3788c4e7d4d49ea06cb62a34192" transform="translate(864.000000, 39.000000)">
                    <mask id="mask-2" sketch:name="Mask" fill="white">
                        <use xlink:href="#path-1"></use>
                    </mask>
                    <use id="Mask" fill="#D8D8D8" sketch:type="MSShapeGroup" xlink:href="#path-1"></use>
                    <rect id="Rectangle-5" fill="#6D97D6" sketch:type="MSShapeGroup" mask="url(#mask-2)" x="-43" y="78" width="460" height="210">
                        <g transform="translate(187.000000, 183.000000) rotate(-180.000000) translate(-187.000000, -183.000000) "></g>
                    </rect>
                    <rect id="Rectangle-6" fill="#606060" sketch:type="MSShapeGroup" mask="url(#mask-2)" x="-4" y="266" width="387" height="27"></rect>
                    <g id="Group-197" mask="url(#mask-2)">
                        <g transform="translate(58.000000, 78.000000)">
                            <mask id="mask-4" sketch:name="Clip 173" fill="white">
                                <use xlink:href="#path-3"></use>
                            </mask>
                            <g id="Clip-173"></g>
                            <path d="M155.011,71.989 L155.011,171.728 L248.454,171.728 L248.454,156.154 L262.371,156.154 L262.371,129.314 C262.371,129.314 251.767,120.367 236.194,116.723 C236.194,116.723 217.969,84.581 211.673,79.279 C211.673,79.279 203.389,73.646 155.011,71.989" id="Fill-174" stroke="none" fill="#E8E8E3" fill-rule="evenodd" sketch:type="MSShapeGroup" mask="url(#mask-4)"></path>
                            <path d="M49.64,140.912 L49.64,149.196 L39.367,149.196 L39.367,171.728 L155.011,171.728 L155.011,148.864 L132.81,148.864 L132.81,137.929 L48.977,137.929 L49.64,140.912" id="Fill-175" stroke="none" fill="#4C4C49" fill-rule="evenodd" sketch:type="MSShapeGroup" mask="url(#mask-4)"></path>
                            <path d="M148.844,177.03 L110.149,177.03 C106.743,177.03 103.982,174.269 103.982,170.863 L103.982,165.966 C103.982,162.56 106.743,159.799 110.149,159.799 L148.844,159.799 C152.25,159.799 155.011,162.56 155.011,165.966 L155.011,170.863 C155.011,174.269 152.25,177.03 148.844,177.03" id="Fill-176" stroke="none" fill="#393A38" fill-rule="evenodd" sketch:type="MSShapeGroup" mask="url(#mask-4)"></path>
                            <path d="M252.531,171.728 C252.677,170.588 252.761,169.428 252.761,168.249 C252.761,153.334 240.671,141.243 225.756,141.243 C210.841,141.243 198.75,153.334 198.75,168.249 C198.75,169.428 198.834,170.588 198.981,171.728 L252.531,171.728" id="Fill-177" stroke="none" fill="#222321" fill-rule="evenodd" sketch:type="MSShapeGroup" mask="url(#mask-4)"></path>
                            <path d="M103.751,171.728 C103.898,170.588 103.982,169.428 103.982,168.249 C103.982,153.334 91.891,141.243 76.976,141.243 C62.062,141.243 49.971,153.334 49.971,168.249 C49.971,169.428 50.055,170.588 50.202,171.728 L103.751,171.728" id="Fill-178" stroke="none" fill="#222321" fill-rule="evenodd" sketch:type="MSShapeGroup" mask="url(#mask-4)"></path>
                            <path d="M246.134,168.249 C246.134,179.503 237.01,188.627 225.756,188.627 C214.501,188.627 205.377,179.503 205.377,168.249 C205.377,156.994 214.501,147.87 225.756,147.87 C237.01,147.87 246.134,156.994 246.134,168.249" id="Fill-179" stroke="none" fill="#393A38" fill-rule="evenodd" sketch:type="MSShapeGroup" mask="url(#mask-4)"></path>
                            <path d="M235.734,168.249 C235.734,173.76 231.267,178.227 225.756,178.227 C220.245,178.227 215.777,173.76 215.777,168.249 C215.777,162.738 220.245,158.27 225.756,158.27 C231.267,158.27 235.734,162.738 235.734,168.249" id="Fill-180" stroke="none" fill="#E8E8E3" fill-rule="evenodd" sketch:type="MSShapeGroup" mask="url(#mask-4)"></path>
                            <path d="M96.858,168.249 C96.858,179.229 87.957,188.13 76.976,188.13 C65.996,188.13 57.095,179.229 57.095,168.249 C57.095,157.268 65.996,148.367 76.976,148.367 C87.957,148.367 96.858,157.268 96.858,168.249" id="Fill-181" stroke="none" fill="#393A38" fill-rule="evenodd" sketch:type="MSShapeGroup" mask="url(#mask-4)"></path>
                            <path d="M87.949,168.249 C87.949,174.309 83.036,179.221 76.976,179.221 C70.916,179.221 66.004,174.309 66.004,168.249 C66.004,162.189 70.916,157.276 76.976,157.276 C83.036,157.276 87.949,162.189 87.949,168.249" id="Fill-182" stroke="none" fill="#E8E8E3" fill-rule="evenodd" sketch:type="MSShapeGroup" mask="url(#mask-4)"></path>
                            <path d="M263.282,173.426 L247.832,173.426 L247.832,155.491 L263.282,155.491 C265.249,155.491 266.844,157.086 266.844,159.054 L266.844,169.864 C266.844,171.831 265.249,173.426 263.282,173.426" id="Fill-183" stroke="none" fill="#C4C3BF" fill-rule="evenodd" sketch:type="MSShapeGroup" mask="url(#mask-4)"></path>
                            <path d="M49.971,172.805 L38.414,172.805 C36.584,172.805 35.101,171.322 35.101,169.492 L35.101,158.141 C35.101,156.312 36.584,154.829 38.414,154.829 L49.971,154.829 L49.971,172.805" id="Fill-184" stroke="none" fill="#C4C3BF" fill-rule="evenodd" sketch:type="MSShapeGroup" mask="url(#mask-4)"></path>
                            <path d="M39.513,154.829 L39.305,154.829 C38.656,154.829 38.125,154.298 38.125,153.649 L38.125,150.044 C38.125,149.395 38.656,148.864 39.305,148.864 L39.513,148.864 C40.162,148.864 40.693,149.395 40.693,150.044 L40.693,153.649 C40.693,154.298 40.162,154.829 39.513,154.829" id="Fill-185" stroke="none" fill="#DB3638" fill-rule="evenodd" sketch:type="MSShapeGroup" mask="url(#mask-4)"></path>
                            <path d="M209.922,85.492 L216.961,85.492 C216.961,85.492 234.205,111.172 236.194,116.723 L222.244,116.723 C221.506,116.723 220.835,116.294 220.524,115.625 L207.962,88.562 C207.297,87.13 208.343,85.492 209.922,85.492" id="Fill-186" stroke="none" fill="#6797BD" fill-rule="evenodd" sketch:type="MSShapeGroup" mask="url(#mask-4)"></path>
                            <path d="M215.795,114.121 L204.557,87.476 C204.05,86.274 202.872,85.492 201.568,85.492 L179.159,85.492 C177.626,85.492 176.384,86.735 176.384,88.267 L176.384,113.947 C176.384,115.48 177.626,116.723 179.159,116.723 L214.068,116.723 C215.409,116.723 216.316,115.356 215.795,114.121" id="Fill-187" stroke="none" fill="#6797BD" fill-rule="evenodd" sketch:type="MSShapeGroup" mask="url(#mask-4)"></path>
                            <path d="M188.796,127.326 L178.758,127.326 C178.067,127.326 177.502,126.761 177.502,126.07 L177.502,125.848 C177.502,125.158 178.067,124.592 178.758,124.592 L188.796,124.592 C189.487,124.592 190.052,125.158 190.052,125.848 L190.052,126.07 C190.052,126.761 189.487,127.326 188.796,127.326" id="Fill-188" stroke="none" fill="#C4C3BF" fill-rule="evenodd" sketch:type="MSShapeGroup" mask="url(#mask-4)"></path>
                            <path d="M255.275,149.444 L255.053,149.444 C254.362,149.444 253.797,148.879 253.797,148.188 L253.797,139.268 C253.797,138.577 254.362,138.012 255.053,138.012 L255.275,138.012 C255.965,138.012 256.531,138.577 256.531,139.268 L256.531,148.188 C256.531,148.879 255.965,149.444 255.275,149.444" id="Fill-189" stroke="none" fill="#F1A84F" fill-rule="evenodd" sketch:type="MSShapeGroup" mask="url(#mask-4)"></path>
                            <path d="M262.371,136.944 C259.872,137.199 257.897,139.301 257.897,141.864 L257.897,147.207 C257.897,149.771 259.872,151.873 262.371,152.127 L262.371,136.944" id="Fill-190" stroke="none" fill="#C4C3BF" fill-rule="evenodd" sketch:type="MSShapeGroup" mask="url(#mask-4)"></path>
                            <path d="M160.214,168.414 L160.08,168.414 C159.661,168.414 159.319,168.072 159.319,167.653 L159.319,78.715 C159.319,78.296 159.661,77.954 160.08,77.954 L160.214,77.954 C160.633,77.954 160.975,78.296 160.975,78.715 L160.975,167.653 C160.975,168.072 160.633,168.414 160.214,168.414" id="Fill-191" stroke="none" fill="#C4C3BF" fill-rule="evenodd" sketch:type="MSShapeGroup" mask="url(#mask-4)"></path>
                            <path d="M36.646,140.912 L144.3,140.912 C147.189,140.912 149.531,138.569 149.531,135.68 L149.531,57.008 C149.531,54.119 147.189,51.777 144.3,51.777 L36.646,51.777 C33.757,51.777 31.415,54.119 31.415,57.008 L31.415,135.68 C31.415,138.569 33.757,140.912 36.646,140.912" id="Fill-192" stroke="none" fill="#E8E8E3" fill-rule="evenodd" sketch:type="MSShapeGroup" mask="url(#mask-4)"></path>
                            <path d="M31.415,85.492 L149.531,85.492 L149.531,118.711 L31.415,118.711 L31.415,85.492 Z" id="Fill-193" stroke="none" fill="#4C4C49" fill-rule="evenodd" sketch:type="MSShapeGroup" mask="url(#mask-4)"></path>
                            <path d="M151.268,154.166 L104.743,154.166 C104.325,154.166 103.982,153.823 103.982,153.405 L103.982,153.27 C103.982,152.852 104.325,152.509 104.743,152.509 L151.268,152.509 C151.686,152.509 152.029,152.852 152.029,153.27 L152.029,153.405 C152.029,153.823 151.686,154.166 151.268,154.166" id="Fill-194" stroke="none" fill="#393A38" fill-rule="evenodd" sketch:type="MSShapeGroup" mask="url(#mask-4)"></path>
                            <path d="M155.011,166.426 L198.75,166.426 L198.75,171.728 L155.011,171.728 L155.011,166.426 Z" id="Fill-195" stroke="none" fill="#C4C3BF" fill-rule="evenodd" sketch:type="MSShapeGroup" mask="url(#mask-4)"></path>
                            <path d="M194.185,159.799 L161.298,159.799 C160.209,159.799 159.319,158.908 159.319,157.82 L159.319,157.471 C159.319,156.382 160.209,155.491 161.298,155.491 L194.185,155.491 C195.273,155.491 196.164,156.382 196.164,157.471 L196.164,157.82 C196.164,158.908 195.273,159.799 194.185,159.799" id="Fill-196" stroke="none" fill="#C4C3BF" fill-rule="evenodd" sketch:type="MSShapeGroup" mask="url(#mask-4)"></path>
                            <text id="DELIVERY" stroke="none" fill="none" sketch:type="MSTextLayer" mask="url(#mask-4)" font-family=".AppleSystemUIFont" font-size="15.8305" font-weight="normal" letter-spacing="-0.0001">
                                <tspan x="52.509" y="103.915876" fill="#FFFFFF">DELIVERY</tspan>
                            </text>
                        </g>
                    </g>
                </g>
            </g>
        </g>
    </g>
</svg>