<svg width="375" height="375" viewBox="0 0 375 375" xmlns="http://www.w3.org/2000/svg" xmlns:xlink="http://www.w3.org/1999/xlink"><title>tap_swipe_light_gray_small-22bef3788c4e7d4d49ea06cb62a34192</title><defs><circle id="a" cx="187.5" cy="187.5" r="187.5"/></defs><g fill="none" fill-rule="evenodd"><mask id="b" fill="#fff"><use xlink:href="#a"/></mask><use fill="#D8D8D8" xlink:href="#a"/><g mask="url(#b)"><path d="M345.178 147.098h-75.93c.144.61.88 1.087 1.802 1.163h74.127l.001-1.163" fill="#EDA22D"/><path d="M345.177 151.028v-2.767H271.05l.002.001-.023.003.025.001c-1.032.085-1.832.668-1.833 1.378.002.71.801 1.294 1.833 1.378l-.025.002.023.003h-.001 74.126" fill="#F4E5B1"/><path d="M271.051 151.028c-.924.075-1.66.553-1.803 1.162h75.93v-1.162H271.05" fill="#EDA22D"/><path d="M269.248 152.193c.14-.61.877-1.09 1.803-1.165h.001l-.023-.004.025-.002c-1.032-.084-1.831-.668-1.833-1.378.001-.71.801-1.293 1.833-1.378h-.025l.023-.004-.002-.001c-.925-.076-1.66-.555-1.802-1.166l-4.865 2.55 4.865 2.548" fill="#E8AC6A"/><path d="M266.77 148.393l-2.387 1.251 2.387 1.252c.146-.403.227-.82.226-1.252 0-.43-.08-.85-.225-1.25" fill="#172E41"/><path d="M345.206 147.098v1.163h2.303l-.002-1.162-2.301-.001" fill="#B4262D"/><path d="M345.206 148.261v2.767h2.301l.002-2.767h-2.303" fill="#E05561"/><path d="M345.206 151.028v1.162h2.303l-.002-1.162h-2.301" fill="#B4262D"/><path d="M349.308 132.387c-.243 0-.491-.057-.717-.185l-12.74-6.861a33.77 33.77 0 0 0-16.015-4.042h-55.998v-3.045h55.998c3.032 0 6.058.38 9 1.12a36.81 36.81 0 0 1 8.451 3.29l12.74 6.861a1.522 1.522 0 0 1-.719 2.862" fill="#4D5F70"/><path d="M262.235 132.387c.242 0 .49-.057.719-.185l12.737-6.861a33.768 33.768 0 0 1 16.015-4.042h56v-3.045h-56c-3.033 0-6.06.38-8.999 1.12a36.848 36.848 0 0 0-8.454 3.29l-12.738 6.861a1.523 1.523 0 0 0 .72 2.862" fill="#4D5F70"/><path d="M301.781 120.678a3.996 3.996 0 0 1 3.99-3.997 3.997 3.997 0 0 1 3.991 3.997h3.033c0-3.889-3.142-7.041-7.025-7.041-3.879 0-7.023 3.152-7.023 7.04h3.034" fill="#1F2D3C"/><path d="M298.747 125.44c0 3.205-2.616 5.827-5.813 5.827h-20.25c-3.197 0-5.812-2.622-5.812-5.827v-10.943c0-3.204 2.615-5.827 5.812-5.827h20.25c3.197 0 5.813 2.623 5.813 5.827v10.943" fill="#E1EFF5"/><path d="M292.934 108.67h-11.14v22.597h11.14c3.197 0 5.813-2.622 5.813-5.827v-10.943c0-3.204-2.616-5.827-5.813-5.827" fill="#CCE0EA"/><path d="M344.582 125.44c0 3.205-2.617 5.827-5.814 5.827h-20.25c-3.197 0-5.812-2.622-5.812-5.827v-10.943c0-3.204 2.615-5.827 5.813-5.827h20.249c3.197 0 5.814 2.623 5.814 5.827v10.943" fill="#E1EFF5"/><path d="M338.768 108.67h-11.14v22.597h11.14c3.197 0 5.814-2.622 5.814-5.827v-10.943c0-3.204-2.617-5.827-5.814-5.827" fill="#CCE0EA"/><path d="M298.747 125.44c0 3.205-2.616 5.827-5.813 5.827h-20.25c-3.197 0-5.812-2.622-5.812-5.827v-10.943c0-3.204 2.615-5.827 5.812-5.827h20.25c3.197 0 5.813 2.623 5.813 5.827v10.943zm-4.306-19.736h-23.264c-4.037 0-7.34 3.311-7.34 7.356v13.817c0 4.046 3.303 7.357 7.34 7.357h23.264c4.038 0 7.34-3.31 7.34-7.357V113.06c0-4.045-3.302-7.356-7.34-7.356zM344.582 125.44c0 3.205-2.617 5.827-5.814 5.827h-20.25c-3.197 0-5.812-2.622-5.812-5.827v-10.943c0-3.204 2.615-5.827 5.813-5.827h20.249c3.197 0 5.814 2.623 5.814 5.827v10.943zm-4.306-19.736h-23.264c-4.037 0-7.34 3.311-7.34 7.356v13.817c0 4.046 3.303 7.357 7.34 7.357h23.264c4.037 0 7.34-3.31 7.34-7.357V113.06c0-4.045-3.303-7.356-7.34-7.356z" fill="#273B4E"/><path d="M37.503 107.136l126.278.07-.1 179.025-126.277-.07.1-179.025" fill="#FFF"/><path d="M114.95 201.305c-.68 2.102-1.772 3.994-3.238 5.576l11.042 15.453c5.58-4.822 9.59-11.409 11.108-18.927l-18.912-2.102" fill="#A6D7DE"/><path d="M103.682 181.706c6.433 1.344 11.307 6.783 11.947 13.452l18.885 2.088c0-.213.027-.419.027-.64 0-17.741-13.559-32.301-30.86-33.87v18.97" fill="#EC942F"/><path d="M89.419 186.406c2.102-2.335 4.885-4.032 8.097-4.7v-18.97c-10.083.908-18.845 6.234-24.453 14.02l16.356 9.65" fill="#2BA8B0"/><path d="M106.719 210.498a14.93 14.93 0 0 1-6.127 1.323c-8.377 0-15.17-6.817-15.17-15.214 0-1.716.346-3.333.867-4.867l-16.356-9.66c-2.077 4.412-3.29 9.32-3.29 14.527 0 18.796 15.196 34.023 33.95 34.023a33.533 33.533 0 0 0 17.14-4.693l-11.014-15.439" fill="#4D85A2"/><path d="M50.557 119.202H66.36v4.61H50.557v-4.61z" fill="#EC942F"/><path d="M50.557 129.707H66.36v4.61H50.557v-4.61z" fill="#2BA8B0"/><path d="M50.557 140.213H66.36v4.608H50.557v-4.608z" fill="#A6D7DE"/><path d="M50.557 150.718H66.36v4.609H50.557v-4.61z" fill="#4D85A2"/><path d="M77.059 119.432h73.568v5.187H77.059v-5.187zM77.059 134.932h73.568v5.183H77.059v-5.183zM77.059 150.433h73.568v5.178H77.059v-5.178zM77.059 142.684h73.568v5.178H77.059v-5.178zM77.059 127.185h73.568v5.179H77.059v-5.179zM50.559 235.363h3.343v35.617h-3.343v-35.617zM50.557 270.98h100.07v3.351H50.557v-3.351z" fill="#C7C7C2"/><path d="M62.681 255.142h8.958v15.838h-8.958v-15.838z" fill="#2BA8B0"/><path d="M62.681 247.224h8.958v7.918h-8.958v-7.918z" fill="#A6D7DE"/><path d="M79.387 248.284h8.96v22.696h-8.96v-22.696z" fill="#2BA8B0"/><path d="M79.387 243.744h8.96v4.54h-8.96v-4.54z" fill="#A6D7DE"/><path d="M96.093 259.456h8.959v11.524h-8.959v-11.524z" fill="#2BA8B0"/><path d="M96.093 251.182h8.959v8.274h-8.959v-8.274z" fill="#A6D7DE"/><path d="M112.8 264.38h8.958v6.6H112.8v-6.6z" fill="#2BA8B0"/><path d="M112.8 257.781h8.958v6.599H112.8v-6.599z" fill="#A6D7DE"/><path d="M163.694 263.233l-36.382-.021.026-45.684a33.715 33.715 0 0 0 6.096-12.27l-.03 51.94 30.293.017-.003 6.018m-30.26-59.873l-6.088-.677.003-6.23 6.09.674-.004 6.233m.008-15.365a33.897 33.897 0 0 0-6.082-12.306l.011-20.078h6.09l-.02 32.384m.022-37.562h-6.089l.001-2.571h6.09l-.002 2.57m.005-7.748h-6.09l.002-2.57h6.09l-.002 2.57m.004-7.752h-6.09l.002-2.568h6.09l-.002 2.568m.004-7.747h-6.089l.002-2.566h6.088v2.566m.003-7.753h-6.089l.008-12.246 6.088.003-.007 12.243" fill="#E4E4DF"/><path d="M127.338 217.528l.008-14.845 6.089.677-.001 1.899a33.715 33.715 0 0 1-6.096 12.269" fill="#94BDC3"/><path d="M133.438 197.127l-6.089-.673.012-20.765a33.897 33.897 0 0 1 6.082 12.306l-.005 9.132" fill="#D3842F"/><path d="M133.478 124.62h-6.088l.002-5.188h6.09l-.004 5.187M133.47 140.115h-6.089l.003-5.183h6.089l-.003 5.183M133.461 155.611h-6.089l.003-5.178h6.089l-.003 5.178M133.465 147.862h-6.089l.003-5.178h6.09l-.004 5.178M133.474 132.364h-6.089l.003-5.179h6.09l-.004 5.179" fill="#B1B1AD"/><path d="M133.504 79.843l125.1.07-.099 177.356-125.1-.071.099-177.355" fill="#FFF"/><path d="M149.203 171.522l10.804.006-.018 9.853-10.806-.007.02-9.852" fill="#4D85A2"/><path d="M161.687 167.281l10.806.005-.012 14.1-10.805-.005.011-14.1" fill="#5F94AE"/><path d="M174.177 157.406l10.805.005-.01 23.983-10.803-.007.008-23.981" fill="#72A3BC"/><path d="M186.673 160.738l10.804.007-.012 20.655-10.803-.006.011-20.656" fill="#85B4CC"/><path d="M199.162 171.062l10.805.006-.01 10.34-10.802-.006.007-10.34" fill="#98C4D9"/><path d="M211.337 167.15l10.804.006-.008 14.238-10.804-.007.008-14.236" fill="#72A3BC"/><path d="M223.833 160.735l10.803.006-.01 20.66-10.805-.007.012-20.66" fill="#85B4CC"/><path d="M236.321 147.094l10.805.006-.008 34.308-10.804-.006.007-34.308" fill="#98C4D9"/><path d="M144.917 195.968l46.874.026v3.122l-46.876-.026.002-3.122M144.913 201.432l46.876.025-.003 3.122-46.874-.026.001-3.121M144.91 206.895l46.874.026v3.122l-46.876-.025.002-3.123M144.907 212.358l46.875.027-.001 3.12-46.876-.023.002-3.124M144.904 217.822l46.875.026-.002 3.122-46.875-.026.002-3.122M144.901 223.285l46.876.026-.003 3.123-46.874-.028.001-3.12M144.897 228.749l46.877.025-.003 3.125-46.874-.028v-3.122M144.895 234.212l23.438.014-.001 3.122-23.439-.013.002-3.123M200.18 196l46.875.025-.002 3.122-46.875-.026.002-3.121M200.177 201.463l46.876.025-.003 3.122-46.875-.026.002-3.121M200.173 206.927l46.875.024-.001 3.123-46.875-.026.001-3.121M200.17 212.39l46.876.026-.001 3.12-46.876-.024.001-3.123M200.168 217.853l46.874.027-.001 3.12-46.875-.025.002-3.122M200.165 223.317l46.875.026-.003 3.122-46.875-.026.003-3.122M200.16 228.78l46.876.025-.002 3.124-46.874-.027v-3.122M200.159 234.244l32.994.018-.001 3.122-32.995-.018.002-3.122" fill="#C7C7C2"/><path d="M151.657 138.996l-2.875-3.905 35.673-26.374 23.186 15.89 37.027-25.417 2.733 4.003-39.759 27.292-23.08-15.817-32.905 24.328" fill="#F4BA29"/><path d="M247.74 111.692h-3.874v-8.56h-8.54v-3.881h12.413v12.441" fill="#F4BA29"/><path d="M212.658 126.635a5.332 5.332 0 0 0-5.324-5.338 5.331 5.331 0 0 0-5.324 5.338c0 2.947 2.384 5.337 5.324 5.337 2.939 0 5.324-2.39 5.324-5.337M189.912 111.692a5.33 5.33 0 0 0-5.324-5.336 5.33 5.33 0 0 0-5.324 5.336c0 2.948 2.383 5.338 5.324 5.338a5.33 5.33 0 0 0 5.324-5.338" fill="#2BA8B0"/><path d="M204.632 195.982l.007-.007-.007.007m.028-.027l.01-.01-.01.01m.028-.026l.012-.011c-.004.003-.008.008-.012.01m.03-.027l.012-.01a.246.246 0 0 0-.012.01m.029-.027l.011-.01-.011.01m.027-.025l.065-.06-.065.06m.069-.064l.022-.02-.022.02m.028-.026l.024-.022-.024.022M204.926 195.708l.025-.022-.025.022" fill="#FFF"/><path d="M204.065 196.532l.007-.007-.007.007m.029-.029l.008-.007-.008.007m.028-.027l.009-.01-.009.01M204.18 196.417l.008-.007-.008.007m.031-.03l.005-.004-.005.004m.031-.03l.003-.003-.003.003m.12-.117a.012.012 0 0 1 .004-.004l-.003.004m.029-.03l.004-.003-.004.004m.029-.027c.001-.003.003-.004.005-.006l-.005.006m.029-.029l.006-.006-.006.006M204.602 196.01l.007-.006-.007.006" fill="#CDCCC7"/><path d="M222.844 242.085h-.054.052c6.272 0 12.216-2.17 16.995-6.161a26.673 26.673 0 0 1-6.073 3.814c-1.9.426-3.862.648-5.853.648h-.02a26.402 26.402 0 0 1-12.226-3.012l17.487.01v-3.122l-22.172-.012a26.851 26.851 0 0 1-2.48-2.344l35.233.02c-.64.81-1.332 1.588-2.072 2.33-5.041 5.05-11.716 7.827-18.812 7.829h-.005m23.02-13.28l-39.868-.022a26.623 26.623 0 0 1-1.435-2.342l42.476.024.003-3.122-43.925-.025a26.564 26.564 0 0 1-.781-2.342l44.707.025v-3.121l-45.39-.026c-.12-.77-.207-1.552-.26-2.342l45.654.024v-3.12l-45.68-.026c.037-.787.11-1.568.215-2.34l45.467.024.001-3.123-44.85-.023c.208-.793.45-1.574.73-2.342l40.96.023a27.783 27.783 0 0 1 2.008 1.945 26.401 26.401 0 0 0-1.292-1.945l2.446.001v-.303a26.554 26.554 0 0 1 2.41 11.114v.042a26.497 26.497 0 0 1-3.596 13.342m-.321-27.317l-3.615-.002a26.397 26.397 0 0 0-2.69-2.343l4.686.002a26.732 26.732 0 0 1 1.619 2.343m-6.024-.004l-26.266-.014a26.382 26.382 0 0 1 5.445-2.339l15.388.009a27.031 27.031 0 0 1 5.433 2.344m-30.094-.016l-5.129-.003c.414-.801.871-1.583 1.368-2.34h2.88l.88 2.343m31.675-5.446l-7.14-.004a26.45 26.45 0 0 0-10.823-2.326 26.546 26.546 0 0 0-10.825 2.314l-4.257-.002c.347-.391.707-.774 1.08-1.147a26.63 26.63 0 0 1 7.883-5.474 26.655 26.655 0 0 1 3.611-.554c-5.842.483-11.306 2.865-15.675 6.855 4.916-4.49 11.219-6.947 17.886-6.949h.047c6.827.015 13.261 2.593 18.213 7.287" fill="#FFF"/><path d="M243.924 199.145l-4.686-.002a26.868 26.868 0 0 0-5.28-3.125l7.141.004a27.188 27.188 0 0 1 2.825 3.124m-9.838-.006l-15.388-.009a26.293 26.293 0 0 1 15.388.008m-25.543-.013l-2.879-.002a26.77 26.77 0 0 1 2.39-3.12l4.257.002a26.651 26.651 0 0 0-4.084 2.278l.316.842M247.05 204.61h-2.446a26.377 26.377 0 0 0-2.676-3.124l3.615.002c.56.911 1.063 1.852 1.507 2.82v.302m-3.162-.001l-40.96-.023c.388-1.068.845-2.11 1.368-3.121l5.129.003.767 2.04a26.526 26.526 0 0 1 3.061-2.038l26.266.014a27.027 27.027 0 0 1 4.37 3.125M247.047 210.074l-45.467-.025c.145-1.056.351-2.099.618-3.121l44.85.023-.001 3.123M247.045 215.536l-45.654-.024a27.103 27.103 0 0 1-.027-3.122l45.682.026-.001 3.12M247.04 221l-44.706-.024a26.465 26.465 0 0 1-.683-3.122l45.39.026V221M247.037 226.465l-42.476-.024a26.49 26.49 0 0 1-1.446-3.123l43.925.025-.003 3.122M243.733 231.926l-35.234-.02a26.83 26.83 0 0 1-2.503-3.123l39.868.022a26.651 26.651 0 0 1-2.13 3.121M233.152 237.384l-17.487-.01a26.696 26.696 0 0 1-4.685-3.124l22.173.012-.001 3.122" fill="#CDCCC7"/><path d="M240.813 235.069" fill="#A6D7DE"/><path d="M222.842 242.085h-.052a26.41 26.41 0 0 1-15.05-4.715l7.925.004a26.402 26.402 0 0 0 12.226 3.012h.02c1.991 0 3.953-.222 5.853-.648a26.673 26.673 0 0 0 6.073-3.814 26.363 26.363 0 0 1-16.995 6.16m-11.862-7.834l-6.97-.004a26.912 26.912 0 0 1-2.076-2.343l6.565.003a26.851 26.851 0 0 0 2.48 2.344m-10.819-4.893a26.56 26.56 0 0 1-3.93-13.945v-.043c.013-5.95 1.964-11.608 5.553-16.247l3.881.002c-.497.758-.954 1.54-1.368 2.34l-4.12-.001-.001 3.121 2.753.002a26.507 26.507 0 0 0-.73 2.342l-2.025-.001-.001 3.121 1.408.001a26.92 26.92 0 0 0-.216 2.341h-1.194l-.001 3.122h1.222c.053.79.14 1.572.26 2.342l-1.483-.001-.002 3.122 2.168.001c.225.796.486 1.578.781 2.342l-2.95-.001-.003 3.122 4.4.002c.438.807.917 1.589 1.434 2.342l-5.836-.003v.577m7.894-33.353l-3.443-.002.02-.02.008-.007a.721.721 0 0 1 .021-.02l.01-.01.018-.016.012-.011.018-.017a.246.246 0 0 1 .012-.01l.017-.017.011-.01.016-.015.065-.06.004-.004.022-.02.006-.006.024-.022a1.077 1.077 0 0 0 .03-.028l.026-.023.002-.002c4.369-3.99 9.833-6.372 15.675-6.855a26.655 26.655 0 0 0-3.61.554 26.63 26.63 0 0 0-7.885 5.474c-.372.373-.732.756-1.08 1.147" fill="#FFF"/><path d="M205.664 199.124l-3.88-.002a27.12 27.12 0 0 1 2.253-2.561l.028-.029a49.018 49.018 0 0 0 .029-.029l.008-.007.02-.02.009-.01.02-.02.008-.007c.007-.007.015-.014.021-.022l.008-.007a.952.952 0 0 0 .023-.023l.005-.004.026-.026.003-.003c.039-.038.078-.077.118-.114 0-.002.002-.003.003-.004l.026-.025.004-.004.025-.023.005-.006a.965.965 0 0 1 .024-.023l.006-.006.025-.023a.03.03 0 0 0 .004-.004l.117-.112.007-.006.002-.002 3.443.002a26.77 26.77 0 0 0-2.39 3.12M202.928 204.586l-2.753-.002.002-3.121 4.12.002a26.367 26.367 0 0 0-1.37 3.121M201.58 210.05l-1.408-.002.001-3.121h2.025a26.649 26.649 0 0 0-.618 3.122M201.391 215.512h-1.222l.001-3.123 1.194.001a27.581 27.581 0 0 0 .027 3.122M202.334 220.976l-2.168-.001.002-3.122h1.483c.167 1.064.395 2.105.683 3.123M204.561 226.441l-4.399-.002.003-3.122 2.95.001c.416 1.077.9 2.12 1.446 3.123M208.5 231.906l-6.566-.003a26.859 26.859 0 0 1-1.774-2.546v-.577l5.836.003a26.83 26.83 0 0 0 2.503 3.123M215.665 237.374l-7.924-.004a26.85 26.85 0 0 1-3.732-3.124l6.97.004a26.696 26.696 0 0 0 4.686 3.124" fill="#EEEEEA"/><path d="M220.675 188.824c.21-.016.42-.03.63-.043-.21.013-.42.026-.63.043M222.172 188.745" fill="#A6D7DE"/><path d="M255.59 248.518a4.563 4.563 0 0 1-6.465-.013l-5.7-5.898a4.594 4.594 0 0 1 .004-6.476l.015-.007a4.56 4.56 0 0 1 6.466.014l5.699 5.896a4.591 4.591 0 0 1-.007 6.476l-.011.008" fill="#152830"/><path d="M196.23 215.37c.016-7.096 2.787-13.778 7.807-18.81 5.047-5.057 11.742-7.836 18.85-7.824 7.098.014 13.774 2.802 18.798 7.858 5.026 5.054 7.789 11.754 7.776 18.869-.013 7.09-2.783 13.764-7.8 18.793-5.056 5.065-11.753 7.843-18.871 7.829-14.674-.023-26.587-12.009-26.56-26.716m-9.147-.016c-.037 19.76 15.976 35.87 35.691 35.905 9.567.016 18.574-3.717 25.354-10.515v-.003c6.743-6.756 10.46-15.73 10.477-25.262.019-9.562-3.691-18.568-10.44-25.357-6.75-6.788-15.723-10.538-25.26-10.555-9.563-.013-18.56 3.716-25.34 10.51-6.742 6.76-10.467 15.74-10.482 25.277" fill="#2C4F61"/><path d="M245.63 251.488l13.006-13.037 40.732 40.829-13.006 13.038-40.732-40.83" fill="#172E41"/><path d="M248.324 248.787l7.617-7.636 40.732 40.83-7.617 7.635-40.732-40.829" fill="#2C4F61"/><path d="M280.114 286.056l13.007-13.038 6.247 6.262-13.006 13.038-6.248-6.262" fill="#152830"/><path d="M282.808 283.354l7.618-7.635 6.247 6.263-7.617 7.634-6.248-6.262" fill="#1D3F55"/><path d="M245.896 206.554a27.783 27.783 0 0 0-2.008-1.945h.716c.458.628.89 1.277 1.292 1.945m-3.968-5.068l-2.41-.002a27.031 27.031 0 0 0-5.432-2.345l5.152.004c.952.722 1.85 1.505 2.69 2.343m-28.675-.016l-3.828-.002-.882-2.342 10.155.005a26.382 26.382 0 0 0-5.445 2.338m20.705-5.451l-21.647-.012a26.546 26.546 0 0 1 10.825-2.314c3.692 0 7.368.78 10.822 2.326" fill="#FFF"/><path d="M239.238 199.143l-5.152-.003a26.293 26.293 0 0 0-15.388-.009l-10.155-.005-.316-.842a26.651 26.651 0 0 1 4.084-2.278l21.647.012a26.996 26.996 0 0 1 5.28 3.125M244.604 204.61l-.716-.001a27.027 27.027 0 0 0-4.37-3.125l2.41.002c.972.97 1.866 2.013 2.676 3.123m-34.412-1.101l-.767-2.04 3.828.002a26.526 26.526 0 0 0-3.06 2.038" fill="#EEEEEA"/><path d="M333.356 187.278h-54.82v52.405c0 .652.248 1.304.746 1.8a2.529 2.529 0 0 0 1.794.745h49.742c.648 0 1.297-.25 1.794-.745a2.549 2.549 0 0 0 .744-1.8v-52.405" fill="#5E7485"/><path d="M333.356 233.384l-47.885-46.106h47.885v46.106" fill="#6D8190"/><path d="M303.32 199.068a.447.447 0 0 1-.444.446h-18.262a.445.445 0 0 1-.443-.446v-5.89c0-.243.199-.444.443-.444h18.262c.242 0 .443.201.443.443v5.89" fill="#55BDC1"/><path d="M315.709 199.068c0 .246-.2.446-.445.446h-5.87a.446.446 0 0 1-.443-.446v-5.89c0-.243.2-.444.443-.444h5.87c.245 0 .445.201.445.443v5.89" fill="#D4442B"/><path d="M328.096 199.068a.445.445 0 0 1-.442.446h-5.872c-.242 0-.441-.2-.441-.446v-5.89c0-.243.199-.444.44-.444h5.873c.243 0 .442.201.442.443v5.89M290.928 211.49a.441.441 0 0 1-.441.442h-5.873a.443.443 0 0 1-.443-.441v-5.89c0-.246.199-.444.443-.444h5.873c.244 0 .44.198.44.443v5.89M303.32 211.49a.445.445 0 0 1-.444.442h-5.872a.444.444 0 0 1-.444-.441v-5.89c0-.246.199-.444.444-.444h5.872c.242 0 .443.198.443.443v5.89M315.709 211.49c0 .243-.2.442-.445.442h-5.87a.443.443 0 0 1-.443-.441v-5.89c0-.246.2-.444.443-.444h5.87c.245 0 .445.198.445.443v5.89M328.096 211.49a.442.442 0 0 1-.442.442h-5.872a.443.443 0 0 1-.441-.441v-5.89c0-.246.199-.444.44-.444h5.873c.243 0 .442.198.442.443v5.89M290.928 223.908a.442.442 0 0 1-.441.444h-5.873a.444.444 0 0 1-.443-.444v-5.888c0-.245.199-.443.443-.443h5.873c.244 0 .44.198.44.443v5.888M303.32 223.908a.446.446 0 0 1-.444.444h-5.872a.445.445 0 0 1-.444-.444v-5.888c0-.245.199-.443.444-.443h5.872c.242 0 .443.198.443.443v5.888" fill="#F6FAFC"/><path d="M315.709 223.908c0 .245-.2.444-.445.444h-5.87a.444.444 0 0 1-.443-.444v-5.888c0-.245.2-.443.443-.443h5.87c.245 0 .445.198.445.443v5.888" fill="#1F2D3C"/><path d="M290.928 236.327a.442.442 0 0 1-.441.444h-5.873a.443.443 0 0 1-.443-.444v-5.884c0-.245.199-.447.443-.447h5.873c.244 0 .44.202.44.447v5.884M303.32 236.327a.445.445 0 0 1-.444.444h-5.872a.444.444 0 0 1-.444-.444v-5.884c0-.245.199-.447.444-.447h5.872c.242 0 .443.202.443.447v5.884" fill="#F6FAFC"/><path d="M315.709 236.327c0 .246-.2.444-.445.444h-5.87a.444.444 0 0 1-.443-.444v-5.884c0-.245.2-.447.443-.447h5.87c.245 0 .445.202.445.447v5.884M328.096 236.327a.443.443 0 0 1-.442.444h-5.872a.443.443 0 0 1-.441-.444v-5.884c0-.245.199-.447.44-.447h5.873c.243 0 .442.202.442.447v5.884M328.096 223.908a.443.443 0 0 1-.442.444h-5.872c-.242 0-.441-.2-.441-.444v-5.888c0-.245.199-.443.44-.443h5.873c.243 0 .442.198.442.443v5.888" fill="#1F2D3C"/><path d="M333.357 165.365a2.55 2.55 0 0 0-.745-1.801 2.528 2.528 0 0 0-1.794-.746h-49.742c-.65 0-1.298.248-1.794.746a2.533 2.533 0 0 0-.746 1.801v21.913h54.82v-21.913" fill="#344F62"/><path d="M284.614 182.882c-.4 0-.778-.155-1.06-.44a1.49 1.49 0 0 1-.44-1.06V168.72c0-.4.157-.779.44-1.061.282-.282.66-.44 1.06-.44h43.04c.403 0 .782.158 1.064.443.279.28.436.657.436 1.058v12.661c0 .402-.157.778-.439 1.061-.279.282-.658.44-1.061.44h-43.04" fill="#2C465A"/><path d="M284.614 168.276a.444.444 0 0 0-.443.444v12.661a.446.446 0 0 0 .443.444h43.04a.444.444 0 0 0 .442-.444V168.72a.45.45 0 0 0-.128-.314.444.444 0 0 0-.314-.13h-43.04" fill="#F4BA29"/><path d="M278.536 186.22h54.82v1.058h-54.82v-1.058z" fill="#2C465A"/></g></g></svg>