<svg width="375" height="375" viewBox="0 0 375 375" xmlns="http://www.w3.org/2000/svg" xmlns:xlink="http://www.w3.org/1999/xlink"><title>tap_swipe_light_gray_small-22bef3788c4e7d4d49ea06cb62a34192</title><defs><circle id="a" cx="187.5" cy="187.5" r="187.5"/></defs><g fill="none" fill-rule="evenodd"><mask id="b" fill="#fff"><use xlink:href="#a"/></mask><use fill="#D8D8D8" xlink:href="#a"/><g mask="url(#b)"><path d="M200.505 61.471c-5.228 0-9.48 4.248-9.48 9.469 0 5.22 4.252 9.469 9.48 9.469 5.23 0 9.482-4.248 9.482-9.47 0-5.22-4.252-9.468-9.482-9.468zm0 20.17c-5.907 0-10.714-4.798-10.714-10.701 0-5.901 4.807-10.7 10.714-10.7 5.91 0 10.718 4.799 10.718 10.7 0 5.903-4.809 10.701-10.718 10.701z" fill="#5FBFC2"/><path d="M200.505 58.11c-7.082 0-12.849 5.756-12.849 12.83 0 7.076 5.767 12.83 12.85 12.83 7.086 0 12.847-5.754 12.847-12.83 0-7.074-5.76-12.83-12.848-12.83zm0 26.892c-7.762 0-14.081-6.307-14.081-14.062 0-7.753 6.32-14.063 14.081-14.063 7.765 0 14.083 6.31 14.083 14.063 0 7.755-6.318 14.062-14.083 14.062z" fill="#5FBFC2"/><path d="M199.138 69.005v.94h3.116v1.168h-3.116v4.93h4.457v1.166h-7.364v-1.167h1.485v-4.93h-1.413v-1.166h1.413v-1.059c0-2.014.479-3.22 1.436-3.618.957-.398 1.698-.597 2.224-.597 1.05 0 1.844.12 2.382.362l-.163 1.248c-.453-.271-1.015-.407-1.685-.407-.67 0-1.179.086-1.526.258-.347.172-.642.448-.883.828-.242.38-.363 1.061-.363 2.044z" fill="#57B3C6"/><path d="M219.081 88.001c-3.839-.564-7.76-.936-11.645-1.106l.08-1.767c3.946.173 7.926.551 11.822 1.124l-.257 1.75m-34.966.254l-.285-1.744c3.89-.633 7.862-1.07 11.807-1.298l.104 1.763c-3.89.227-7.799.655-11.626 1.279m57.602 5.529a112.854 112.854 0 0 0-11.168-3.48l.437-1.713c3.823.978 7.64 2.167 11.345 3.537l-.614 1.656m-80.148.586l-.634-1.649a114.877 114.877 0 0 1 11.282-3.702l.465 1.705a114.093 114.093 0 0 0-11.113 3.646m101.094 9.747a112.74 112.74 0 0 0-10.205-5.71l.782-1.585c3.54 1.746 7.03 3.697 10.37 5.8l-.947 1.495m-121.884.888l-.963-1.48a115.745 115.745 0 0 1 10.273-5.95l.809 1.574a113.503 113.503 0 0 0-10.119 5.856m140.266 13.52a113.98 113.98 0 0 0-8.817-7.678l1.092-1.39a116.363 116.363 0 0 1 8.956 7.797l-1.231 1.271m-158.433 1.15l-1.247-1.251a115.05 115.05 0 0 1 8.841-7.927l1.113 1.378a113.336 113.336 0 0 0-8.707 7.8m173.475 16.701a113.926 113.926 0 0 0-7.06-9.311l1.354-1.138c2.543 3.018 4.954 6.2 7.17 9.456l-1.464.993m-188.26 1.37l-1.477-.97c2.17-3.294 4.537-6.511 7.035-9.564l1.37 1.12a112.675 112.675 0 0 0-6.928 9.415m199.318 19.179a113.014 113.014 0 0 0-4.993-10.56l1.558-.836a115.368 115.368 0 0 1 5.073 10.725l-1.638.67m-210.074 1.537l-1.645-.648c1.441-3.665 3.095-7.3 4.914-10.802l1.574.813a112.49 112.49 0 0 0-4.843 10.637m216.644 20.852a112.364 112.364 0 0 0-2.7-11.365l1.696-.498a113.83 113.83 0 0 1 2.746 11.543l-1.742.32m-222.886 1.631l-1.74-.293c.65-3.885 1.516-7.78 2.57-11.582l1.704.473a113.615 113.615 0 0 0-2.534 11.402M87.586 204.3a116.394 116.394 0 0 1 .144-11.86l1.763.111a114.573 114.573 0 0 0-.139 11.681l-1.768.068m229.143 7.33l-1.76-.18a114.492 114.492 0 0 0 .252-20.554l1.765-.136a116.382 116.382 0 0 1-.257 20.87M90.935 227.754c-.958-3.82-1.727-7.74-2.283-11.642l1.75-.249a114.54 114.54 0 0 0 2.248 11.462l-1.715.43m220.943 7.07l-1.685-.54a111.854 111.854 0 0 0 2.985-11.297l1.734.363c-.81 3.863-1.83 7.722-3.034 11.473M99.061 250.018a114.995 114.995 0 0 1-4.644-10.921l1.661-.605a112.877 112.877 0 0 0 4.575 10.752l-1.592.774m203.268 6.505l-1.536-.874c1.927-3.38 3.695-6.89 5.257-10.436l1.62.708a114.716 114.716 0 0 1-5.34 10.602m-190.721 13.604a114.937 114.937 0 0 1-6.793-9.731l1.499-.934a113.802 113.802 0 0 0 6.692 9.581l-1.398 1.084m176.91 5.668l-1.327-1.172a113.271 113.271 0 0 0 7.291-9.136l1.44 1.029c-2.3 3.208-4.794 6.33-7.404 9.28M128.014 287.25a116.044 116.044 0 0 1-8.643-8.14l1.276-1.222a114.63 114.63 0 0 0 8.513 8.016l-1.146 1.346m143.04 4.586l-1.06-1.416a114.316 114.316 0 0 0 9.008-7.457l1.196 1.302a116.587 116.587 0 0 1-9.143 7.571m-123.478 8.827a115.39 115.39 0 0 1-10.13-6.202l1.005-1.457a112.998 112.998 0 0 0 9.971 6.107l-.846 1.552m103.098 3.305l-.741-1.603c3.522-1.632 7-3.466 10.34-5.453l.906 1.518a115.33 115.33 0 0 1-10.505 5.538m-81.187 5.8a114.702 114.702 0 0 1-11.195-3.983l.681-1.631c3.59 1.492 7.298 2.81 11.024 3.92l-.51 1.694m58.737 1.875l-.394-1.724a112.817 112.817 0 0 0 11.244-3.202l.574 1.673a114.992 114.992 0 0 1-11.424 3.253m-35.419 2.51c-3.938-.327-7.898-.86-11.773-1.59l.33-1.735c3.809.717 7.712 1.242 11.59 1.563l-.147 1.761m11.871.374l-.032-1.766c3.893-.076 7.819-.353 11.665-.823l.215 1.754c-3.908.478-7.894.758-11.848.835M212.204 128.955c7.927 7.023 14.501 15.717 19.551 25.841l.451.905.964-.31c6.548-2.092 12.801-4.87 18.577-8.253l1.384-.812-1.189-1.077c-10.906-9.892-24.317-16.233-38.783-18.34l-3.906-.57 2.951 2.616m-20.54-2.047c-14.48 2.112-27.893 8.456-38.79 18.348l-1.186 1.077 1.384.81c5.757 3.376 12.015 6.153 18.59 8.255l.963.308.454-.906c5.044-10.124 11.62-18.82 19.54-25.845l2.949-2.615-3.904.568m7.635-.206c-9.588 7.1-17.752 16.926-23.617 28.418l-.666 1.298 1.416.375a101.664 101.664 0 0 0 23.54 3.32l1.209.029v-34.834l-1.882 1.394m4.346 33.44l1.208-.028c8.01-.19 15.931-1.309 23.538-3.321l1.41-.375-.66-1.298c-5.858-11.486-14.022-21.312-23.613-28.418l-1.883-1.395v34.835m-54.405-11.357c-12.651 13.156-19.948 30.397-20.548 48.55l-.036 1.216h34.055l.026-1.15c.304-13.233 3.18-26.46 8.315-38.254l.517-1.187-1.234-.401c-6.953-2.271-13.56-5.286-19.632-8.964l-.807-.489-.656.68m24.302 10.815c-5.135 11.578-8.012 24.628-8.328 37.744l-.027 1.206h35.994v-35.936l-1.157-.025a103.612 103.612 0 0 1-25.093-3.647l-.979-.27-.41.928m56.344-.661a103.407 103.407 0 0 1-25.09 3.65l-1.15.025v35.936h35.987l-.026-1.207c-.319-13.12-3.196-26.171-8.329-37.745l-.411-.928-.98.269m24.23-10.346c-6.086 3.682-12.692 6.697-19.63 8.962l-1.233.403.517 1.187c5.128 11.772 8.003 25 8.312 38.255l.03 1.15h34.056l-.043-1.216c-.592-18.154-7.89-35.396-20.547-48.55l-.655-.679-.808.488m-88.902 53.634c.316 13.129 3.2 26.181 8.335 37.744l.414.928.977-.27c8.09-2.227 16.53-3.455 25.09-3.653l1.15-.027v-35.928h-35.993l.027 1.206m38.431 34.723l1.152.026c8.532.19 16.972 1.42 25.087 3.654l.98.27.412-.93c5.135-11.575 8.012-24.626 8.331-37.742l.026-1.207h-35.988v35.93m38.438-34.78c-.309 13.257-3.184 26.481-8.312 38.247l-.517 1.188 1.233.402c6.95 2.271 13.557 5.286 19.63 8.963l.807.488.655-.68c12.66-13.155 19.957-30.394 20.547-48.542l.043-1.216h-34.057l-.029 1.15m-113.39.066c.599 18.144 7.893 35.384 20.54 48.541l.655.682.805-.49c6.058-3.67 12.663-6.686 19.642-8.962l1.234-.401-.517-1.187c-5.138-11.796-8.013-25.021-8.315-38.248l-.026-1.151h-34.055l.036 1.216m42.975 41.936c-6.562 2.098-12.812 4.871-18.591 8.246l-1.383.81 1.185 1.08c10.907 9.905 24.32 16.25 38.788 18.347l3.898.566-2.946-2.612c-7.918-7.021-14.493-15.716-19.534-25.84l-.453-.907-.964.31m60.065.598c-5.034 10.127-11.604 18.82-19.529 25.839l-2.953 2.612 3.906-.566c14.472-2.099 27.882-8.444 38.781-18.348l1.187-1.077-1.383-.81c-5.789-3.386-12.045-6.162-18.596-8.248l-.962-.308-.451.906m-28.087 29.447l1.881-1.385c9.568-7.05 17.732-16.865 23.61-28.38l.662-1.297-1.412-.375c-7.592-2.02-15.513-3.138-23.533-3.328l-1.208-.03v34.795m-3.673-34.765a101.273 101.273 0 0 0-23.537 3.327l-1.41.375.662 1.3c5.861 11.475 14.025 21.295 23.612 28.397l1.882 1.395v-34.823l-1.209.029m2.355 36.453c-.614 0-1.213 0-1.81-.02l-1.524-.05c-18.308-.805-35.738-8.212-49.069-20.855a56.928 56.928 0 0 1-2.745-2.73c-13.067-13.703-20.513-31.655-20.977-50.561a92.863 92.863 0 0 1-.022-1.9 75.807 75.807 0 0 1 21-52.475 66.567 66.567 0 0 1 2.742-2.734 76.157 76.157 0 0 1 52.443-20.924c.72 0 1.34.004 1.951.019l.2.006c.448.014.869.028 1.294.049a76.11 76.11 0 0 1 49.09 20.852 72.103 72.103 0 0 1 2.742 2.728c13.067 13.709 20.518 31.667 20.984 50.569l.001.151c.012.583.025 1.164.025 1.758 0 .583-.013 1.17-.025 1.754v.146c-.467 18.89-7.918 36.849-20.983 50.562a67.315 67.315 0 0 1-2.74 2.728 76.162 76.162 0 0 1-49.09 20.858l-1.452.048c-.651.021-1.257.021-1.87.021h-.165" fill="#49A2B4"/><path d="M121.782 128.45c-2.459 0-4.77-.954-6.51-2.691-3.59-3.586-3.59-9.418 0-13.003a9.16 9.16 0 0 1 6.51-2.693c2.459 0 4.771.957 6.51 2.693 3.59 3.584 3.59 9.417 0 13.003a9.152 9.152 0 0 1-6.51 2.692M88.382 219.264c-10.754-.001-19.505-8.74-19.505-19.48 0-10.742 8.751-19.48 19.505-19.48 10.755 0 19.507 8.74 19.507 19.48 0 10.742-8.752 19.48-19.507 19.48M121.785 294.122c-3.695 0-7.17-1.436-9.784-4.045a13.72 13.72 0 0 1-4.049-9.766c0-3.69 1.438-7.158 4.049-9.767a13.76 13.76 0 0 1 9.783-4.047c3.695 0 7.167 1.437 9.78 4.046a13.713 13.713 0 0 1 4.052 9.768 13.71 13.71 0 0 1-4.052 9.766 13.746 13.746 0 0 1-9.78 4.045M202.419 318.942a5.286 5.286 0 0 1-5.285-5.277c0-2.91 2.37-5.278 5.285-5.278a5.287 5.287 0 0 1 5.286 5.278c0 2.911-2.374 5.277-5.286 5.277M283.054 284.29a3.96 3.96 0 0 1-2.822-1.165 3.95 3.95 0 0 1-1.168-2.817 3.95 3.95 0 0 1 1.168-2.818 3.966 3.966 0 0 1 2.822-1.166c1.064 0 2.065.414 2.82 1.166a3.965 3.965 0 0 1 1.167 2.818 3.96 3.96 0 0 1-1.167 2.816 3.961 3.961 0 0 1-2.82 1.166M283.05 126.479a7.185 7.185 0 0 1-5.112-2.117 7.157 7.157 0 0 1-2.122-5.106c0-1.93.753-3.745 2.122-5.11a7.184 7.184 0 0 1 5.111-2.114c1.934 0 3.75.75 5.116 2.116a7.169 7.169 0 0 1 2.118 5.107 7.17 7.17 0 0 1-2.118 5.107 7.192 7.192 0 0 1-5.114 2.117" fill="#49A2B4"/><path d="M266.19 139.21l-.005 51.817 91.721-.008-.011-51.813-91.704.004 46.484 28.809" fill="#55BDC1"/><path d="M301.99 159.201h-11.494l.006 1.706h10.91a13.3 13.3 0 0 1 .578-1.706M323.212 164.26c.009.287.025.564.025.853.01.29-.016.573-.028.853h14.375v-1.705h-14.372M300.85 165.113c.002-.284.021-.566.038-.85h-14.38l.005 1.703h14.374c-.01-.28-.035-.564-.038-.853M333.592 160.907l.002-1.71h-11.488c.225.55.417 1.114.578 1.71h10.908M322.106 171.038l11.49-.004-.002-1.708h-10.91a15.518 15.518 0 0 1-.578 1.712M301.412 169.328h-10.91v1.708l11.484-.002a14.532 14.532 0 0 1-.574-1.706" fill="#1FA9A8"/><path d="M326.433 165.114c.001 9.254-6.437 16.76-14.387 16.765-7.943 0-14.386-7.511-14.386-16.762-.002-9.264 6.443-16.765 14.384-16.766 7.944 0 14.386 7.5 14.39 16.763z" fill="#1FA9A8"/><path d="M352.388 175.338c-2.42.168-4.891 1.35-6.867 3.321-1.96 1.963-3.138 4.475-3.313 6.87l-60.32.003c-.177-2.395-1.357-4.913-3.311-6.867-1.984-1.968-4.446-3.15-6.877-3.316V154.89c2.431-.17 4.903-1.353 6.876-3.318 1.958-1.955 3.133-4.474 3.308-6.878l60.32-.002c.174 2.397 1.362 4.923 3.317 6.876 1.976 1.96 4.442 3.15 6.871 3.317l-.004 20.452zm-9.919-33.377h-60.854l-12.664.007.005 33.658-.002 12.648h12.67l60.847-.006h12.68l-.008-12.656v-21.006l-.003-12.647-12.67.002z" fill="#1FA9A8"/><path d="M277.784 86.89c-6.51 0-11.808 5.29-11.808 11.792s5.297 11.794 11.808 11.794c6.512 0 11.807-5.292 11.807-11.794 0-6.501-5.295-11.792-11.807-11.792zm0 25.119c-7.358 0-13.346-5.976-13.346-13.327 0-7.349 5.988-13.326 13.346-13.326s13.345 5.977 13.345 13.326c0 7.35-5.987 13.327-13.345 13.327z" fill="#5FBFC2"/><path d="M277.784 82.704c-8.822 0-16.003 7.167-16.003 15.978 0 8.813 7.181 15.98 16.003 15.98 8.824 0 16-7.167 16-15.98 0-8.81-7.176-15.978-16-15.978zm0 33.492c-9.668 0-17.538-7.856-17.538-17.514 0-9.657 7.87-17.512 17.538-17.512 9.67 0 17.538 7.855 17.538 17.512 0 9.658-7.868 17.514-17.538 17.514z" fill="#5FBFC2"/><path d="M220.173 281.893h-55.936l7.097-34.535h41.73l7.11 34.535" fill="#E1EFF5"/><path d="M220.173 281.893h-14.26l-34.58-34.535h41.73l7.11 34.535" fill="#B5D0E1"/><path d="M149.26 281.893h85.89v4.176h-85.89v-4.176z" fill="#F6FAFC"/><path d="M90.087 105.25c-2.86 0-5.211 2.358-5.211 5.223V242.14c0 2.871 2.35 5.217 5.211 5.217h204.237c2.877 0 5.236-2.346 5.236-5.217V110.473c0-2.865-2.36-5.223-5.236-5.223H90.087L294.75 220.272" fill="#4D5F70"/><path d="M95.717 116.088h192.976v120.436H95.717V116.088z" fill="#CCE0EA"/><path d="M98.15 128.238h188.108v105.856H98.151V128.238z" fill="#FFF"/><path d="M95.717 116.088h192.976v12.15H95.717v-12.15z" fill="#CCE0EA"/><path d="M109.405 122.164c0 1.343-1.089 2.43-2.433 2.43a2.43 2.43 0 1 1 0-4.863 2.432 2.432 0 0 1 2.433 2.433" fill="#DF4F2D"/><path d="M121.52 122.164c0 1.343-1.089 2.43-2.433 2.43a2.431 2.431 0 1 1 0-4.863 2.432 2.432 0 0 1 2.434 2.433" fill="#F7C248"/><path d="M133.636 122.164a2.43 2.43 0 0 1-2.433 2.43 2.43 2.43 0 1 1 0-4.863 2.431 2.431 0 0 1 2.433 2.433" fill="#3DB7B8"/><path d="M278.083 122.164a2.44 2.44 0 0 1-2.435 2.43H144.246a2.44 2.44 0 0 1-2.432-2.43 2.44 2.44 0 0 1 2.432-2.433h131.402a2.44 2.44 0 0 1 2.435 2.433" fill="#FFF"/><path d="M116.035 137.136h72.215v40.614h-72.215v-40.614z" fill="#E36642"/><path d="M116.035 185.111h72.215v14.174h-72.215V185.11zM196.16 185.111h72.217v14.174H196.16V185.11z" fill="#55BDC1"/><path d="M198.336 137.136h70.04v3.091h-70.04v-3.091zM198.336 144.863h70.04v3.091h-70.04v-3.091zM198.336 152.592h23.022v3.09h-23.022v-3.09z" fill="#B5CCDB"/><path d="M116.035 206.654h152.342v3.087H116.035v-3.087z" fill="#4D5F70"/><path d="M116.035 214.38h152.342v3.088H116.035v-3.089zM116.035 222.106h76.17v3.092h-76.17v-3.092z" fill="#B5CCDB"/><path d="M161.622 165.272a2.533 2.533 0 0 0 0 5.065 2.534 2.534 0 0 0 2.538-2.529 2.53 2.53 0 0 0-2.538-2.536zm-10.337 0a2.534 2.534 0 1 0 2.538 2.537 2.531 2.531 0 0 0-2.538-2.537zm11.26-7.47l-.577 1.898h-11.025l-.575-1.899h12.176zm1.15-3.797h-14.48l.577 1.898h13.327l.577-1.898zm-.012 10.38H149.23c-.503 0-.986-.157-1.388-.458-.408-.3-.698-.711-.843-1.195l-4.672-15.39h-7.22v-2.792h7.565c.504 0 .982.161 1.386.46.408.297.7.712.84 1.19l4.677 15.399h13.767l2.878-9.495h-17.58l-.847-2.787h19.054c.733 0 1.433.35 1.87.943.439.587.571 1.353.36 2.058l-3.163 10.414a2.326 2.326 0 0 1-2.232 1.653zM282.594 287.976c1.08-1.931 1.68-4.051 1.68-6.273 0-8.97-9.729-16.24-21.727-16.24-12.002 0-21.729 7.27-21.729 16.24 0 2.222.599 4.342 1.68 6.273h40.096" fill="#FFF"/><path d="M241.041 284.024a13.17 13.17 0 0 0 1.457 3.952h40.096a13.104 13.104 0 0 0 1.455-3.952H241.04" fill="#E1EFF5"/><path d="M97.086 280.22h37.138v7.752H97.086v-7.752z" fill="#F7C248"/><path d="M97.086 279.45h37.138v7.75H97.086v-7.75z" fill="#F3B03E"/><path d="M94.03 271.698h37.14v7.752H94.03v-7.752z" fill="#F7C248"/><path d="M94.03 270.926h37.14v7.745H94.03v-7.745zM103.364 263.176h37.137v7.75h-37.137v-7.75z" fill="#F7C248"/><path d="M103.364 262.396h37.137v7.749h-37.137v-7.75z" fill="#FBD15F"/><path d="M99.855 254.648h37.142v7.748H99.855v-7.748z" fill="#F7C248"/><path d="M99.855 253.87h37.142v7.758H99.855v-7.758zM99.059 237.543h37.143v7.756H99.059v-7.756z" fill="#F7C248"/><path d="M104.849 246.121h37.138v7.75h-37.138v-7.75z" fill="#F7C248"/><path d="M104.849 245.35h37.138v7.742h-37.138v-7.743z" fill="#FBD15F"/><path d="M49.096 280.22h37.14v7.752h-37.14v-7.752z" fill="#F7C248"/><path d="M49.096 279.45h37.14v7.75h-37.14v-7.75z" fill="#FBD15F"/><path d="M43.829 271.698h37.14v7.752H43.83v-7.752z" fill="#F3B03E"/><path d="M43.829 270.926h37.14v7.745H43.83v-7.745zM52.097 263.176h37.141v7.75H52.097v-7.75z" fill="#F7C248"/><path d="M52.097 262.396h37.141v7.749H52.097v-7.75z" fill="#FBD15F"/><path d="M53.257 254.648h37.14v7.748h-37.14v-7.748z" fill="#F7C248"/><path d="M53.257 253.87h37.14v7.758h-37.14v-7.758z" fill="#F3B03E"/><path d="M49.927 246.121H87.07v7.75H49.927v-7.75z" fill="#F3B03E"/><path d="M49.927 245.35H87.07v7.742H49.927v-7.743z" fill="#F7C248"/><path d="M51.212 237.599H88.35v7.75H51.212v-7.75z" fill="#F3B03E"/><path d="M51.212 236.816H88.35v7.756H51.212v-7.756zM49.096 229.073h37.14v7.743h-37.14v-7.743z" fill="#F7C248"/><path d="M49.096 228.294h37.14v7.752h-37.14v-7.752z" fill="#FBD15F"/><path d="M56.026 220.54h37.141v7.754H56.026v-7.753z" fill="#F3B03E"/><path d="M56.026 219.77h37.141v7.756H56.026v-7.757z" fill="#F7C248"/><path d="M110.272 287.976H97.085v-8.526H94.03h3.056v8.522h13.183l.003.004" fill="#4D979E"/><path d="M130.44 287.976h-20.168l-.003-.004h20.167l.004.004" fill="#418A90"/><path d="M130.436 287.972h-33.35v-7.752 6.98h32.575l.006.007.552.552.217.213" fill="#E1A43C"/><path d="M129.661 287.2H97.086v-7.75h24.818l7.757 7.75" fill="#E19734"/><path d="M121.904 279.45H94.03v-.78h27.099l.002.003.773.777" fill="#E1A43C"/><path d="M121.129 278.67H94.03v-7.742h9.335v-.002h10.003l.001.002.773.773 5.84 5.832 1.147 1.138M113.368 270.926h-10.003v-.781h9.221l.782.781" fill="#E1A43C"/><path d="M112.586 270.145h-9.22v-7.75h1.463l.777.784.41.404.196.197 1.31 1.308 4.106 4.106.957.95.001.001" fill="#E2B14D"/><path d="M104.829 262.396h-1.464v-.003h-3.51v-.765h4.201l.77.765.003.003M104.056 261.628h-4.201v-4.19l2.647 2.643 1.554 1.547" fill="#E1A43C"/><path d="M86.235 287.976H73.218l-.004-.004h13.021v-8.522 8.526m-5.266-8.526v-8.524h8.27v-8.53h.002v8.532h-8.272v8.522" fill="#4D979E"/><path d="M86.235 287.972h-13.02l-.778-.765-.006-.006h13.804v.771" fill="#E1A43C"/><path d="M86.235 287.2H72.431l-3.68-3.674a21.44 21.44 0 0 1-2.106-2.496c-.21-.278-.384-.552-.547-.808l-.035-.053c-.122-.189-.28-.44-.441-.719h20.613v7.75" fill="#E2B14D"/><path d="M80.97 279.45H65.621l-.062-.114c-.124-.216-.24-.44-.36-.663l-.001-.002h15.77v.78" fill="#E19734"/><path d="M80.97 278.67H65.198a19.056 19.056 0 0 1-2.135-6.808l-.015-.16c-.027-.216-.056-.442-.07-.665l-.013-.109v-.002h18.003v7.745M89.238 270.926H62.966a12.59 12.59 0 0 1-.032-.755v-.026h26.304v.781" fill="#E1A43C"/><path d="M89.238 270.145H62.934v-.001a13.79 13.79 0 0 1-.017-.718c0-.11 0-.22.006-.334v-.112c-.006-.111-.006-.22-.006-.336 0-1.86.262-3.697.767-5.465.03-.136.077-.28.114-.414.03-.124.077-.245.12-.37h25.32v7.75" fill="#E2B14D"/><path d="M89.24 262.396H63.919v-.003c.044-.144.1-.3.153-.457.042-.1.077-.201.119-.308h26.207v.765H89.24v.003" fill="#E1A43C"/><path d="M90.397 261.628H64.19l.001-.004c.071-.189.14-.358.208-.533a19.897 19.897 0 0 1 4.277-6.45c.261-.265.526-.52.802-.77h20.919v7.757M87.069 253.87h-17.59c.099-.093.2-.188.307-.265.194-.178.382-.338.605-.513H87.07v.778" fill="#E19734"/><path d="M87.069 253.092H70.39c.126-.093.26-.198.401-.312.427-.325.827-.602 1.228-.85a19.164 19.164 0 0 1 3.333-1.749c.171-.065.345-.135.528-.202a20.004 20.004 0 0 1 6.982-1.26h.213c.353.008.688.02 1.014.038l.09.006c.448.036.893.083 1.33.132l.198.03c.448.056.894.14 1.36.24v3.927" fill="#E1A43C"/><path d="M101.434 269.426c0 10.252-8.31 18.546-18.57 18.546-10.247 0-18.569-8.294-18.569-18.546 0-10.245 8.322-18.545 18.57-18.545 10.26 0 18.57 8.3 18.57 18.545" fill="#F7C248"/><path d="M101.434 268.644c0 10.252-8.31 18.557-18.57 18.557-10.247 0-18.569-8.305-18.569-18.557 0-10.235 8.322-18.535 18.57-18.535 10.26 0 18.57 8.3 18.57 18.535" fill="#FBD15F"/><path d="M82.864 254.559c-7.78 0-14.113 6.324-14.113 14.085 0 7.782 6.334 14.102 14.113 14.102 7.784 0 14.114-6.32 14.114-14.102 0-7.761-6.33-14.085-14.114-14.085zm0 29.674c-8.601 0-15.595-6.995-15.595-15.59 0-8.576 6.994-15.575 15.595-15.575 8.603 0 15.598 6.999 15.598 15.576 0 8.594-6.995 15.59-15.598 15.59z" fill="#F3B03E"/><path d="M185.353 157.21l6.491 24.206 5.46-5.452 13.654 13.631 6.825-6.815-13.654-13.633 5.461-5.453-24.237-6.485" fill="#273B4E"/><path d="M110.18 211.973a5.298 5.298 0 0 1-5.302 5.296H24.301A5.298 5.298 0 0 1 19 211.973V161.86a5.298 5.298 0 0 1 5.301-5.295h80.577a5.298 5.298 0 0 1 5.301 5.295v50.114" fill="#E36642"/><path d="M49.393 173.8a4.947 4.947 0 0 1-4.95 4.944H30.964a4.947 4.947 0 0 1-4.95-4.943v-7.624a4.947 4.947 0 0 1 4.95-4.944h13.479a4.947 4.947 0 0 1 4.95 4.944v7.624" fill="#FEF59F"/><path d="M30.69 161.233h2.338v18.679H30.69v-18.679z" fill="#BDB673"/><path d="M26.014 167.07h7.014v3.503h-7.014v-3.503zM32.126 170.573h-7.002 7.002M32.126 171.74h-7.002 7.002M34.197 179.633v-17.965 17.965M34.197 165.903h15.196v1.167H34.197v-1.167zM33.294 168.238h15.17-15.17M34.256 170.573h14.618-14.618M34.197 170.573h15.196v1.167H34.197v-1.167z" fill="#BDB673"/><text font-family=".AppleSystemUIFont" font-size="7.621" transform="translate(19 55)"><tspan x="35.565" y="115.175" fill="#FEF59F">BANK NAME</tspan></text><text font-family=".AppleSystemUIFont" font-size="7.621" transform="translate(19 55)"><tspan x="5.182" y="142.866" fill="#FEF59F">1234 5678 3456 </tspan></text><path d="M310.494 162.434v1.067h3.535v1.324h-3.535v5.592h5.055v1.323h-8.353v-1.323h1.685v-5.592h-1.603V163.5h1.603v-1.2c0-2.285.543-3.653 1.629-4.105 1.085-.451 1.926-.677 2.522-.677 1.192 0 2.092.137 2.702.41l-.185 1.417c-.514-.308-1.15-.462-1.91-.462-.761 0-1.338.097-1.732.292-.394.195-.728.508-1.002.94-.274.43-.41 1.203-.41 2.318z" fill="#57B3C6"/><g><path d="M107.149 86.482c-3.902 0-7.076 3.17-7.076 7.067 0 3.897 3.174 7.067 7.076 7.067 3.903 0 7.077-3.17 7.077-7.067 0-3.897-3.174-7.067-7.077-7.067zm0 15.054c-4.41 0-7.997-3.581-7.997-7.987 0-4.405 3.588-7.986 7.997-7.986 4.41 0 8 3.581 8 7.986 0 4.406-3.59 7.987-8 7.987z" fill="#5FBFC2"/><path d="M107.149 83.973c-5.286 0-9.59 4.296-9.59 9.576 0 5.281 4.304 9.576 9.59 9.576 5.29 0 9.589-4.295 9.589-9.576 0-5.28-4.3-9.576-9.589-9.576zm0 20.072c-5.793 0-10.51-4.708-10.51-10.496 0-5.787 4.717-10.496 10.51-10.496 5.796 0 10.511 4.71 10.511 10.496 0 5.788-4.715 10.496-10.511 10.496z" fill="#5FBFC2"/><path d="M106.129 92.105v.702h2.325v.87h-2.325v3.68h3.326v.871h-5.496v-.87h1.108v-3.68h-1.054v-.871h1.054v-.79c0-1.503.358-2.404 1.072-2.7.714-.298 1.267-.446 1.66-.446.784 0 1.376.09 1.778.27l-.122.932c-.338-.203-.757-.304-1.258-.304-.5 0-.88.064-1.139.192s-.479.334-.659.618c-.18.283-.27.792-.27 1.526z" fill="#57B3C6"/></g><path d="M277.048 95.7v.954h3.16v1.183h-3.16v5h4.52v1.183H274.1v-1.183h1.506v-5h-1.433v-1.183h1.433v-1.073c0-2.043.485-3.266 1.456-3.67.97-.403 1.722-.605 2.255-.605 1.066 0 1.87.122 2.416.367l-.166 1.266c-.459-.275-1.028-.413-1.708-.413-.68 0-1.196.087-1.548.262-.352.174-.65.454-.895.839-.245.385-.368 1.076-.368 2.073z" fill="#57B3C6"/></g></g></svg>