<svg width="101" height="21" viewBox="0 0 101 21" xmlns="http://www.w3.org/2000/svg"><title>BarFlow</title><path d="M14.58 14.689c0 2.044-.658 3.431-1.975 4.16-1.317.729-3.034 1.093-5.151 1.093H.904V1.73h7.311c2.686 0 4.342.533 4.968 1.6.625 1.067.938 2.107.938 3.12s-.313 1.878-.938 2.593c-.626.716-1.486 1.198-2.58 1.447 1.13.204 2.074.667 2.836 1.387.761.72 1.142 1.657 1.142 2.813zm-4.41-7.92c0-.916-.308-1.571-.925-1.967-.617-.395-1.384-.593-2.303-.593H4.71v5.227h1.916c1.619 0 2.614-.32 2.986-.96.372-.64.558-1.21.558-1.707zm.381 7.84c0-1.902-1.374-2.853-4.121-2.853H4.71v5.706H6.6c1.75 0 2.847-.329 3.288-.986.442-.658.663-1.28.663-1.867zm18.388 2.107c0 1.369.044 2.444.132 3.226h-3.61l-.078-2.133a5.153 5.153 0 0 1-1.851 1.78c-.77.44-1.527.66-2.27.66-1.444 0-2.597-.338-3.46-1.013-.861-.676-1.292-1.658-1.292-2.947 0-1.707.678-2.944 2.034-3.713 1.357-.77 3.09-1.154 5.198-1.154.569 0 1.107.018 1.614.054v-.467c0-1.813-1.045-2.72-3.137-2.72-1.54 0-2.905.36-4.095 1.08l-.157-2.533c1.592-.587 3.167-.88 4.725-.88 4.165 0 6.247 1.777 6.247 5.333v5.427zm-3.583-3.294h-.485c-1.357 0-2.337.114-2.94.34-.604.227-1.066.51-1.385.847-.32.338-.48.738-.48 1.2 0 .773.215 1.313.644 1.62.429.307.936.46 1.523.46 1.085 0 1.876-.351 2.375-1.053.499-.703.748-1.614.748-2.734v-.68zM39.387 5.93c.446 0 .814.049 1.103.147l-.105 3.386c-.35-.124-.788-.186-1.313-.186-.525 0-1.186.26-1.982.78s-1.194 1.775-1.194 3.766v6.12H32.18V9.29c0-1.173-.043-2.182-.13-3.027h3.49l.08 2.654c.533-1.307 1.183-2.131 1.948-2.474.766-.342 1.372-.513 1.818-.513zm7.39-1.413v5h7.166v2.76h-7.167v7.666H42.8V1.73h11.47v2.787h-7.494zm10.04 15.426V.25h3.715v19.693h-3.715zM70.244 5.956c2.135 0 3.835.61 5.1 1.833 1.264 1.222 1.896 2.953 1.896 5.193 0 2.24-.628 4.011-1.884 5.314-1.255 1.302-2.986 1.953-5.19 1.953-2.206 0-3.934-.644-5.185-1.933-1.251-1.29-1.877-3.045-1.877-5.267 0-2.222.656-3.96 1.969-5.213 1.312-1.254 3.036-1.88 5.171-1.88zm2.304 3.906c-.477-.889-1.263-1.333-2.356-1.333-1.094 0-1.886.442-2.376 1.327-.49.884-.735 1.944-.735 3.18 0 2.07.374 3.362 1.122 3.873.748.511 1.411.767 1.989.767.577 0 1.063-.131 1.456-.394.394-.262.762-.704 1.103-1.326.341-.623.512-1.574.512-2.854 0-1.27-.239-2.35-.715-3.24zm24.366 10.08h-4.607L89.59 9.076l-2.782 10.866h-4.607L78.355 6.236h3.741l2.69 10.786 2.691-10.786h4.41l2.77 10.786 2.599-10.786h3.438l-3.78 13.706z" fill="#FFF" fill-rule="evenodd"/></svg>