<svg width="127" height="20" viewBox="0 0 127 20" xmlns="http://www.w3.org/2000/svg"><title>Logo</title><path d="M3.862 6.076c0 .601.26 1.084.781 1.447.52.364 1.145.682 1.873.953l1.866.723c1.295.516 2.283 1.13 2.964 1.841.682.711 1.022 1.625 1.022 2.742 0 1.109-.2 1.996-.603 2.66-.402.664-1.075 1.305-2.018 1.923-.944.618-2.385.927-4.323.927-1.938 0-3.699-.254-5.281-.762l.127-2.958c1.328.694 2.95 1.041 4.862 1.041 1.464 0 2.384-.287 2.761-.863.377-.576.565-1.062.565-1.46 0-.398-.104-.726-.311-.984a3.564 3.564 0 0 0-.762-.698c-.3-.207-.632-.39-.996-.546a45.707 45.707 0 0 1-1.016-.45l-1.777-.775C1.209 9.855.016 8.366.016 6.368c0-1.735.702-2.996 2.107-3.783 1.405-.787 2.967-1.18 4.685-1.18 1.718 0 3.258.181 4.62.545l-.126 2.857c-1.177-.508-2.51-.762-4-.762-1.489 0-2.435.247-2.837.743-.402.495-.603.924-.603 1.288zm11.794 8.582V8.311H13.32V5.949h2.336V3.296l3.593-1.168v3.821h2.907v2.362H19.25v6.398c0 .559.1 1.028.298 1.41.2.38.578.57 1.137.57.558 0 1.074-.097 1.548-.292l.102 2.4c-1.007.33-1.942.495-2.806.495-1.506 0-2.528-.391-3.066-1.174-.537-.783-.806-1.936-.806-3.46zM30.65 5.683c2.066 0 3.71.581 4.933 1.745 1.223 1.164 1.834 2.812 1.834 4.945 0 2.133-.607 3.82-1.822 5.06-1.214 1.239-2.888 1.859-5.02 1.859-2.134 0-3.805-.614-5.015-1.84-1.21-1.228-1.816-2.9-1.816-5.015 0-2.116.635-3.771 1.904-4.964 1.27-1.194 2.937-1.79 5.002-1.79zm2.228 3.72c-.46-.847-1.22-1.27-2.278-1.27s-1.824.42-2.298 1.263c-.474.842-.711 1.851-.711 3.028 0 1.972.362 3.201 1.085 3.688.724.486 1.365.73 1.924.73.558 0 1.028-.125 1.409-.375.38-.25.736-.67 1.066-1.263.33-.592.495-1.498.495-2.717 0-1.21-.23-2.238-.692-3.085zm6.278 3.059c0-2.09.641-3.743 1.924-4.958 1.282-1.214 2.98-1.821 5.097-1.821 1.286 0 2.522.182 3.707.546L49.73 8.78c-.922-.431-1.76-.647-2.513-.647-1.354 0-2.395.391-3.123 1.174-.728.783-1.092 1.818-1.092 3.104 0 1.287.355 2.347 1.066 3.18.711.834 1.625 1.25 2.743 1.25 1.117 0 2.107-.215 2.97-.647l.14 2.552c-1.075.364-2.256.546-3.542.546-2.353 0-4.145-.616-5.377-1.847-1.231-1.232-1.847-2.893-1.847-4.983zM55.862 19H52.27V.249h3.592v11.058l4.723-5.358h4.19l-5.307 5.827L65.295 19h-4.367l-5.066-6.627V19zm14.816 0h-3.403V1.658h5.739l4.557 13.178 4.494-13.178h5.739V19h-3.53L84.25 4.134 79.146 19h-3.377L70.678 4.134V19zm31.738-3.072c0 1.303.042 2.327.127 3.072h-3.491l-.076-2.031a4.95 4.95 0 0 1-1.79 1.695c-.745.419-1.477.628-2.197.628-1.396 0-2.511-.322-3.345-.965-.834-.643-1.25-1.578-1.25-2.806 0-1.625.655-2.803 1.967-3.535 1.312-.732 2.988-1.098 5.028-1.098.55 0 1.07.017 1.561.05v-.444c0-1.726-1.011-2.59-3.034-2.59-1.49 0-2.81.343-3.96 1.029l-.153-2.412c1.54-.56 3.064-.838 4.57-.838 4.029 0 6.043 1.692 6.043 5.078v5.167zm-3.466-3.136h-.47c-1.311 0-2.26.108-2.843.324-.584.216-1.03.484-1.34.806a1.594 1.594 0 0 0-.463 1.142c0 .737.207 1.25.622 1.543.415.292.906.438 1.473.438 1.05 0 1.815-.334 2.298-1.003.482-.669.723-1.536.723-2.603v-.647zm7.617 1.866V8.311h-2.336V5.949h2.336V3.296l3.593-1.168v3.821h2.907v2.362h-2.907v6.398c0 .559.1 1.028.298 1.41.2.38.578.57 1.137.57.558 0 1.075-.097 1.549-.292l.101 2.4c-1.007.33-1.942.495-2.806.495-1.506 0-2.528-.391-3.065-1.174-.538-.783-.807-1.936-.807-3.46zm9.801 2.825c-1.142-1.206-1.714-2.837-1.714-4.894s.589-3.722 1.765-4.996c1.176-1.274 2.738-1.91 4.685-1.91 1.946 0 3.393.624 4.341 1.872.948 1.249 1.422 2.922 1.422 5.021v.813h-8.658c0 1.125.377 2.016 1.13 2.672.753.656 1.676.984 2.767.984 1.524 0 2.836-.292 3.936-.876l.152 2.412c-1.312.474-2.992.711-5.04.711s-3.643-.603-4.786-1.81zm7.224-6.024c0-1.574-.305-2.57-.914-2.99-.61-.419-1.16-.628-1.65-.628-.898 0-1.592.376-2.083 1.13a4.464 4.464 0 0 0-.736 2.488h5.383z" fill="#FFF" fill-rule="evenodd"/></svg>