<svg width="580" height="156" viewBox="0 0 580 156" xmlns="http://www.w3.org/2000/svg"><title>logo</title><g fill="#FFF" fill-rule="evenodd"><g><path d="M78 51.7c-1.7-3.9-6.9-8.8-7.7-10-.8-1.2-1.4-3.1-1.4-5.7S68 9.5 68 9.5c0-.8.4-.5.4-.9V5c0-.6-.5-.6-.5-.6V2.6c0-1.4-1.4-1.7-2.1-1.9-.6-.2-4.8-.3-5.1-.3L25.8.6c-1.2 0-2.2 1-2.2 2.2 0 1.2 1 2.2 2.2 2.2h34.6c1.2 0 2.2 1 2.2 2.2 0 1.2-1 2.2-2.2 2.2H34.7c-1.2 0-2.2 1-2.2 2.2 0 1.2 1 2.2 2.2 2.2h28c1.2 0 2.2 1 2.2 2.2 0 1.2-1 2.2-2.2 2.2h-17c-1.2 0-2.2 1-2.2 2.2 0 1.2 1 2.2 2.2 2.2h13.2c1.2 0 2.2 1 2.2 2.2 0 1.2-1 2.2-2.2 2.2H38.7c-1.2 0-2.2 1-2.2 2.2 0 1.2 1 2.2 2.2 2.2h21c1.2 0 2.2 1 2.2 2.2 0 1.2-1 2.2-2.2 2.2H16.3c-1.2 0-2.2 1-2.2 2.2 0 1.2 1 2.2 2.2 2.2h36.3c1.2 0 2.2 1 2.2 2.2 0 1.2-1 2.2-2.2 2.2H27.2c-1.2 0-2.2 1-2.2 2.2 0 1.2 1 2.2 2.2 2.2h32.5c1.2 0 2.2 1 2.2 2.2 0 1.2-1 2.2-2.2 2.2H21.2c-1.2 0-2.2 1-2.2 2.2 0 1.2 1 2.2 2.2 2.2h24.4c1.2 0 2.2 1 2.2 2.2 0 1.2-1 2.2-2.2 2.2H32.9c-1.2 0-2.2 1-2.2 2.2 0 1.2 1 2.2 2.2 2.2h20.4c1.2 0 2.2 1 2.2 2.2 0 1.2-1 2.2-2.2 2.2H24.6c-1.2 0-2.2 1-2.2 2.2 0 1.2 1 2.2 2.2 2.2l31.9.1c1.2 0 2.2 1 2.2 2.2 0 1.2-1 2.2-2.2 2.2L9.1 80c-1.2 0-2.2 1-2.2 2.2 0 1.2 1 2.2 2.2 2.2l55.6.1c1.2 0 2.2 1 2.2 2.2 0 1.2-1 2.2-2.2 2.2l-26.5.1C37 89 36 90 36 91.2c0 1.1.9 2.1 1.9 2.2H60c1.1.1 1.9 1.1 1.9 2.2 0 1.2-1 2.2-2.2 2.2H21.2c-1.2 0-2.2 1-2.2 2.2 0 1.2 1 2.2 2.2 2.2h38.5c1.2 0 2.2 1 2.2 2.2 0 1.2-1 2.2-2.2 2.2H14.1c-1.2 0-2.2 1-2.2 2.2 0 1.2 1 2.2 2.2 2.2h40.3c1.2 0 2.2 1 2.2 2.2 0 1.2-1 2.2-2.2 2.2H24.6c-1.2 0-2.2 1-2.2 2.2 0 1.2 1 2.2 2.2 2.2h34.3c1.2 0 2.2 1 2.2 2.2 0 1.2-1 2.2-2.1 2.2H34c-1.2 0-2.1 1-2.1 2.2 0 1.2 1 2.2 2.2 2.2h16.3c1.2 0 2.2 1 2.2 2.2 0 1.2-1 2.2-2.2 2.2H21.9c-1.2 0-2.2 1-2.2 2.2 0 1.2 1 2.2 2.2 2.2h42.7c1.2 0 2.2 1 2.2 2.2 0 1.2-1 2.2-2.2 2.2H27.2c-1.2 0-2.2 1-2.2 2.2 0 1.2 1 2.2 2.2 2.2h30.3c1.2 0 2.2 1 2.2 2.2 0 1.2-1 2.2-2.2 2.2H38.1c-1.2 0-2.2 1-2.2 2.2 0 1.2 1 2.2 2.2 2.2h34c3-.1 4.9-1 6-2.1 1.9-1.8 2-4.2 2-5.3V64c.1-5.5-.5-8.3-2.1-12.3z"/><circle cx="17.6" cy="73.3" r="2.2"/><circle cx="18.8" cy="2.7" r="2.2"/><path d="M6.9 40.2h1.8c1.2 0 2.2-1 2.2-2.2 0-1.2-1-2.2-2.2-2.2H6.9c-1.2 0-2.2 1-2.2 2.2 0 1.2 1 2.2 2.2 2.2zM4.7 106.6s0 .1 0 0H2.9c-1.2 0-2.2 1-2.2 2.2 0 1.2 1 2.2 2.2 2.2h1.8c1.2 0 2.2-1 2.2-2.2 0-1.2-1-2.2-2.2-2.2zM30 150.8h-1.8c-1.2 0-2.2 1-2.2 2.2 0 1.2 1 2.2 2.2 2.2H30c1.2 0 2.2-1 2.2-2.2 0-1.2-1-2.2-2.2-2.2zM29.1 126.5c0-1.2-1-2.2-2.2-2.2h-.2c-1.2 0-2.2 1-2.2 2.2 0 1.2 1 2.2 2.2 2.2 1.2 0 2.4-1 2.4-2.2z"/></g><path d="M142 77.3c11.8 4 11.4 15.5 11.4 15.5 0 20.7-21.3 21.7-26.3 21.7h-24.2c-.6 0-1.1-.4-1.1-.9V40.9c0-.4.4-.9 1.1-.9h24.2s25.2-.5 25.2 21.3c0 8.8-4.6 13.7-10.3 16zm-26-6.9h11.2s10.9 0 10.9-8.2c0-8.9-10.9-8.8-10.9-8.8H116v17zm23.2 22.1c0-8.8-12-8.2-12-8.2H116v16.6h11.2c4.6 0 12-1.3 12-8.4zM200.7 106.1h-24.1l-2.9 7.9c-.1.3-.5.5-1 .5h-13.1c-.9 0-1.3-.5-1-1.2l29-74.8c.3-.7 1.6-.7 1.9 0l29 74.8c.3.6-.1 1.2-.9 1.2h-13.2c-.3 0-.7-.2-.9-.5l-2.8-7.9zm-19.5-12.5h15l-7.4-22.3-7.6 22.3zM248.8 84.4h-8v29.2c0 .4-.4.9-1.1.9h-12.1c-.5 0-1-.4-1-.9V40.9c0-.4.4-.9 1-.9h24c4.3 0 25.2.2 25.2 22.1 0 11.4-6.3 17.3-13.7 20 4.7 10.5 9.7 20.7 14.4 31.1.3.6-.1 1.2-.9 1.2h-13.3c-.3 0-.9-.3-1-.5l-13.5-29.5zm-8-13.6h10.8c3.1 0 11.1-.4 11.1-8.6s-8.8-8.6-11.1-8.6h-10.8v17.2zM304.6 53.9v16.8h29.2c.5 0 1 .4 1 .9v11.8c0 .4-.4.9-1 .9h-29.2v29.4c0 .4-.4.9-1.1.9h-12.1c-.6 0-1.1-.4-1.1-.9V40.9c0-.4.4-.9 1.1-.9h48.5c.6 0 1.1.4 1.1.9V53c0 .4-.4.9-1.1.9h-35.3zM391.7 100.8c.6 0 1.1.4 1.1.9v12c0 .4-.4.9-1.1.9H353c-.6 0-1.1-.4-1.1-.9V40.9c0-.4.4-.9 1.1-.9h12c.6 0 1.1.4 1.1.9v59.9h25.6zM471.7 77.2c0 19-12.3 38.3-36.7 38.3-24.8 0-36.9-19.2-36.9-38.3 0-19 12.1-38.2 36.9-38.2 24.3 0 36.7 19.2 36.7 38.2zm-14.4.2c0-12.4-7.5-24.9-22.3-24.9-15 0-22.4 12.4-22.4 24.9 0 12.3 7.4 24.7 22.4 24.7 14.8 0 22.3-12.4 22.3-24.7zM550.7 116.8c-.3.7-1.5.7-1.8 0l-21.7-57.5-21.6 57.5c-.3.7-1.6.7-1.9 0L475 41.3c-.3-.6.2-1.2 1-1.2h13c.4 0 .9.2 1 .5l14.8 41.5 15-41.5c.1-.3.4-.5.9-.5h13.4c.4 0 .9.2 1 .5L550 82.1l15-41.5c.1-.3.5-.5 1-.5h13c.9 0 1.2.5.9 1.2l-29.2 75.5z"/></g></svg>