<svg width="375" height="375" viewBox="0 0 375 375" xmlns="http://www.w3.org/2000/svg" xmlns:xlink="http://www.w3.org/1999/xlink"><title>tap_swipe_light_gray_small-22bef3788c4e7d4d49ea06cb62a34192</title><defs><circle id="a" cx="187.5" cy="187.5" r="187.5"/><path id="c" d="M119.581.703C53.584.703.083 54.205.083 120.202c0 65.997 53.501 119.498 119.498 119.498h179.222V.703H119.581"/></defs><g fill="none" fill-rule="evenodd"><mask id="b" fill="#fff"><use xlink:href="#a"/></mask><use fill="#D8D8D8" xlink:href="#a"/><path fill="#6D97D6" mask="url(#b)" d="M-43 78h460v210H-43z"/><path fill="#606060" mask="url(#b)" d="M-4 266h387v27H-4z"/><g transform="translate(58 78)" mask="url(#b)"><mask id="d" fill="#fff"><use xlink:href="#c"/></mask><path d="M155.011 71.989v99.739h93.443v-15.574h13.917v-26.84s-10.604-8.947-26.177-12.591c0 0-18.225-32.142-24.521-37.444 0 0-8.284-5.633-56.662-7.29" fill="#E8E8E3" mask="url(#d)"/><path d="M49.64 140.912v8.284H39.367v22.532h115.644v-22.864H132.81v-10.935H48.977l.663 2.983" fill="#4C4C49" mask="url(#d)"/><path d="M148.844 177.03h-38.695a6.167 6.167 0 0 1-6.167-6.167v-4.897a6.167 6.167 0 0 1 6.167-6.167h38.695a6.167 6.167 0 0 1 6.167 6.167v4.897a6.167 6.167 0 0 1-6.167 6.167" fill="#393A38" mask="url(#d)"/><path d="M252.531 171.728c.146-1.14.23-2.3.23-3.479 0-14.915-12.09-27.006-27.005-27.006s-27.006 12.091-27.006 27.006c0 1.179.084 2.339.231 3.479h53.55M103.751 171.728c.147-1.14.231-2.3.231-3.479 0-14.915-12.091-27.006-27.006-27.006-14.914 0-27.005 12.091-27.005 27.006 0 1.179.084 2.339.231 3.479h53.549" fill="#222321" mask="url(#d)"/><path d="M246.134 168.249c0 11.254-9.124 20.378-20.378 20.378-11.255 0-20.379-9.124-20.379-20.378 0-11.255 9.124-20.379 20.379-20.379 11.254 0 20.378 9.124 20.378 20.379" fill="#393A38" mask="url(#d)"/><path d="M235.734 168.249c0 5.511-4.467 9.978-9.978 9.978s-9.979-4.467-9.979-9.978 4.468-9.979 9.979-9.979c5.511 0 9.978 4.468 9.978 9.979" fill="#E8E8E3" mask="url(#d)"/><path d="M96.858 168.249c0 10.98-8.901 19.881-19.882 19.881-10.98 0-19.881-8.901-19.881-19.881 0-10.981 8.901-19.882 19.881-19.882 10.981 0 19.882 8.901 19.882 19.882" fill="#393A38" mask="url(#d)"/><path d="M87.949 168.249c0 6.06-4.913 10.972-10.973 10.972-6.06 0-10.972-4.912-10.972-10.972s4.912-10.973 10.972-10.973 10.973 4.913 10.973 10.973" fill="#E8E8E3" mask="url(#d)"/><path d="M263.282 173.426h-15.45v-17.935h15.45a3.563 3.563 0 0 1 3.562 3.563v10.81a3.562 3.562 0 0 1-3.562 3.562M49.971 172.805H38.414a3.313 3.313 0 0 1-3.313-3.313v-11.351a3.312 3.312 0 0 1 3.313-3.312h11.557v17.976" fill="#C4C3BF" mask="url(#d)"/><path d="M39.513 154.829h-.208c-.649 0-1.18-.531-1.18-1.18v-3.605c0-.649.531-1.18 1.18-1.18h.208c.649 0 1.18.531 1.18 1.18v3.605c0 .649-.531 1.18-1.18 1.18" fill="#DB3638" mask="url(#d)"/><path d="M209.922 85.492h7.039s17.244 25.68 19.233 31.231h-13.95a1.898 1.898 0 0 1-1.72-1.098l-12.562-27.063c-.665-1.432.381-3.07 1.96-3.07M215.795 114.121l-11.238-26.645a3.245 3.245 0 0 0-2.989-1.984h-22.409a2.775 2.775 0 0 0-2.775 2.775v25.68a2.775 2.775 0 0 0 2.775 2.776h34.909a1.874 1.874 0 0 0 1.727-2.602" fill="#6797BD" mask="url(#d)"/><path d="M188.796 127.326h-10.038a1.26 1.26 0 0 1-1.256-1.256v-.222c0-.69.565-1.256 1.256-1.256h10.038a1.26 1.26 0 0 1 1.256 1.256v.222a1.26 1.26 0 0 1-1.256 1.256" fill="#C4C3BF" mask="url(#d)"/><path d="M255.275 149.444h-.222a1.26 1.26 0 0 1-1.256-1.256v-8.92a1.26 1.26 0 0 1 1.256-1.256h.222c.69 0 1.256.565 1.256 1.256v8.92a1.26 1.26 0 0 1-1.256 1.256" fill="#F1A84F" mask="url(#d)"/><path d="M262.371 136.944c-2.499.255-4.474 2.357-4.474 4.92v5.343c0 2.564 1.975 4.666 4.474 4.92v-15.183M160.214 168.414h-.134a.763.763 0 0 1-.761-.761V78.715c0-.419.342-.761.761-.761h.134c.419 0 .761.342.761.761v88.938a.763.763 0 0 1-.761.761" fill="#C4C3BF" mask="url(#d)"/><path d="M36.646 140.912H144.3a5.232 5.232 0 0 0 5.231-5.232V57.008a5.231 5.231 0 0 0-5.231-5.231H36.646a5.231 5.231 0 0 0-5.231 5.231v78.672a5.232 5.232 0 0 0 5.231 5.232" fill="#E8E8E3" mask="url(#d)"/><path d="M31.415 85.492h118.116v33.219H31.415V85.492z" fill="#4C4C49" mask="url(#d)"/><path d="M151.268 154.166h-46.525a.764.764 0 0 1-.761-.761v-.135c0-.418.343-.761.761-.761h46.525c.418 0 .761.343.761.761v.135a.764.764 0 0 1-.761.761" fill="#393A38" mask="url(#d)"/><path d="M155.011 166.426h43.739v5.302h-43.739v-5.302zM194.185 159.799h-32.887a1.985 1.985 0 0 1-1.979-1.979v-.349c0-1.089.89-1.98 1.979-1.98h32.887c1.088 0 1.979.891 1.979 1.98v.349a1.985 1.985 0 0 1-1.979 1.979" fill="#C4C3BF" mask="url(#d)"/><text mask="url(#d)" font-family=".AppleSystemUIFont" font-size="15.831" letter-spacing="0"><tspan x="52.509" y="103.916" fill="#FFF">DELIVERY</tspan></text></g></g></svg>